{
.appVersion = "1075";
DisplayStrings = (
"THE QUICK BROWN FOX JUMPS\012OVER THE LAZY DOG\012\012the quick brown fox jumps\012over the lazy dog\012\012\012AMAZINGLY FEW DISCOTHEQUES \012PROVIDE JUKEBOXES\012\012\012P/Rcaron \U00CDLI/Scaron  /Zcaron LU/Tcaron OU/Ccaron K\U00DD K/Uring/Ncaron  \U00DAP/Ecaron L /Dcaron \U00C1BELSK\U00C9 \U00D3DY.\012\012Hyv\U00E4n lorun sangen pieneksi hy\U00F6dyksi j\U00E4i suomen kirjaimet.\012\012\U00C7a me fait peur de f\U00EAter no\U00EBl l\U00E0, sur cette i/idotless \U00EEle bizarro\U00EFde o\U00F9 une m\U00E8re et sa m\U00F4me essaient de me tuer avec un g\U00E2teau \U00E0 la cig\U00FCe br\U00FBl\U00E9. \012\012QUEDA GAZPACHO, FIBRA, L\U00C1TEX, JAM\U00D3N, KIWI Y VI\U00D1AS. \012\012/Scedilla i/scedilla li/quoteright de b\U00FCy\U00FCk \U00E7\U00F6p y/idotless/gbreve/idotless nlar/idotless ! \012\012YXSKAFTBUD, GE V\U00C5R WC-ZONM\U00D6 IQ-HJ\U00C4LP. \012\012Quteda gazpacho, fibra, l\U00E1tex, jam\U00F3n, kiwi y vi\U00F1as.\012\012Hi/scaron ni/ccaron in bratec vzgaja pol/zcaron e pod fikusom.  \012\012HI/Scaron NI/Ccaron IN BRATEC VZGAJA POL/Zcaron E POD FIKUSOM. ",
"Jackie will budget for the most expensive zoology equipment \012\012JACKIE WILL BUDGET FOR THE MOST EXPENSIVE ZOOLOGY EQUIPMENT\012\012A quick movement of the enemy will jeopardize six gunboats\012\012A QUICK MOVEMENT OF THE ENEMY WILL JEOPARDIZE SIX GUNBOATS \012\012Just keep examining every low bid quoted for zinc etchings \012\012JUST KEEP EXAMAINING EVERY LOW BID UOTED FOR ZINC ETCHINGS\012\012Grumpy wizards make toxic brew for the evil queen and jack \012\012GRUMPY WIZARDS MAKE TOXIC BREW FOR THE EVIL QUEEN AND JACK\012\012Quirky spud boys can jam after zipping five worthy Polysixes\012\012QUIRKY SPUD BOYS CAN JAM AFTER\012ZIPPING FIVE WORTHY POLYSIXES\012\012\012\012",

glyphs = (
{
glyphname = A;
lastChange = "2017-11-14 21:08:42 +0000";
layers = (
{
layerId = "558B6FE6-F456-45D2-AA56-B37F51D1E4E1";
paths = (
{
closed = 1;
nodes = (
"52 0 LINE",
"147 0 LINE",
"304 700 LINE",
"209 700 LINE"
);
},
{
closed = 1;
nodes = (
"296 700 LINE",
"453 0 LINE",
"548 0 LINE",
"391 700 LINE"
);
},
{
closed = 1;
nodes = (
"221 618 LINE",
"379 618 LINE",
"379 700 LINE",
"221 700 LINE"
);
},
{
closed = 1;
nodes = (
"129 204 LINE",
"471 204 LINE",
"471 286 LINE",
"129 286 LINE"
);
}
);
width = 600;
},
{
layerId = "5521DC30-183F-421A-91F3-644B5E24AFE6";
paths = (
{
closed = 1;
nodes = (
"22 0 LINE",
"177 0 LINE",
"334 700 LINE",
"179 700 LINE"
);
},
{
closed = 1;
nodes = (
"266 700 LINE",
"423 0 LINE",
"578 0 LINE",
"421 700 LINE"
);
},
{
closed = 1;
nodes = (
"221 618 LINE",
"379 618 LINE",
"379 700 LINE",
"221 700 LINE"
);
},
{
closed = 1;
nodes = (
"129 164 LINE",
"471 164 LINE",
"471 286 LINE",
"129 286 LINE"
);
}
);
width = 600;
},
{
layerId = "BE68D89F-AB3F-4BDF-B332-ED50D7C47704";
paths = (
{
closed = 1;
nodes = (
"72 0 LINE",
"107 0 LINE",
"264 700 LINE",
"229 700 LINE"
);
},
{
closed = 1;
nodes = (
"336 700 LINE",
"493 0 LINE",
"528 0 LINE",
"371 700 LINE"
);
},
{
closed = 1;
nodes = (
"241 668 LINE",
"359 668 LINE",
"359 700 LINE",
"241 700 LINE"
);
},
{
closed = 1;
nodes = (
"149 244 LINE",
"451 244 LINE",
"451 276 LINE",
"149 276 LINE"
);
}
);
width = 600;
}
);
leftKerningGroup = A;
rightKerningGroup = A;
unicode = 0041;
},
{
glyphname = AE;
lastChange = "2017-02-09 22:13:10 +0000";
layers = (
{
layerId = "558B6FE6-F456-45D2-AA56-B37F51D1E4E1";
paths = (
{
closed = 1;
nodes = (
"378 0 LINE",
"378 700 LINE",
"285 700 LINE",
"285 0 LINE"
);
},
{
closed = 1;
nodes = (
"347 0 LINE",
"579 0 LINE",
"579 82 LINE",
"347 82 LINE"
);
},
{
closed = 1;
nodes = (
"347 303 LINE",
"525 303 LINE",
"525 385 LINE",
"347 385 LINE"
);
},
{
closed = 1;
nodes = (
"347 618 LINE",
"579 618 LINE",
"579 700 LINE",
"347 700 LINE"
);
},
{
closed = 1;
nodes = (
"-1 0 LINE",
"94 0 LINE",
"308 700 LINE",
"213 700 LINE"
);
},
{
closed = 1;
nodes = (
"208 618 LINE",
"325 618 LINE",
"343 700 LINE",
"225 700 LINE"
);
},
{
closed = 1;
nodes = (
"123 224 LINE",
"335 224 LINE",
"352 306 LINE",
"140 306 LINE"
);
}
);
width = 600;
},
{
layerId = "5521DC30-183F-421A-91F3-644B5E24AFE6";
paths = (
{
closed = 1;
nodes = (
"438 0 LINE",
"438 700 LINE",
"285 700 LINE",
"285 0 LINE"
);
},
{
closed = 1;
nodes = (
"347 0 LINE",
"597 0 LINE",
"597 122 LINE",
"347 122 LINE"
);
},
{
closed = 1;
nodes = (
"347 283 LINE",
"565 283 LINE",
"565 405 LINE",
"347 405 LINE"
);
},
{
closed = 1;
nodes = (
"347 578 LINE",
"597 578 LINE",
"597 700 LINE",
"347 700 LINE"
);
},
{
closed = 1;
nodes = (
"-21 0 LINE",
"144 0 LINE",
"345 700 LINE",
"193 700 LINE"
);
},
{
closed = 1;
nodes = (
"208 578 LINE",
"325 578 LINE",
"343 700 LINE",
"225 700 LINE"
);
},
{
closed = 1;
nodes = (
"123 164 LINE",
"335 164 LINE",
"352 286 LINE",
"140 286 LINE"
);
}
);
width = 600;
},
{
layerId = "BE68D89F-AB3F-4BDF-B332-ED50D7C47704";
paths = (
{
closed = 1;
nodes = (
"348 0 LINE",
"348 700 LINE",
"315 700 LINE",
"315 0 LINE"
);
},
{
closed = 1;
nodes = (
"347 0 LINE",
"579 0 LINE",
"579 32 LINE",
"347 32 LINE"
);
},
{
closed = 1;
nodes = (
"347 328 LINE",
"525 328 LINE",
"525 360 LINE",
"347 360 LINE"
);
},
{
closed = 1;
nodes = (
"347 668 LINE",
"579 668 LINE",
"579 700 LINE",
"347 700 LINE"
);
},
{
closed = 1;
nodes = (
"29 0 LINE",
"64 0 LINE",
"278 700 LINE",
"243 700 LINE"
);
},
{
closed = 1;
nodes = (
"238 668 LINE",
"325 668 LINE",
"343 700 LINE",
"255 700 LINE"
);
},
{
closed = 1;
nodes = (
"103 244 LINE",
"335 244 LINE",
"339 276 LINE",
"120 276 LINE"
);
}
);
width = 600;
}
);
unicode = 00C6;
},
{
glyphname = B;
lastChange = "2017-02-09 16:01:08 +0000";
layers = (
{
layerId = "558B6FE6-F456-45D2-AA56-B37F51D1E4E1";
paths = (
{
closed = 1;
nodes = (
"421 370 OFFCURVE",
"509 386 OFFCURVE",
"509 529 CURVE SMOOTH",
"509 690 OFFCURVE",
"395 700 OFFCURVE",
"311 700 CURVE SMOOTH",
"90 700 LINE",
"90 0 LINE",
"362 0 LINE SMOOTH",
"481 0 OFFCURVE",
"544 66 OFFCURVE",
"544 200 CURVE SMOOTH",
"544 356 OFFCURVE",
"421 370 OFFCURVE",
"421 370 CURVE SMOOTH"
);
},
{
closed = 1;
nodes = (
"324 618 LINE SMOOTH",
"386 618 OFFCURVE",
"410 603 OFFCURVE",
"410 519 CURVE SMOOTH",
"410 440 OFFCURVE",
"388 402 OFFCURVE",
"328 402 CURVE SMOOTH",
"183 402 LINE",
"183 618 LINE"
);
},
{
closed = 1;
nodes = (
"183 82 LINE",
"183 320 LINE",
"348 320 LINE SMOOTH",
"405 320 OFFCURVE",
"450 293 OFFCURVE",
"450 201 CURVE SMOOTH",
"450 125 OFFCURVE",
"438 82 OFFCURVE",
"348 82 CURVE SMOOTH"
);
}
);
width = 600;
},
{
layerId = "5521DC30-183F-421A-91F3-644B5E24AFE6";
paths = (
{
closed = 1;
nodes = (
"426 371 OFFCURVE",
"524 386 OFFCURVE",
"524 529 CURVE SMOOTH",
"524 690 OFFCURVE",
"400 700 OFFCURVE",
"316 700 CURVE SMOOTH",
"75 700 LINE",
"75 0 LINE",
"367 0 LINE SMOOTH",
"486 0 OFFCURVE",
"559 66 OFFCURVE",
"559 200 CURVE SMOOTH",
"559 356 OFFCURVE",
"426 371 OFFCURVE",
"426 371 CURVE SMOOTH"
);
},
{
closed = 1;
nodes = (
"284 578 LINE SMOOTH",
"346 578 OFFCURVE",
"365 560 OFFCURVE",
"365 506 CURVE SMOOTH",
"365 447 OFFCURVE",
"348 422 OFFCURVE",
"288 422 CURVE SMOOTH",
"228 422 LINE",
"228 578 LINE"
);
},
{
closed = 1;
nodes = (
"228 122 LINE",
"228 300 LINE",
"316 300 LINE SMOOTH",
"373 300 OFFCURVE",
"405 283 OFFCURVE",
"405 211 CURVE SMOOTH",
"405 145 OFFCURVE",
"386 122 OFFCURVE",
"316 122 CURVE SMOOTH"
);
}
);
width = 600;
},
{
layerId = "BE68D89F-AB3F-4BDF-B332-ED50D7C47704";
paths = (
{
closed = 1;
nodes = (
"414 369 OFFCURVE",
"479 396 OFFCURVE",
"479 529 CURVE SMOOTH",
"479 690 OFFCURVE",
"388 700 OFFCURVE",
"304 700 CURVE SMOOTH",
"120 700 LINE",
"120 0 LINE",
"345 0 LINE SMOOTH",
"464 0 OFFCURVE",
"514 66 OFFCURVE",
"514 200 CURVE SMOOTH",
"514 346 OFFCURVE",
"414 369 OFFCURVE",
"414 369 CURVE SMOOTH"
);
},
{
closed = 1;
nodes = (
"330 668 LINE SMOOTH",
"388 668 OFFCURVE",
"443 643 OFFCURVE",
"443 529 CURVE SMOOTH",
"443 435 OFFCURVE",
"408 377 OFFCURVE",
"348 377 CURVE SMOOTH",
"153 377 LINE",
"153 668 LINE"
);
},
{
closed = 1;
nodes = (
"153 32 LINE",
"153 345 LINE",
"368 345 LINE SMOOTH",
"425 345 OFFCURVE",
"480 297 OFFCURVE",
"480 200 CURVE SMOOTH",
"480 78 OFFCURVE",
"433 32 OFFCURVE",
"348 32 CURVE SMOOTH"
);
}
);
width = 600;
}
);
leftKerningGroup = H;
rightKerningGroup = B;
unicode = 0042;
},
{
glyphname = C;
lastChange = "2017-02-08 18:01:12 +0000";
layers = (
{
layerId = "558B6FE6-F456-45D2-AA56-B37F51D1E4E1";
paths = (
{
closed = 1;
nodes = (
"453 158 LINE",
"423 94 OFFCURVE",
"374 72 OFFCURVE",
"319 72 CURVE SMOOTH",
"226 72 OFFCURVE",
"162 129 OFFCURVE",
"162 348 CURVE SMOOTH",
"162 566 OFFCURVE",
"226 623 OFFCURVE",
"319 623 CURVE SMOOTH",
"373 623 OFFCURVE",
"421 602 OFFCURVE",
"451 540 CURVE",
"537 585 LINE",
"489 675 OFFCURVE",
"410 706 OFFCURVE",
"319 706 CURVE SMOOTH",
"172 706 OFFCURVE",
"64 630 OFFCURVE",
"64 348 CURVE SMOOTH",
"64 65 OFFCURVE",
"172 -11 OFFCURVE",
"319 -11 CURVE SMOOTH",
"411 -11 OFFCURVE",
"491 21 OFFCURVE",
"539 113 CURVE"
);
}
);
width = 600;
},
{
layerId = "5521DC30-183F-421A-91F3-644B5E24AFE6";
paths = (
{
closed = 1;
nodes = (
"433 208 LINE",
"419 179 OFFCURVE",
"394 112 OFFCURVE",
"319 112 CURVE SMOOTH",
"246 112 OFFCURVE",
"202 149 OFFCURVE",
"202 348 CURVE SMOOTH",
"202 546 OFFCURVE",
"246 583 OFFCURVE",
"319 583 CURVE SMOOTH",
"373 583 OFFCURVE",
"412 541 OFFCURVE",
"433 490 CURVE",
"567 565 LINE",
"519 655 OFFCURVE",
"451 706 OFFCURVE",
"319 706 CURVE SMOOTH",
"152 706 OFFCURVE",
"44 630 OFFCURVE",
"44 348 CURVE SMOOTH",
"44 65 OFFCURVE",
"152 -11 OFFCURVE",
"319 -11 CURVE SMOOTH",
"431 -11 OFFCURVE",
"516 29 OFFCURVE",
"573 137 CURVE"
);
}
);
width = 600;
},
{
layerId = "BE68D89F-AB3F-4BDF-B332-ED50D7C47704";
paths = (
{
closed = 1;
nodes = (
"488 106 LINE",
"460 53 OFFCURVE",
"403 22 OFFCURVE",
"319 22 CURVE SMOOTH",
"193 22 OFFCURVE",
"131 125 OFFCURVE",
"131 348 CURVE SMOOTH",
"131 571 OFFCURVE",
"197 673 OFFCURVE",
"323 673 CURVE SMOOTH",
"408 673 OFFCURVE",
"456 640 OFFCURVE",
"488 579 CURVE",
"520 595 LINE",
"483 664 OFFCURVE",
"421 706 OFFCURVE",
"323 706 CURVE",
"170 706 OFFCURVE",
"96 593 OFFCURVE",
"96 348 CURVE SMOOTH",
"96 103 OFFCURVE",
"166 -11 OFFCURVE",
"319 -11 CURVE SMOOTH",
"421 -11 OFFCURVE",
"489 28 OFFCURVE",
"520 89 CURVE"
);
}
);
width = 600;
}
);
leftKerningGroup = O;
rightKerningGroup = C;
unicode = 0043;
},
{
glyphname = D;
lastChange = "2017-04-10 19:50:38 +0000";
layers = (
{
layerId = "558B6FE6-F456-45D2-AA56-B37F51D1E4E1";
paths = (
{
closed = 1;
nodes = (
"557 350 LINE",
"557 700 OFFCURVE",
"395 700 OFFCURVE",
"290 700 CURVE SMOOTH",
"103 700 LINE",
"103 350 LINE",
"196 350 LINE",
"196 402 LINE",
"196 618 LINE",
"303 618 LINE",
"415 618 OFFCURVE",
"460 566 OFFCURVE",
"460 350 CURVE"
);
},
{
closed = 1;
nodes = (
"460 134 OFFCURVE",
"415 82 OFFCURVE",
"303 82 CURVE",
"196 82 LINE",
"196 298 LINE",
"196 350 LINE",
"103 350 LINE",
"103 0 LINE",
"290 0 LINE SMOOTH",
"395 0 OFFCURVE",
"557 0 OFFCURVE",
"557 350 CURVE",
"460 350 LINE"
);
}
);
width = 600;
},
{
layerId = "5521DC30-183F-421A-91F3-644B5E24AFE6";
paths = (
{
closed = 1;
nodes = (
"582 350 LINE",
"582 700 OFFCURVE",
"410 700 OFFCURVE",
"305 700 CURVE SMOOTH",
"88 700 LINE",
"88 350 LINE",
"241 350 LINE",
"241 402 LINE",
"241 578 LINE",
"288 578 LINE",
"400 578 OFFCURVE",
"425 526 OFFCURVE",
"425 350 CURVE"
);
},
{
closed = 1;
nodes = (
"425 174 OFFCURVE",
"400 122 OFFCURVE",
"288 122 CURVE",
"241 122 LINE",
"241 298 LINE",
"241 350 LINE",
"88 350 LINE",
"88 0 LINE",
"305 0 LINE SMOOTH",
"410 0 OFFCURVE",
"582 0 OFFCURVE",
"582 350 CURVE",
"425 350 LINE"
);
}
);
width = 600;
},
{
layerId = "BE68D89F-AB3F-4BDF-B332-ED50D7C47704";
paths = (
{
closed = 1;
nodes = (
"527 350 LINE",
"527 700 OFFCURVE",
"375 700 OFFCURVE",
"280 700 CURVE SMOOTH",
"133 700 LINE",
"133 350 LINE",
"166 350 LINE",
"166 402 LINE",
"166 668 LINE",
"303 668 LINE",
"425 668 OFFCURVE",
"492 596 OFFCURVE",
"492 350 CURVE"
);
},
{
closed = 1;
nodes = (
"492 104 OFFCURVE",
"425 32 OFFCURVE",
"303 32 CURVE",
"166 32 LINE",
"166 298 LINE",
"166 350 LINE",
"133 350 LINE",
"133 0 LINE",
"280 0 LINE SMOOTH",
"375 0 OFFCURVE",
"527 0 OFFCURVE",
"527 350 CURVE",
"492 350 LINE"
);
}
);
width = 600;
}
);
leftKerningGroup = H;
rightKerningGroup = O;
unicode = 0044;
},
{
glyphname = E;
lastChange = "2017-02-08 17:55:18 +0000";
layers = (
{
layerId = "558B6FE6-F456-45D2-AA56-B37F51D1E4E1";
paths = (
{
closed = 1;
nodes = (
"197 0 LINE",
"197 700 LINE",
"104 700 LINE",
"104 0 LINE"
);
},
{
closed = 1;
nodes = (
"166 0 LINE",
"518 0 LINE",
"518 82 LINE",
"166 82 LINE"
);
},
{
closed = 1;
nodes = (
"166 303 LINE",
"464 303 LINE",
"464 385 LINE",
"166 385 LINE"
);
},
{
closed = 1;
nodes = (
"166 618 LINE",
"518 618 LINE",
"518 700 LINE",
"166 700 LINE"
);
}
);
width = 600;
},
{
layerId = "5521DC30-183F-421A-91F3-644B5E24AFE6";
paths = (
{
closed = 1;
nodes = (
"245 0 LINE",
"245 700 LINE",
"92 700 LINE",
"92 0 LINE"
);
},
{
closed = 1;
nodes = (
"174 0 LINE",
"536 0 LINE",
"536 122 LINE",
"174 122 LINE"
);
},
{
closed = 1;
nodes = (
"174 283 LINE",
"482 283 LINE",
"482 405 LINE",
"174 405 LINE"
);
},
{
closed = 1;
nodes = (
"174 578 LINE",
"536 578 LINE",
"536 700 LINE",
"174 700 LINE"
);
}
);
width = 600;
},
{
layerId = "BE68D89F-AB3F-4BDF-B332-ED50D7C47704";
paths = (
{
closed = 1;
nodes = (
"157 0 LINE",
"157 700 LINE",
"124 700 LINE",
"124 0 LINE"
);
},
{
closed = 1;
nodes = (
"156 0 LINE",
"498 0 LINE",
"498 32 LINE",
"156 32 LINE"
);
},
{
closed = 1;
nodes = (
"156 328 LINE",
"444 328 LINE",
"444 360 LINE",
"156 360 LINE"
);
},
{
closed = 1;
nodes = (
"156 668 LINE",
"498 668 LINE",
"498 700 LINE",
"156 700 LINE"
);
}
);
width = 600;
}
);
leftKerningGroup = H;
rightKerningGroup = E;
unicode = 0045;
},
{
glyphname = F;
lastChange = "2017-02-08 17:55:36 +0000";
layers = (
{
layerId = "558B6FE6-F456-45D2-AA56-B37F51D1E4E1";
paths = (
{
closed = 1;
nodes = (
"224 0 LINE",
"224 700 LINE",
"131 700 LINE",
"131 0 LINE"
);
},
{
closed = 1;
nodes = (
"193 303 LINE",
"505 303 LINE",
"505 385 LINE",
"193 385 LINE"
);
},
{
closed = 1;
nodes = (
"193 618 LINE",
"545 618 LINE",
"545 700 LINE",
"193 700 LINE"
);
}
);
width = 600;
},
{
layerId = "5521DC30-183F-421A-91F3-644B5E24AFE6";
paths = (
{
closed = 1;
nodes = (
"264 0 LINE",
"264 700 LINE",
"111 700 LINE",
"111 0 LINE"
);
},
{
closed = 1;
nodes = (
"193 283 LINE",
"505 283 LINE",
"505 405 LINE",
"193 405 LINE"
);
},
{
closed = 1;
nodes = (
"193 578 LINE",
"545 578 LINE",
"545 700 LINE",
"193 700 LINE"
);
}
);
width = 600;
},
{
layerId = "BE68D89F-AB3F-4BDF-B332-ED50D7C47704";
paths = (
{
closed = 1;
nodes = (
"184 0 LINE",
"184 700 LINE",
"151 700 LINE",
"151 0 LINE"
);
},
{
closed = 1;
nodes = (
"183 328 LINE",
"485 328 LINE",
"485 360 LINE",
"183 360 LINE"
);
},
{
closed = 1;
nodes = (
"183 668 LINE",
"525 668 LINE",
"525 700 LINE",
"183 700 LINE"
);
}
);
width = 600;
}
);
leftKerningGroup = H;
rightKerningGroup = F;
unicode = 0046;
},
{
glyphname = G;
lastChange = "2017-02-09 22:17:25 +0000";
layers = (
{
layerId = "558B6FE6-F456-45D2-AA56-B37F51D1E4E1";
paths = (
{
closed = 1;
nodes = (
"444 141 LINE",
"427 103 OFFCURVE",
"383 72 OFFCURVE",
"308 72 CURVE SMOOTH",
"215 72 OFFCURVE",
"148 125 OFFCURVE",
"148 348 CURVE SMOOTH",
"148 571 OFFCURVE",
"222 623 OFFCURVE",
"315 623 CURVE SMOOTH",
"369 623 OFFCURVE",
"407 602 OFFCURVE",
"437 540 CURVE",
"523 585 LINE",
"475 675 OFFCURVE",
"406 706 OFFCURVE",
"315 706 CURVE SMOOTH",
"168 706 OFFCURVE",
"50 635 OFFCURVE",
"50 348 CURVE SMOOTH",
"50 60 OFFCURVE",
"161 -11 OFFCURVE",
"308 -11 CURVE SMOOTH",
"429 -11 OFFCURVE",
"502 46 OFFCURVE",
"536 104 CURVE"
);
},
{
closed = 1;
nodes = (
"314 303 LINE",
"536 303 LINE",
"536 385 LINE",
"314 385 LINE"
);
},
{
closed = 1;
nodes = (
"536 104 LINE",
"536 385 LINE",
"443 385 LINE",
"443 104 LINE"
);
}
);
width = 600;
},
{
layerId = "5521DC30-183F-421A-91F3-644B5E24AFE6";
paths = (
{
closed = 1;
nodes = (
"404 151 LINE",
"392 131 OFFCURVE",
"359 112 OFFCURVE",
"308 112 CURVE SMOOTH",
"242 112 OFFCURVE",
"188 145 OFFCURVE",
"188 348 CURVE SMOOTH",
"188 551 OFFCURVE",
"244 583 OFFCURVE",
"307 583 CURVE SMOOTH",
"379 583 OFFCURVE",
"396 541 OFFCURVE",
"423 491 CURVE",
"558 564 LINE",
"510 654 OFFCURVE",
"448 706 OFFCURVE",
"308 706 CURVE SMOOTH",
"151 706 OFFCURVE",
"30 635 OFFCURVE",
"30 348 CURVE SMOOTH",
"30 60 OFFCURVE",
"151 -11 OFFCURVE",
"308 -11 CURVE SMOOTH",
"429 -11 OFFCURVE",
"517 48 OFFCURVE",
"556 114 CURVE"
);
},
{
closed = 1;
nodes = (
"294 273 LINE",
"556 273 LINE",
"556 395 LINE",
"294 395 LINE"
);
},
{
closed = 1;
nodes = (
"556 114 LINE",
"556 395 LINE",
"403 395 LINE",
"403 104 LINE"
);
}
);
width = 600;
},
{
layerId = "BE68D89F-AB3F-4BDF-B332-ED50D7C47704";
paths = (
{
closed = 1;
nodes = (
"497 105 LINE",
"463 60 OFFCURVE",
"411 22 OFFCURVE",
"307 22 CURVE SMOOTH",
"181 22 OFFCURVE",
"119 125 OFFCURVE",
"119 348 CURVE SMOOTH",
"119 571 OFFCURVE",
"195 673 OFFCURVE",
"321 673 CURVE SMOOTH",
"406 673 OFFCURVE",
"444 640 OFFCURVE",
"476 579 CURVE",
"508 595 LINE",
"471 664 OFFCURVE",
"419 706 OFFCURVE",
"321 706 CURVE",
"168 706 OFFCURVE",
"84 593 OFFCURVE",
"84 348 CURVE SMOOTH",
"84 103 OFFCURVE",
"154 -11 OFFCURVE",
"307 -11 CURVE SMOOTH",
"429 -11 OFFCURVE",
"495 44 OFFCURVE",
"526 85 CURVE"
);
},
{
closed = 1;
nodes = (
"324 343 LINE",
"526 343 LINE",
"526 375 LINE",
"324 375 LINE"
);
},
{
closed = 1;
nodes = (
"526 85 LINE",
"526 375 LINE",
"493 375 LINE",
"493 85 LINE"
);
}
);
width = 600;
}
);
leftKerningGroup = O;
rightKerningGroup = G;
unicode = 0047;
},
{
glyphname = G.ss01;
lastChange = "2017-02-09 22:23:18 +0000";
layers = (
{
layerId = "558B6FE6-F456-45D2-AA56-B37F51D1E4E1";
paths = (
{
closed = 1;
nodes = (
"464 -11 OFFCURVE",
"549 90 OFFCURVE",
"549 303 CURVE",
"462 333 LINE",
"462 125 OFFCURVE",
"410 72 OFFCURVE",
"317 72 CURVE SMOOTH",
"224 72 OFFCURVE",
"155 125 OFFCURVE",
"155 348 CURVE SMOOTH",
"155 571 OFFCURVE",
"219 623 OFFCURVE",
"312 623 CURVE SMOOTH",
"366 623 OFFCURVE",
"414 602 OFFCURVE",
"444 540 CURVE",
"530 585 LINE",
"482 675 OFFCURVE",
"403 706 OFFCURVE",
"312 706 CURVE SMOOTH",
"165 706 OFFCURVE",
"57 635 OFFCURVE",
"57 348 CURVE SMOOTH",
"57 60 OFFCURVE",
"170 -11 OFFCURVE",
"317 -11 CURVE SMOOTH"
);
},
{
closed = 1;
nodes = (
"549 303 LINE",
"549 385 LINE",
"321 385 LINE",
"321 303 LINE"
);
}
);
width = 600;
},
{
layerId = "5521DC30-183F-421A-91F3-644B5E24AFE6";
paths = (
{
closed = 1;
nodes = (
"474 -11 OFFCURVE",
"569 90 OFFCURVE",
"569 303 CURVE",
"427 333 LINE",
"427 155 OFFCURVE",
"390 112 OFFCURVE",
"317 112 CURVE SMOOTH",
"244 112 OFFCURVE",
"195 145 OFFCURVE",
"195 348 CURVE SMOOTH",
"195 551 OFFCURVE",
"239 583 OFFCURVE",
"312 583 CURVE SMOOTH",
"366 583 OFFCURVE",
"394 548 OFFCURVE",
"422 488 CURVE",
"560 565 LINE",
"512 665 OFFCURVE",
"423 706 OFFCURVE",
"312 706 CURVE SMOOTH",
"155 706 OFFCURVE",
"37 635 OFFCURVE",
"37 348 CURVE SMOOTH",
"37 60 OFFCURVE",
"160 -11 OFFCURVE",
"317 -11 CURVE SMOOTH"
);
},
{
closed = 1;
nodes = (
"569 283 LINE",
"569 405 LINE",
"311 405 LINE",
"311 283 LINE"
);
}
);
width = 600;
},
{
layerId = "BE68D89F-AB3F-4BDF-B332-ED50D7C47704";
paths = (
{
closed = 1;
nodes = (
"471 -11 OFFCURVE",
"524 125 OFFCURVE",
"524 328 CURVE",
"492 328 LINE",
"492 90 OFFCURVE",
"417 22 OFFCURVE",
"317 22 CURVE SMOOTH",
"195 22 OFFCURVE",
"120 125 OFFCURVE",
"120 348 CURVE SMOOTH",
"120 571 OFFCURVE",
"195 673 OFFCURVE",
"322 673 CURVE SMOOTH",
"403 673 OFFCURVE",
"441 645 OFFCURVE",
"469 593 CURVE",
"502 612 LINE",
"468 666 OFFCURVE",
"419 706 OFFCURVE",
"322 706 CURVE SMOOTH",
"205 706 OFFCURVE",
"85 635 OFFCURVE",
"85 348 CURVE SMOOTH",
"85 60 OFFCURVE",
"200 -11 OFFCURVE",
"317 -11 CURVE SMOOTH"
);
},
{
closed = 1;
nodes = (
"524 328 LINE",
"524 360 LINE",
"326 360 LINE",
"326 328 LINE"
);
}
);
width = 600;
}
);
},
{
glyphname = H;
lastChange = "2017-02-08 18:00:34 +0000";
layers = (
{
layerId = "558B6FE6-F456-45D2-AA56-B37F51D1E4E1";
paths = (
{
closed = 1;
nodes = (
"173 0 LINE",
"173 700 LINE",
"80 700 LINE",
"80 0 LINE"
);
},
{
closed = 1;
nodes = (
"142 323 LINE",
"454 323 LINE",
"454 405 LINE",
"142 405 LINE"
);
},
{
closed = 1;
nodes = (
"519 0 LINE",
"519 700 LINE",
"426 700 LINE",
"426 0 LINE"
);
}
);
width = 600;
},
{
layerId = "5521DC30-183F-421A-91F3-644B5E24AFE6";
paths = (
{
closed = 1;
nodes = (
"213 0 LINE",
"213 700 LINE",
"60 700 LINE",
"60 0 LINE"
);
},
{
closed = 1;
nodes = (
"142 303 LINE",
"454 303 LINE",
"454 425 LINE",
"142 425 LINE"
);
},
{
closed = 1;
nodes = (
"539 0 LINE",
"539 700 LINE",
"386 700 LINE",
"386 0 LINE"
);
}
);
width = 600;
},
{
layerId = "BE68D89F-AB3F-4BDF-B332-ED50D7C47704";
paths = (
{
closed = 1;
nodes = (
"153 0 LINE",
"153 700 LINE",
"120 700 LINE",
"120 0 LINE"
);
},
{
closed = 1;
nodes = (
"152 348 LINE",
"454 348 LINE",
"454 380 LINE",
"152 380 LINE"
);
},
{
closed = 1;
nodes = (
"479 0 LINE",
"479 700 LINE",
"446 700 LINE",
"446 0 LINE"
);
}
);
width = 600;
}
);
leftKerningGroup = H;
rightKerningGroup = H;
unicode = 0048;
},
{
glyphname = I;
lastChange = "2017-02-12 19:45:50 +0000";
layers = (
{
layerId = "558B6FE6-F456-45D2-AA56-B37F51D1E4E1";
paths = (
{
closed = 1;
nodes = (
"345 0 LINE",
"345 700 LINE",
"252 700 LINE",
"252 0 LINE"
);
},
{
closed = 1;
nodes = (
"103 0 LINE",
"495 0 LINE",
"495 82 LINE",
"103 82 LINE"
);
},
{
closed = 1;
nodes = (
"103 618 LINE",
"495 618 LINE",
"495 700 LINE",
"103 700 LINE"
);
}
);
width = 600;
},
{
layerId = "5521DC30-183F-421A-91F3-644B5E24AFE6";
paths = (
{
closed = 1;
nodes = (
"375 0 LINE",
"375 700 LINE",
"222 700 LINE",
"222 0 LINE"
);
},
{
closed = 1;
nodes = (
"93 0 LINE",
"505 0 LINE",
"505 122 LINE",
"93 122 LINE"
);
},
{
closed = 1;
nodes = (
"93 578 LINE",
"505 578 LINE",
"505 700 LINE",
"93 700 LINE"
);
}
);
width = 600;
},
{
layerId = "BE68D89F-AB3F-4BDF-B332-ED50D7C47704";
paths = (
{
closed = 1;
nodes = (
"315 0 LINE",
"315 700 LINE",
"282 700 LINE",
"282 0 LINE"
);
},
{
closed = 1;
nodes = (
"113 0 LINE",
"485 0 LINE",
"485 32 LINE",
"113 32 LINE"
);
},
{
closed = 1;
nodes = (
"113 668 LINE",
"485 668 LINE",
"485 700 LINE",
"113 700 LINE"
);
}
);
width = 600;
}
);
leftKerningGroup = H;
rightKerningGroup = H;
unicode = 0049;
},
{
glyphname = J;
lastChange = "2017-02-09 20:27:41 +0000";
layers = (
{
layerId = "558B6FE6-F456-45D2-AA56-B37F51D1E4E1";
paths = (
{
closed = 1;
nodes = (
"373 700 LINE",
"373 191 LINE",
"466 171 LINE",
"466 700 LINE"
);
},
{
closed = 1;
nodes = (
"93 26 LINE",
"126 3 OFFCURVE",
"181 -9 OFFCURVE",
"245 -9 CURVE",
"361 -9 OFFCURVE",
"466 53 OFFCURVE",
"466 171 CURVE",
"373 191 LINE",
"373 105 OFFCURVE",
"326 74 OFFCURVE",
"238 74 CURVE",
"201 74 OFFCURVE",
"162 85 OFFCURVE",
"144 95 CURVE"
);
},
{
closed = 1;
nodes = (
"133 618 LINE",
"445 618 LINE",
"445 700 LINE",
"133 700 LINE"
);
}
);
width = 600;
},
{
layerId = "5521DC30-183F-421A-91F3-644B5E24AFE6";
paths = (
{
closed = 1;
nodes = (
"333 700 LINE",
"333 196 LINE",
"486 171 LINE",
"486 700 LINE"
);
},
{
closed = 1;
nodes = (
"56 43 LINE",
"89 10 OFFCURVE",
"166 -9 OFFCURVE",
"245 -9 CURVE",
"371 -9 OFFCURVE",
"486 53 OFFCURVE",
"486 171 CURVE",
"333 196 LINE",
"333 136 OFFCURVE",
"286 114 OFFCURVE",
"238 114 CURVE",
"201 114 OFFCURVE",
"158 132 OFFCURVE",
"140 146 CURVE"
);
},
{
closed = 1;
nodes = (
"113 578 LINE",
"445 578 LINE",
"445 700 LINE",
"113 700 LINE"
);
}
);
width = 600;
},
{
layerId = "BE68D89F-AB3F-4BDF-B332-ED50D7C47704";
paths = (
{
closed = 1;
nodes = (
"403 700 LINE",
"403 191 LINE",
"436 171 LINE",
"436 700 LINE"
);
},
{
closed = 1;
nodes = (
"105 19 LINE",
"143 3 OFFCURVE",
"181 -9 OFFCURVE",
"245 -9 CURVE",
"361 -9 OFFCURVE",
"436 53 OFFCURVE",
"436 171 CURVE",
"403 191 LINE",
"403 75 OFFCURVE",
"346 24 OFFCURVE",
"238 24 CURVE",
"201 24 OFFCURVE",
"159 31 OFFCURVE",
"126 49 CURVE"
);
},
{
closed = 1;
nodes = (
"143 668 LINE",
"415 668 LINE",
"415 700 LINE",
"143 700 LINE"
);
}
);
width = 600;
}
);
leftKerningGroup = J;
rightKerningGroup = J;
unicode = 004A;
},
{
glyphname = K;
lastChange = "2017-02-10 01:37:06 +0000";
layers = (
{
layerId = "558B6FE6-F456-45D2-AA56-B37F51D1E4E1";
paths = (
{
closed = 1;
nodes = (
"196 0 LINE",
"196 700 LINE",
"103 700 LINE",
"103 0 LINE"
);
},
{
closed = 1;
nodes = (
"165 318 LINE",
"307 318 LINE",
"307 400 LINE",
"165 400 LINE"
);
},
{
closed = 1;
nodes = (
"223 379 LINE",
"307 346 LINE",
"546 700 LINE",
"439 700 LINE"
);
},
{
closed = 1;
nodes = (
"563 0 LINE",
"302 379 LINE",
"196 379 LINE",
"456 0 LINE"
);
}
);
width = 600;
},
{
layerId = "5521DC30-183F-421A-91F3-644B5E24AFE6";
paths = (
{
closed = 1;
nodes = (
"236 0 LINE",
"236 700 LINE",
"83 700 LINE",
"83 0 LINE"
);
},
{
closed = 1;
nodes = (
"165 298 LINE",
"307 298 LINE",
"307 420 LINE",
"165 420 LINE"
);
},
{
closed = 1;
nodes = (
"223 379 LINE",
"362 346 LINE",
"606 700 LINE",
"439 700 LINE"
);
},
{
closed = 1;
nodes = (
"623 0 LINE",
"357 379 LINE",
"196 379 LINE",
"456 0 LINE"
);
}
);
width = 600;
},
{
layerId = "BE68D89F-AB3F-4BDF-B332-ED50D7C47704";
paths = (
{
closed = 1;
nodes = (
"166 0 LINE",
"166 700 LINE",
"133 700 LINE",
"133 0 LINE"
);
},
{
closed = 1;
nodes = (
"165 343 LINE",
"267 343 LINE",
"267 375 LINE",
"165 375 LINE"
);
},
{
closed = 1;
nodes = (
"242 370 LINE",
"267 346 LINE",
"506 700 LINE",
"464 700 LINE"
);
},
{
closed = 1;
nodes = (
"523 0 LINE",
"269 367 LINE",
"227 367 LINE",
"481 0 LINE"
);
}
);
width = 600;
}
);
leftKerningGroup = H;
rightKerningGroup = K;
unicode = 004B;
},
{
glyphname = L;
lastChange = "2017-02-17 17:13:30 +0000";
layers = (
{
layerId = "558B6FE6-F456-45D2-AA56-B37F51D1E4E1";
paths = (
{
closed = 1;
nodes = (
"236 0 LINE",
"236 700 LINE",
"143 700 LINE",
"143 0 LINE"
);
},
{
closed = 1;
nodes = (
"205 0 LINE",
"557 0 LINE",
"557 82 LINE",
"205 82 LINE"
);
}
);
width = 600;
},
{
layerId = "5521DC30-183F-421A-91F3-644B5E24AFE6";
paths = (
{
closed = 1;
nodes = (
"273 0 LINE",
"273 700 LINE",
"120 700 LINE",
"120 0 LINE"
);
},
{
closed = 1;
nodes = (
"202 0 LINE",
"564 0 LINE",
"564 122 LINE",
"202 122 LINE"
);
}
);
width = 600;
},
{
layerId = "BE68D89F-AB3F-4BDF-B332-ED50D7C47704";
paths = (
{
closed = 1;
nodes = (
"206 0 LINE",
"206 700 LINE",
"173 700 LINE",
"173 0 LINE"
);
},
{
closed = 1;
nodes = (
"205 0 LINE",
"547 0 LINE",
"547 32 LINE",
"205 32 LINE"
);
}
);
width = 600;
}
);
leftKerningGroup = H;
rightKerningGroup = L;
unicode = 004C;
},
{
glyphname = Lslash;
lastChange = "2017-02-12 19:46:36 +0000";
layers = (
{
components = (
{
name = L;
}
);
layerId = "558B6FE6-F456-45D2-AA56-B37F51D1E4E1";
paths = (
{
closed = 1;
nodes = (
"57 173 LINE",
"329 445 LINE",
"329 536 LINE",
"57 263 LINE"
);
}
);
width = 600;
},
{
components = (
{
name = L;
}
);
layerId = "5521DC30-183F-421A-91F3-644B5E24AFE6";
paths = (
{
closed = 1;
nodes = (
"37 133 LINE",
"349 445 LINE",
"349 576 LINE",
"37 263 LINE"
);
}
);
width = 600;
},
{
components = (
{
name = L;
}
);
layerId = "BE68D89F-AB3F-4BDF-B332-ED50D7C47704";
paths = (
{
closed = 1;
nodes = (
"67 208 LINE",
"319 460 LINE",
"319 501 LINE",
"67 248 LINE"
);
}
);
width = 600;
}
);
unicode = 0141;
},
{
glyphname = M;
lastChange = "2017-04-10 19:09:55 +0000";
layers = (
{
layerId = "558B6FE6-F456-45D2-AA56-B37F51D1E4E1";
paths = (
{
closed = 1;
nodes = (
"133 0 LINE",
"161 700 LINE",
"84 700 LINE",
"40 0 LINE"
);
},
{
closed = 1;
nodes = (
"560 0 LINE",
"516 700 LINE",
"439 700 LINE",
"467 0 LINE"
);
},
{
closed = 1;
nodes = (
"306 251 LINE",
"284 58 LINE",
"346 58 LINE",
"440 480 LINE",
"470 700 LINE",
"399 700 LINE"
);
},
{
closed = 1;
nodes = (
"130 700 LINE",
"160 481 LINE",
"254 58 LINE",
"316 58 LINE",
"294 251 LINE",
"201 700 LINE"
);
}
);
width = 600;
},
{
layerId = "5521DC30-183F-421A-91F3-644B5E24AFE6";
paths = (
{
closed = 1;
nodes = (
"173 0 LINE",
"171 700 LINE",
"54 700 LINE",
"20 0 LINE"
);
},
{
closed = 1;
nodes = (
"580 0 LINE",
"546 700 LINE",
"429 700 LINE",
"427 0 LINE"
);
},
{
closed = 1;
nodes = (
"306 381 LINE",
"284 88 LINE",
"358 88 LINE",
"420 430 LINE",
"447 700 LINE",
"379 700 LINE"
);
},
{
closed = 1;
nodes = (
"153 700 LINE",
"180 431 LINE",
"242 88 LINE",
"316 88 LINE",
"294 381 LINE",
"221 700 LINE"
);
}
);
width = 600;
},
{
layerId = "BE68D89F-AB3F-4BDF-B332-ED50D7C47704";
paths = (
{
closed = 1;
nodes = (
"96 0 LINE",
"132 700 LINE",
"101 700 LINE",
"62 0 LINE"
);
},
{
closed = 1;
nodes = (
"538 0 LINE",
"499 700 LINE",
"468 700 LINE",
"504 0 LINE"
);
},
{
closed = 1;
nodes = (
"352 291 LINE",
"288 40 LINE",
"320 40 LINE",
"475 632 LINE",
"491 700 LINE",
"459 700 LINE"
);
},
{
closed = 1;
nodes = (
"109 700 LINE",
"125 632 LINE",
"279 40 LINE",
"311 40 LINE",
"247 291 LINE",
"141 700 LINE"
);
}
);
width = 600;
}
);
leftKerningGroup = M;
rightKerningGroup = M;
unicode = 004D;
},
{
glyphname = N;
lastChange = "2017-02-12 20:12:07 +0000";
layers = (
{
layerId = "558B6FE6-F456-45D2-AA56-B37F51D1E4E1";
paths = (
{
closed = 1;
nodes = (
"174 0 LINE",
"174 700 LINE",
"81 700 LINE",
"81 0 LINE"
);
},
{
closed = 1;
nodes = (
"111 700 LINE",
"400 0 LINE",
"491 0 LINE",
"202 700 LINE"
);
},
{
closed = 1;
nodes = (
"521 0 LINE",
"521 700 LINE",
"428 700 LINE",
"428 0 LINE"
);
}
);
width = 600;
},
{
layerId = "5521DC30-183F-421A-91F3-644B5E24AFE6";
paths = (
{
closed = 1;
nodes = (
"214 0 LINE",
"214 700 LINE",
"61 700 LINE",
"61 0 LINE"
);
},
{
closed = 1;
nodes = (
"81 700 LINE",
"386 0 LINE",
"521 0 LINE",
"216 700 LINE"
);
},
{
closed = 1;
nodes = (
"541 0 LINE",
"541 700 LINE",
"388 700 LINE",
"388 0 LINE"
);
}
);
width = 600;
},
{
layerId = "BE68D89F-AB3F-4BDF-B332-ED50D7C47704";
paths = (
{
closed = 1;
nodes = (
"144 0 LINE",
"144 700 LINE",
"111 700 LINE",
"111 0 LINE"
);
},
{
closed = 1;
nodes = (
"121 700 LINE",
"445 0 LINE",
"481 0 LINE",
"157 700 LINE"
);
},
{
closed = 1;
nodes = (
"491 0 LINE",
"491 700 LINE",
"458 700 LINE",
"458 0 LINE"
);
}
);
width = 600;
}
);
leftKerningGroup = H;
rightKerningGroup = H;
unicode = 004E;
},
{
glyphname = Eng;
lastChange = "2017-02-09 22:23:26 +0000";
layers = (
{
layerId = "558B6FE6-F456-45D2-AA56-B37F51D1E4E1";
paths = (
{
closed = 1;
nodes = (
"521 20 LINE",
"202 700 LINE",
"111 700 LINE",
"430 0 LINE"
);
},
{
closed = 1;
nodes = (
"436 -192 OFFCURVE",
"521 -130 OFFCURVE",
"521 -12 CURVE",
"521 28 LINE",
"428 8 LINE",
"428 -78 OFFCURVE",
"401 -109 OFFCURVE",
"313 -109 CURVE",
"272 -109 OFFCURVE",
"233 -101 OFFCURVE",
"217 -95 CURVE",
"196 -178 LINE",
"220 -184 OFFCURVE",
"268 -192 OFFCURVE",
"320 -192 CURVE"
);
},
{
closed = 1;
nodes = (
"174 0 LINE",
"174 700 LINE",
"81 700 LINE",
"81 0 LINE"
);
},
{
closed = 1;
nodes = (
"521 0 LINE",
"521 700 LINE",
"428 700 LINE",
"428 0 LINE"
);
}
);
width = 600;
},
{
layerId = "5521DC30-183F-421A-91F3-644B5E24AFE6";
paths = (
{
closed = 1;
nodes = (
"551 20 LINE",
"222 700 LINE",
"61 700 LINE",
"420 0 LINE"
);
},
{
closed = 1;
nodes = (
"456 -192 OFFCURVE",
"551 -140 OFFCURVE",
"551 -12 CURVE",
"551 28 LINE",
"420 0 LINE",
"420 -46 OFFCURVE",
"391 -69 OFFCURVE",
"333 -69 CURVE",
"292 -69 OFFCURVE",
"244 -62 OFFCURVE",
"228 -56 CURVE",
"196 -179 LINE",
"220 -185 OFFCURVE",
"288 -192 OFFCURVE",
"340 -192 CURVE"
);
},
{
closed = 1;
nodes = (
"204 0 LINE",
"204 700 LINE",
"51 700 LINE",
"51 0 LINE"
);
},
{
closed = 1;
nodes = (
"551 700 LINE",
"398 700 LINE",
"398 50 LINE",
"551 0 LINE"
);
}
);
width = 600;
},
{
layerId = "BE68D89F-AB3F-4BDF-B332-ED50D7C47704";
paths = (
{
closed = 1;
nodes = (
"491 3 LINE",
"157 700 LINE",
"121 700 LINE",
"458 0 LINE"
);
},
{
closed = 1;
nodes = (
"436 -192 OFFCURVE",
"491 -125 OFFCURVE",
"491 -7 CURVE",
"491 3 LINE",
"458 0 LINE",
"458 -136 OFFCURVE",
"401 -159 OFFCURVE",
"313 -159 CURVE",
"272 -159 OFFCURVE",
"221 -149 OFFCURVE",
"205 -145 CURVE",
"196 -178 LINE",
"220 -184 OFFCURVE",
"268 -192 OFFCURVE",
"320 -192 CURVE"
);
},
{
closed = 1;
nodes = (
"144 0 LINE",
"144 700 LINE",
"111 700 LINE",
"111 0 LINE"
);
},
{
closed = 1;
nodes = (
"491 0 LINE",
"491 700 LINE",
"458 700 LINE",
"458 0 LINE"
);
}
);
width = 600;
}
);
unicode = 014A;
},
{
glyphname = O;
lastChange = "2017-02-08 18:09:55 +0000";
layers = (
{
layerId = "558B6FE6-F456-45D2-AA56-B37F51D1E4E1";
paths = (
{
closed = 1;
nodes = (
"443 -11 OFFCURVE",
"551 60 OFFCURVE",
"551 348 CURVE SMOOTH",
"551 635 OFFCURVE",
"443 706 OFFCURVE",
"297 706 CURVE SMOOTH",
"150 706 OFFCURVE",
"42 635 OFFCURVE",
"42 348 CURVE SMOOTH",
"42 60 OFFCURVE",
"150 -11 OFFCURVE",
"297 -11 CURVE SMOOTH"
);
},
{
closed = 1;
nodes = (
"204 72 OFFCURVE",
"140 124 OFFCURVE",
"140 348 CURVE SMOOTH",
"140 571 OFFCURVE",
"204 623 OFFCURVE",
"297 623 CURVE SMOOTH",
"389 623 OFFCURVE",
"453 571 OFFCURVE",
"453 348 CURVE SMOOTH",
"453 124 OFFCURVE",
"389 72 OFFCURVE",
"297 72 CURVE SMOOTH"
);
}
);
width = 600;
},
{
layerId = "5521DC30-183F-421A-91F3-644B5E24AFE6";
paths = (
{
closed = 1;
nodes = (
"453 -11 OFFCURVE",
"561 60 OFFCURVE",
"561 348 CURVE SMOOTH",
"561 635 OFFCURVE",
"453 706 OFFCURVE",
"297 706 CURVE SMOOTH",
"140 706 OFFCURVE",
"32 635 OFFCURVE",
"32 348 CURVE SMOOTH",
"32 60 OFFCURVE",
"140 -11 OFFCURVE",
"297 -11 CURVE SMOOTH"
);
},
{
closed = 1;
nodes = (
"234 112 OFFCURVE",
"190 164 OFFCURVE",
"190 348 CURVE SMOOTH",
"190 531 OFFCURVE",
"234 583 OFFCURVE",
"297 583 CURVE SMOOTH",
"359 583 OFFCURVE",
"403 531 OFFCURVE",
"403 348 CURVE SMOOTH",
"403 164 OFFCURVE",
"359 112 OFFCURVE",
"297 112 CURVE SMOOTH"
);
}
);
width = 600;
},
{
layerId = "BE68D89F-AB3F-4BDF-B332-ED50D7C47704";
paths = (
{
closed = 1;
nodes = (
"413 -11 OFFCURVE",
"521 50 OFFCURVE",
"521 348 CURVE SMOOTH",
"521 645 OFFCURVE",
"413 706 OFFCURVE",
"297 706 CURVE SMOOTH",
"180 706 OFFCURVE",
"72 645 OFFCURVE",
"72 348 CURVE SMOOTH",
"72 50 OFFCURVE",
"180 -11 OFFCURVE",
"297 -11 CURVE SMOOTH"
);
},
{
closed = 1;
nodes = (
"194 22 OFFCURVE",
"110 79 OFFCURVE",
"110 348 CURVE SMOOTH",
"110 616 OFFCURVE",
"194 673 OFFCURVE",
"297 673 CURVE SMOOTH",
"399 673 OFFCURVE",
"483 616 OFFCURVE",
"483 348 CURVE SMOOTH",
"483 79 OFFCURVE",
"399 22 OFFCURVE",
"297 22 CURVE SMOOTH"
);
}
);
width = 600;
}
);
leftKerningGroup = O;
rightKerningGroup = O;
unicode = 004F;
},
{
glyphname = OE;
lastChange = "2017-02-09 22:23:57 +0000";
layers = (
{
layerId = "558B6FE6-F456-45D2-AA56-B37F51D1E4E1";
paths = (
{
closed = 1;
nodes = (
"253 -11 OFFCURVE",
"286 -3 OFFCURVE",
"315 19 CURVE",
"269 98 LINE",
"254 80 OFFCURVE",
"235 72 OFFCURVE",
"217 72 CURVE SMOOTH",
"164 72 OFFCURVE",
"120 124 OFFCURVE",
"120 348 CURVE SMOOTH",
"120 571 OFFCURVE",
"164 623 OFFCURVE",
"217 623 CURVE SMOOTH",
"236 623 OFFCURVE",
"254 616 OFFCURVE",
"269 596 CURVE",
"324 669 LINE",
"293 696 OFFCURVE",
"256 706 OFFCURVE",
"217 706 CURVE SMOOTH",
"110 706 OFFCURVE",
"22 635 OFFCURVE",
"22 348 CURVE SMOOTH",
"22 60 OFFCURVE",
"110 -11 OFFCURVE",
"217 -11 CURVE SMOOTH"
);
},
{
closed = 1;
nodes = (
"572 0 LINE",
"572 82 LINE",
"273 82 LINE",
"273 0 LINE"
);
},
{
closed = 1;
nodes = (
"362 0 LINE",
"362 700 LINE",
"269 700 LINE",
"269 0 LINE"
);
},
{
closed = 1;
nodes = (
"548 303 LINE",
"548 385 LINE",
"353 385 LINE",
"353 303 LINE"
);
},
{
closed = 1;
nodes = (
"572 618 LINE",
"572 700 LINE",
"263 700 LINE",
"263 618 LINE"
);
}
);
width = 600;
},
{
layerId = "5521DC30-183F-421A-91F3-644B5E24AFE6";
paths = (
{
closed = 1;
nodes = (
"263 -11 OFFCURVE",
"296 -3 OFFCURVE",
"325 19 CURVE",
"269 138 LINE",
"254 120 OFFCURVE",
"245 112 OFFCURVE",
"227 112 CURVE SMOOTH",
"184 112 OFFCURVE",
"160 144 OFFCURVE",
"160 348 CURVE SMOOTH",
"160 551 OFFCURVE",
"184 583 OFFCURVE",
"227 583 CURVE SMOOTH",
"246 583 OFFCURVE",
"254 576 OFFCURVE",
"269 556 CURVE",
"334 669 LINE",
"303 696 OFFCURVE",
"266 706 OFFCURVE",
"227 706 CURVE SMOOTH",
"120 706 OFFCURVE",
"2 655 OFFCURVE",
"2 348 CURVE SMOOTH",
"2 40 OFFCURVE",
"120 -11 OFFCURVE",
"227 -11 CURVE SMOOTH"
);
},
{
closed = 1;
nodes = (
"582 0 LINE",
"582 122 LINE",
"283 122 LINE",
"283 0 LINE"
);
},
{
closed = 1;
nodes = (
"423 0 LINE",
"423 700 LINE",
"259 700 LINE",
"259 0 LINE"
);
},
{
closed = 1;
nodes = (
"558 283 LINE",
"558 405 LINE",
"363 405 LINE",
"363 283 LINE"
);
},
{
closed = 1;
nodes = (
"582 578 LINE",
"582 700 LINE",
"273 700 LINE",
"273 578 LINE"
);
}
);
width = 600;
},
{
layerId = "BE68D89F-AB3F-4BDF-B332-ED50D7C47704";
paths = (
{
closed = 1;
nodes = (
"256 -11 OFFCURVE",
"285 -8 OFFCURVE",
"307 0 CURVE",
"302 34 LINE",
"280 25 OFFCURVE",
"257 22 OFFCURVE",
"232 22 CURVE SMOOTH",
"159 22 OFFCURVE",
"75 79 OFFCURVE",
"75 348 CURVE SMOOTH",
"75 616 OFFCURVE",
"159 673 OFFCURVE",
"232 673 CURVE SMOOTH",
"257 673 OFFCURVE",
"280 670 OFFCURVE",
"302 661 CURVE",
"302 697 LINE",
"280 703 OFFCURVE",
"256 706 OFFCURVE",
"232 706 CURVE SMOOTH",
"145 706 OFFCURVE",
"37 645 OFFCURVE",
"37 348 CURVE SMOOTH",
"37 50 OFFCURVE",
"145 -11 OFFCURVE",
"232 -11 CURVE SMOOTH"
);
},
{
closed = 1;
nodes = (
"562 0 LINE",
"562 32 LINE",
"303 32 LINE",
"303 0 LINE"
);
},
{
closed = 1;
nodes = (
"332 0 LINE",
"332 700 LINE",
"299 700 LINE",
"299 0 LINE"
);
},
{
closed = 1;
nodes = (
"538 328 LINE",
"538 360 LINE",
"323 360 LINE",
"323 328 LINE"
);
},
{
closed = 1;
nodes = (
"562 668 LINE",
"562 700 LINE",
"286 700 LINE",
"286 668 LINE"
);
}
);
width = 600;
}
);
unicode = 0152;
},
{
glyphname = P;
lastChange = "2017-02-17 17:13:36 +0000";
layers = (
{
layerId = "558B6FE6-F456-45D2-AA56-B37F51D1E4E1";
paths = (
{
closed = 1;
nodes = (
"345 618 LINE SMOOTH",
"410 618 OFFCURVE",
"466 613 OFFCURVE",
"466 479 CURVE SMOOTH",
"466 335 OFFCURVE",
"410 322 OFFCURVE",
"345 322 CURVE SMOOTH",
"204 322 LINE",
"204 618 LINE"
);
},
{
closed = 1;
nodes = (
"416 240 OFFCURVE",
"560 258 OFFCURVE",
"560 479 CURVE SMOOTH",
"560 690 OFFCURVE",
"416 700 OFFCURVE",
"332 700 CURVE SMOOTH",
"111 700 LINE",
"111 0 LINE",
"204 0 LINE",
"204 240 LINE",
"332 240 LINE SMOOTH"
);
}
);
width = 600;
},
{
layerId = "5521DC30-183F-421A-91F3-644B5E24AFE6";
paths = (
{
closed = 1;
nodes = (
"305 578 LINE SMOOTH",
"370 578 OFFCURVE",
"406 563 OFFCURVE",
"406 469 CURVE SMOOTH",
"406 365 OFFCURVE",
"370 352 OFFCURVE",
"305 352 CURVE SMOOTH",
"254 352 LINE",
"254 578 LINE"
);
},
{
closed = 1;
nodes = (
"416 230 OFFCURVE",
"561 248 OFFCURVE",
"561 479 CURVE SMOOTH",
"561 690 OFFCURVE",
"416 700 OFFCURVE",
"332 700 CURVE SMOOTH",
"101 700 LINE",
"101 0 LINE",
"254 0 LINE",
"254 230 LINE",
"332 230 LINE SMOOTH"
);
}
);
width = 600;
},
{
layerId = "BE68D89F-AB3F-4BDF-B332-ED50D7C47704";
paths = (
{
closed = 1;
nodes = (
"335 668 LINE SMOOTH",
"400 668 OFFCURVE",
"496 663 OFFCURVE",
"496 479 CURVE SMOOTH",
"496 295 OFFCURVE",
"400 282 OFFCURVE",
"335 282 CURVE SMOOTH",
"164 282 LINE",
"164 668 LINE"
);
},
{
closed = 1;
nodes = (
"406 250 OFFCURVE",
"530 268 OFFCURVE",
"530 479 CURVE SMOOTH",
"530 690 OFFCURVE",
"406 700 OFFCURVE",
"322 700 CURVE SMOOTH",
"131 700 LINE",
"131 0 LINE",
"164 0 LINE",
"164 250 LINE",
"322 250 LINE SMOOTH"
);
}
);
width = 600;
}
);
leftKerningGroup = H;
rightKerningGroup = P;
unicode = 0050;
},
{
glyphname = Thorn;
lastChange = "2017-02-09 22:24:46 +0000";
layers = (
{
layerId = "558B6FE6-F456-45D2-AA56-B37F51D1E4E1";
paths = (
{
closed = 1;
nodes = (
"194 700 LINE",
"101 700 LINE",
"101 0 LINE",
"194 0 LINE"
);
},
{
closed = 1;
nodes = (
"170 128 LINE",
"282 128 LINE SMOOTH",
"366 128 OFFCURVE",
"510 146 OFFCURVE",
"510 367 CURVE SMOOTH",
"510 578 OFFCURVE",
"366 588 OFFCURVE",
"282 588 CURVE SMOOTH",
"168 588 LINE",
"168 506 LINE",
"295 506 LINE",
"360 506 OFFCURVE",
"416 501 OFFCURVE",
"416 367 CURVE SMOOTH",
"416 223 OFFCURVE",
"360 210 OFFCURVE",
"295 210 CURVE SMOOTH",
"170 210 LINE"
);
}
);
width = 600;
},
{
layerId = "5521DC30-183F-421A-91F3-644B5E24AFE6";
paths = (
{
closed = 1;
nodes = (
"234 700 LINE",
"81 700 LINE",
"81 0 LINE",
"234 0 LINE"
);
},
{
closed = 1;
nodes = (
"170 128 LINE",
"292 128 LINE SMOOTH",
"376 128 OFFCURVE",
"530 146 OFFCURVE",
"530 367 CURVE SMOOTH",
"530 578 OFFCURVE",
"376 588 OFFCURVE",
"292 588 CURVE SMOOTH",
"168 588 LINE",
"168 466 LINE",
"275 466 LINE",
"340 466 OFFCURVE",
"376 461 OFFCURVE",
"376 367 CURVE SMOOTH",
"376 263 OFFCURVE",
"340 250 OFFCURVE",
"275 250 CURVE SMOOTH",
"170 250 LINE"
);
}
);
width = 600;
},
{
layerId = "BE68D89F-AB3F-4BDF-B332-ED50D7C47704";
paths = (
{
closed = 1;
nodes = (
"164 700 LINE",
"131 700 LINE",
"131 0 LINE",
"164 0 LINE"
);
},
{
closed = 1;
nodes = (
"140 128 LINE",
"282 128 LINE SMOOTH",
"366 128 OFFCURVE",
"480 146 OFFCURVE",
"480 367 CURVE SMOOTH",
"480 578 OFFCURVE",
"366 588 OFFCURVE",
"282 588 CURVE SMOOTH",
"138 588 LINE",
"138 556 LINE",
"295 556 LINE",
"360 556 OFFCURVE",
"446 551 OFFCURVE",
"446 367 CURVE SMOOTH",
"446 173 OFFCURVE",
"360 160 OFFCURVE",
"295 160 CURVE SMOOTH",
"140 160 LINE"
);
}
);
width = 600;
}
);
unicode = 00DE;
},
{
glyphname = Q;
lastChange = "2017-02-08 18:11:33 +0000";
layers = (
{
layerId = "558B6FE6-F456-45D2-AA56-B37F51D1E4E1";
paths = (
{
closed = 1;
nodes = (
"439 -11 OFFCURVE",
"547 60 OFFCURVE",
"547 348 CURVE SMOOTH",
"547 635 OFFCURVE",
"439 706 OFFCURVE",
"293 706 CURVE SMOOTH",
"146 706 OFFCURVE",
"38 635 OFFCURVE",
"38 348 CURVE SMOOTH",
"38 60 OFFCURVE",
"146 -11 OFFCURVE",
"293 -11 CURVE SMOOTH"
);
},
{
closed = 1;
nodes = (
"559 -16 LINE",
"455 88 LINE",
"389 22 LINE",
"492 -80 LINE"
);
},
{
closed = 1;
nodes = (
"200 72 OFFCURVE",
"136 124 OFFCURVE",
"136 348 CURVE SMOOTH",
"136 571 OFFCURVE",
"200 623 OFFCURVE",
"293 623 CURVE SMOOTH",
"385 623 OFFCURVE",
"449 571 OFFCURVE",
"449 348 CURVE SMOOTH",
"449 124 OFFCURVE",
"385 72 OFFCURVE",
"293 72 CURVE SMOOTH"
);
}
);
width = 600;
},
{
layerId = "5521DC30-183F-421A-91F3-644B5E24AFE6";
paths = (
{
closed = 1;
nodes = (
"453 -11 OFFCURVE",
"561 60 OFFCURVE",
"561 348 CURVE SMOOTH",
"561 635 OFFCURVE",
"453 706 OFFCURVE",
"297 706 CURVE SMOOTH",
"140 706 OFFCURVE",
"32 635 OFFCURVE",
"32 348 CURVE SMOOTH",
"32 60 OFFCURVE",
"140 -11 OFFCURVE",
"297 -11 CURVE SMOOTH"
);
},
{
closed = 1;
nodes = (
"590 -9 LINE",
"426 156 LINE",
"322 51 LINE",
"484 -110 LINE"
);
},
{
closed = 1;
nodes = (
"234 112 OFFCURVE",
"190 164 OFFCURVE",
"190 348 CURVE SMOOTH",
"190 531 OFFCURVE",
"234 583 OFFCURVE",
"297 583 CURVE SMOOTH",
"359 583 OFFCURVE",
"403 531 OFFCURVE",
"403 348 CURVE SMOOTH",
"403 164 OFFCURVE",
"359 112 OFFCURVE",
"297 112 CURVE SMOOTH"
);
}
);
width = 600;
},
{
layerId = "BE68D89F-AB3F-4BDF-B332-ED50D7C47704";
paths = (
{
closed = 1;
nodes = (
"413 -11 OFFCURVE",
"521 50 OFFCURVE",
"521 348 CURVE SMOOTH",
"521 645 OFFCURVE",
"413 706 OFFCURVE",
"297 706 CURVE SMOOTH",
"180 706 OFFCURVE",
"72 645 OFFCURVE",
"72 348 CURVE SMOOTH",
"72 50 OFFCURVE",
"180 -11 OFFCURVE",
"297 -11 CURVE SMOOTH"
);
},
{
closed = 1;
nodes = (
"530 -26 LINE",
"435 69 LINE",
"409 42 LINE",
"503 -52 LINE"
);
},
{
closed = 1;
nodes = (
"194 22 OFFCURVE",
"110 79 OFFCURVE",
"110 348 CURVE SMOOTH",
"110 616 OFFCURVE",
"194 673 OFFCURVE",
"297 673 CURVE SMOOTH",
"399 673 OFFCURVE",
"483 616 OFFCURVE",
"483 348 CURVE SMOOTH",
"483 79 OFFCURVE",
"399 22 OFFCURVE",
"297 22 CURVE SMOOTH"
);
}
);
width = 600;
}
);
unicode = 0051;
},
{
glyphname = Q.ss01;
lastChange = "2017-02-09 22:27:04 +0000";
layers = (
{
layerId = "558B6FE6-F456-45D2-AA56-B37F51D1E4E1";
paths = (
{
closed = 1;
nodes = (
"439 -11 OFFCURVE",
"547 60 OFFCURVE",
"547 348 CURVE SMOOTH",
"547 635 OFFCURVE",
"439 706 OFFCURVE",
"293 706 CURVE SMOOTH",
"146 706 OFFCURVE",
"38 635 OFFCURVE",
"38 348 CURVE SMOOTH",
"38 60 OFFCURVE",
"146 -11 OFFCURVE",
"293 -11 CURVE SMOOTH"
);
},
{
closed = 1;
nodes = (
"576 -52 LINE",
"568 10 OFFCURVE",
"491 103 OFFCURVE",
"353 79 CURVE",
"364 -4 LINE",
"431 16 OFFCURVE",
"492 -52 OFFCURVE",
"503 -118 CURVE"
);
},
{
closed = 1;
nodes = (
"200 72 OFFCURVE",
"136 124 OFFCURVE",
"136 348 CURVE SMOOTH",
"136 571 OFFCURVE",
"200 623 OFFCURVE",
"293 623 CURVE SMOOTH",
"385 623 OFFCURVE",
"449 571 OFFCURVE",
"449 348 CURVE SMOOTH",
"449 124 OFFCURVE",
"385 72 OFFCURVE",
"293 72 CURVE SMOOTH"
);
}
);
width = 600;
},
{
layerId = "5521DC30-183F-421A-91F3-644B5E24AFE6";
paths = (
{
closed = 1;
nodes = (
"463 -11 OFFCURVE",
"571 60 OFFCURVE",
"571 348 CURVE SMOOTH",
"571 635 OFFCURVE",
"463 706 OFFCURVE",
"297 706 CURVE SMOOTH",
"130 706 OFFCURVE",
"22 635 OFFCURVE",
"22 348 CURVE SMOOTH",
"22 60 OFFCURVE",
"130 -11 OFFCURVE",
"297 -11 CURVE SMOOTH"
);
},
{
closed = 1;
nodes = (
"608 -66 LINE",
"598 44 OFFCURVE",
"507 146 OFFCURVE",
"327 114 CURVE",
"351 -8 LINE",
"436 8 OFFCURVE",
"484 -76 OFFCURVE",
"499 -162 CURVE"
);
},
{
closed = 1;
nodes = (
"224 112 OFFCURVE",
"180 164 OFFCURVE",
"180 348 CURVE SMOOTH",
"180 531 OFFCURVE",
"224 583 OFFCURVE",
"297 583 CURVE SMOOTH",
"369 583 OFFCURVE",
"413 531 OFFCURVE",
"413 348 CURVE SMOOTH",
"413 164 OFFCURVE",
"369 112 OFFCURVE",
"297 112 CURVE SMOOTH"
);
}
);
width = 600;
},
{
layerId = "BE68D89F-AB3F-4BDF-B332-ED50D7C47704";
paths = (
{
closed = 1;
nodes = (
"413 -11 OFFCURVE",
"521 50 OFFCURVE",
"521 348 CURVE SMOOTH",
"521 645 OFFCURVE",
"413 706 OFFCURVE",
"297 706 CURVE SMOOTH",
"180 706 OFFCURVE",
"72 645 OFFCURVE",
"72 348 CURVE SMOOTH",
"72 50 OFFCURVE",
"180 -11 OFFCURVE",
"297 -11 CURVE SMOOTH"
);
},
{
closed = 1;
nodes = (
"550 -63 LINE",
"540 -3 OFFCURVE",
"435 47 OFFCURVE",
"345 24 CURVE",
"354 -5 LINE",
"429 16 OFFCURVE",
"513 -23 OFFCURVE",
"522 -88 CURVE"
);
},
{
closed = 1;
nodes = (
"194 22 OFFCURVE",
"110 79 OFFCURVE",
"110 348 CURVE SMOOTH",
"110 616 OFFCURVE",
"194 673 OFFCURVE",
"297 673 CURVE SMOOTH",
"399 673 OFFCURVE",
"483 616 OFFCURVE",
"483 348 CURVE SMOOTH",
"483 79 OFFCURVE",
"399 22 OFFCURVE",
"297 22 CURVE SMOOTH"
);
}
);
width = 600;
}
);
leftKerningGroup = O;
rightKerningGroup = O;
},
{
glyphname = R;
lastChange = "2017-02-17 17:14:29 +0000";
layers = (
{
layerId = "558B6FE6-F456-45D2-AA56-B37F51D1E4E1";
paths = (
{
closed = 1;
nodes = (
"341 618 LINE SMOOTH",
"406 618 OFFCURVE",
"442 593 OFFCURVE",
"442 499 CURVE SMOOTH",
"442 392 OFFCURVE",
"411 372 OFFCURVE",
"346 372 CURVE SMOOTH",
"185 372 LINE",
"185 618 LINE"
);
},
{
closed = 1;
nodes = (
"420 290 OFFCURVE",
"536 315 OFFCURVE",
"536 499 CURVE SMOOTH",
"536 683 OFFCURVE",
"415 700 OFFCURVE",
"331 700 CURVE SMOOTH",
"92 700 LINE",
"92 0 LINE",
"185 0 LINE",
"185 290 LINE",
"336 290 LINE SMOOTH"
);
},
{
closed = 1;
nodes = (
"537 0 LINE",
"392 313 LINE",
"291 313 LINE",
"432 0 LINE"
);
}
);
width = 600;
},
{
layerId = "5521DC30-183F-421A-91F3-644B5E24AFE6";
paths = (
{
closed = 1;
nodes = (
"316 578 LINE SMOOTH",
"376 578 OFFCURVE",
"397 551 OFFCURVE",
"397 497 CURVE SMOOTH",
"397 430 OFFCURVE",
"376 402 OFFCURVE",
"316 402 CURVE SMOOTH",
"235 402 LINE",
"235 578 LINE"
);
},
{
closed = 1;
nodes = (
"420 280 OFFCURVE",
"551 305 OFFCURVE",
"551 499 CURVE SMOOTH",
"551 683 OFFCURVE",
"420 700 OFFCURVE",
"336 700 CURVE SMOOTH",
"82 700 LINE",
"82 0 LINE",
"235 0 LINE",
"235 280 LINE",
"336 280 LINE SMOOTH"
);
},
{
closed = 1;
nodes = (
"556 0 LINE",
"426 313 LINE",
"271 313 LINE",
"392 0 LINE"
);
}
);
width = 600;
},
{
layerId = "BE68D89F-AB3F-4BDF-B332-ED50D7C47704";
paths = (
{
closed = 1;
nodes = (
"356 668 LINE SMOOTH",
"421 668 OFFCURVE",
"477 633 OFFCURVE",
"477 514 CURVE SMOOTH",
"477 394 OFFCURVE",
"426 352 OFFCURVE",
"361 352 CURVE SMOOTH",
"155 352 LINE",
"155 668 LINE"
);
},
{
closed = 1;
nodes = (
"427 320 OFFCURVE",
"511 355 OFFCURVE",
"511 514 CURVE SMOOTH",
"511 683 OFFCURVE",
"410 700 OFFCURVE",
"326 700 CURVE SMOOTH",
"122 700 LINE",
"122 0 LINE",
"155 0 LINE",
"155 320 LINE",
"343 320 LINE SMOOTH"
);
},
{
closed = 1;
nodes = (
"504 0 LINE",
"371 333 LINE",
"335 333 LINE",
"468 0 LINE"
);
}
);
width = 600;
}
);
leftKerningGroup = H;
rightKerningGroup = R;
unicode = 0052;
},
{
glyphname = S;
lastChange = "2017-02-10 02:17:35 +0000";
layers = (
{
layerId = "558B6FE6-F456-45D2-AA56-B37F51D1E4E1";
paths = (
{
closed = 1;
nodes = (
"240 429 OFFCURVE",
"178 458 OFFCURVE",
"178 530 CURVE SMOOTH",
"178 613 OFFCURVE",
"257 623 OFFCURVE",
"314 623 CURVE SMOOTH",
"378 623 OFFCURVE",
"420 593 OFFCURVE",
"443 540 CURVE",
"530 585 LINE",
"485 675 OFFCURVE",
"403 706 OFFCURVE",
"314 706 CURVE SMOOTH",
"206 706 OFFCURVE",
"79 667 OFFCURVE",
"79 530 CURVE SMOOTH",
"79 387 OFFCURVE",
"223 341 OFFCURVE",
"293 317 CURVE SMOOTH",
"359 294 OFFCURVE",
"444 275 OFFCURVE",
"444 187 CURVE SMOOTH",
"444 92 OFFCURVE",
"373 72 OFFCURVE",
"293 72 CURVE SMOOTH",
"214 72 OFFCURVE",
"158 105 OFFCURVE",
"135 155 CURVE",
"48 110 LINE",
"93 20 OFFCURVE",
"189 -11 OFFCURVE",
"293 -11 CURVE SMOOTH",
"414 -11 OFFCURVE",
"542 38 OFFCURVE",
"542 187 CURVE SMOOTH",
"542 339 OFFCURVE",
"377 380 OFFCURVE",
"293 410 CURVE SMOOTH"
);
}
);
width = 600;
},
{
layerId = "5521DC30-183F-421A-91F3-644B5E24AFE6";
paths = (
{
closed = 1;
nodes = (
"251 450 OFFCURVE",
"218 483 OFFCURVE",
"218 520 CURVE SMOOTH",
"218 563 OFFCURVE",
"257 583 OFFCURVE",
"314 583 CURVE SMOOTH",
"368 583 OFFCURVE",
"410 553 OFFCURVE",
"433 500 CURVE",
"554 565 LINE",
"518 657 OFFCURVE",
"424 706 OFFCURVE",
"314 706 CURVE SMOOTH",
"186 706 OFFCURVE",
"59 660 OFFCURVE",
"59 523 CURVE SMOOTH",
"59 370 OFFCURVE",
"213 319 OFFCURVE",
"283 295 CURVE SMOOTH",
"349 272 OFFCURVE",
"404 247 OFFCURVE",
"404 194 CURVE SMOOTH",
"404 136 OFFCURVE",
"353 112 OFFCURVE",
"293 112 CURVE SMOOTH",
"224 112 OFFCURVE",
"178 147 OFFCURVE",
"155 197 CURVE",
"24 132 LINE",
"70 37 OFFCURVE",
"160 -11 OFFCURVE",
"293 -11 CURVE SMOOTH",
"434 -11 OFFCURVE",
"562 39 OFFCURVE",
"562 197 CURVE SMOOTH",
"562 359 OFFCURVE",
"388 401 OFFCURVE",
"304 431 CURVE SMOOTH"
);
}
);
width = 600;
},
{
layerId = "BE68D89F-AB3F-4BDF-B332-ED50D7C47704";
paths = (
{
closed = 1;
nodes = (
"191 427 OFFCURVE",
"140 485 OFFCURVE",
"140 553 CURVE SMOOTH",
"140 630 OFFCURVE",
"206 673 OFFCURVE",
"302 673 CURVE SMOOTH",
"396 673 OFFCURVE",
"445 642 OFFCURVE",
"476 577 CURVE",
"509 594 LINE",
"473 666 OFFCURVE",
"406 706 OFFCURVE",
"302 706 CURVE SMOOTH",
"181 706 OFFCURVE",
"103 650 OFFCURVE",
"103 550 CURVE SMOOTH",
"103 465 OFFCURVE",
"168 394 OFFCURVE",
"293 348 CURVE SMOOTH",
"433 296 OFFCURVE",
"496 238 OFFCURVE",
"496 167 CURVE SMOOTH",
"496 85 OFFCURVE",
"434 22 OFFCURVE",
"306 22 CURVE SMOOTH",
"203 22 OFFCURVE",
"143 53 OFFCURVE",
"106 122 CURVE",
"70 104 LINE",
"113 27 OFFCURVE",
"187 -11 OFFCURVE",
"306 -11 CURVE SMOOTH",
"451 -11 OFFCURVE",
"532 61 OFFCURVE",
"532 170 CURVE SMOOTH",
"532 258 OFFCURVE",
"466 320 OFFCURVE",
"293 387 CURVE SMOOTH"
);
}
);
width = 600;
}
);
leftKerningGroup = S;
rightKerningGroup = S;
unicode = 0053;
},
{
glyphname = T;
lastChange = "2017-02-08 17:16:04 +0000";
layers = (
{
layerId = "558B6FE6-F456-45D2-AA56-B37F51D1E4E1";
paths = (
{
closed = 1;
nodes = (
"345 0 LINE",
"345 700 LINE",
"252 700 LINE",
"252 0 LINE"
);
},
{
closed = 1;
nodes = (
"63 618 LINE",
"535 618 LINE",
"535 700 LINE",
"63 700 LINE"
);
}
);
width = 600;
},
{
layerId = "5521DC30-183F-421A-91F3-644B5E24AFE6";
paths = (
{
closed = 1;
nodes = (
"375 0 LINE",
"375 700 LINE",
"222 700 LINE",
"222 0 LINE"
);
},
{
closed = 1;
nodes = (
"53 578 LINE",
"545 578 LINE",
"545 700 LINE",
"53 700 LINE"
);
}
);
width = 600;
},
{
layerId = "BE68D89F-AB3F-4BDF-B332-ED50D7C47704";
paths = (
{
closed = 1;
nodes = (
"315 0 LINE",
"315 700 LINE",
"282 700 LINE",
"282 0 LINE"
);
},
{
closed = 1;
nodes = (
"73 668 LINE",
"525 668 LINE",
"525 700 LINE",
"73 700 LINE"
);
}
);
width = 600;
}
);
leftKerningGroup = T;
rightKerningGroup = T;
unicode = 0054;
},
{
glyphname = U;
lastChange = "2017-04-10 21:19:17 +0000";
layers = (
{
layerId = "558B6FE6-F456-45D2-AA56-B37F51D1E4E1";
paths = (
{
closed = 1;
nodes = (
"443 -11 OFFCURVE",
"535 45 OFFCURVE",
"535 278 CURVE SMOOTH",
"535 278 OFFCURVE",
"535 700 OFFCURVE",
"535 700 CURVE SMOOTH",
"442 700 LINE SMOOTH",
"442 700 OFFCURVE",
"442 308 OFFCURVE",
"442 308 CURVE SMOOTH",
"442 109 OFFCURVE",
"388 72 OFFCURVE",
"301 72 CURVE SMOOTH",
"213 72 OFFCURVE",
"159 109 OFFCURVE",
"159 308 CURVE SMOOTH",
"159 308 OFFCURVE",
"159 700 OFFCURVE",
"159 700 CURVE SMOOTH",
"66 700 LINE SMOOTH",
"66 700 OFFCURVE",
"66 278 OFFCURVE",
"66 278 CURVE SMOOTH",
"66 45 OFFCURVE",
"160 -11 OFFCURVE",
"301 -11 CURVE SMOOTH"
);
}
);
width = 600;
},
{
layerId = "5521DC30-183F-421A-91F3-644B5E24AFE6";
paths = (
{
closed = 1;
nodes = (
"443 -11 OFFCURVE",
"550 35 OFFCURVE",
"550 268 CURVE SMOOTH",
"550 268 OFFCURVE",
"550 700 OFFCURVE",
"550 700 CURVE SMOOTH",
"397 700 LINE SMOOTH",
"397 700 OFFCURVE",
"397 288 OFFCURVE",
"397 288 CURVE SMOOTH",
"397 139 OFFCURVE",
"359 112 OFFCURVE",
"301 112 CURVE SMOOTH",
"244 112 OFFCURVE",
"204 139 OFFCURVE",
"204 288 CURVE SMOOTH",
"204 288 OFFCURVE",
"204 700 OFFCURVE",
"204 700 CURVE SMOOTH",
"51 700 LINE SMOOTH",
"51 700 OFFCURVE",
"51 268 OFFCURVE",
"51 268 CURVE SMOOTH",
"51 35 OFFCURVE",
"160 -11 OFFCURVE",
"301 -11 CURVE SMOOTH"
);
}
);
width = 600;
},
{
layerId = "BE68D89F-AB3F-4BDF-B332-ED50D7C47704";
paths = (
{
closed = 1;
nodes = (
"438 -11 OFFCURVE",
"505 57 OFFCURVE",
"505 284 CURVE SMOOTH",
"505 284 OFFCURVE",
"505 700 OFFCURVE",
"505 700 CURVE SMOOTH",
"472 700 LINE SMOOTH",
"472 700 OFFCURVE",
"472 256 OFFCURVE",
"472 256 CURVE SMOOTH",
"472 81 OFFCURVE",
"419 22 OFFCURVE",
"301 22 CURVE SMOOTH",
"184 22 OFFCURVE",
"129 81 OFFCURVE",
"129 256 CURVE SMOOTH",
"129 256 OFFCURVE",
"129 700 OFFCURVE",
"129 700 CURVE SMOOTH",
"96 700 LINE SMOOTH",
"96 700 OFFCURVE",
"96 284 OFFCURVE",
"96 284 CURVE SMOOTH",
"96 57 OFFCURVE",
"165 -11 OFFCURVE",
"301 -11 CURVE SMOOTH"
);
}
);
width = 600;
}
);
leftKerningGroup = U;
rightKerningGroup = U;
unicode = 0055;
},
{
glyphname = V;
lastChange = "2017-02-08 20:06:24 +0000";
layers = (
{
layerId = "558B6FE6-F456-45D2-AA56-B37F51D1E4E1";
paths = (
{
closed = 1;
nodes = (
"308 0 LINE",
"151 700 LINE",
"50 700 LINE",
"207 0 LINE"
);
},
{
closed = 1;
nodes = (
"556 700 LINE",
"455 700 LINE",
"298 0 LINE",
"399 0 LINE"
);
},
{
closed = 1;
nodes = (
"387 0 LINE",
"387 82 LINE",
"219 82 LINE",
"219 0 LINE"
);
}
);
width = 600;
},
{
layerId = "5521DC30-183F-421A-91F3-644B5E24AFE6";
paths = (
{
closed = 1;
nodes = (
"338 0 LINE",
"181 700 LINE",
"26 700 LINE",
"183 0 LINE"
);
},
{
closed = 1;
nodes = (
"582 700 LINE",
"427 700 LINE",
"270 0 LINE",
"425 0 LINE"
);
},
{
closed = 1;
nodes = (
"383 0 LINE",
"383 122 LINE",
"225 122 LINE",
"225 0 LINE"
);
}
);
width = 600;
},
{
layerId = "BE68D89F-AB3F-4BDF-B332-ED50D7C47704";
paths = (
{
closed = 1;
nodes = (
"278 0 LINE",
"121 700 LINE",
"87 700 LINE",
"244 0 LINE"
);
},
{
closed = 1;
nodes = (
"519 700 LINE",
"485 700 LINE",
"328 0 LINE",
"362 0 LINE"
);
},
{
closed = 1;
nodes = (
"350 0 LINE",
"350 32 LINE",
"256 32 LINE",
"256 0 LINE"
);
}
);
width = 600;
}
);
leftKerningGroup = V;
rightKerningGroup = V;
unicode = 0056;
},
{
glyphname = W;
lastChange = "2017-02-14 02:24:29 +0000";
layers = (
{
layerId = "558B6FE6-F456-45D2-AA56-B37F51D1E4E1";
paths = (
{
closed = 1;
nodes = (
"498 0 LINE",
"583 700 LINE",
"490 700 LINE",
"440 184 LINE",
"432 0 LINE"
);
},
{
closed = 1;
nodes = (
"174 0 LINE",
"166 184 LINE",
"116 700 LINE",
"23 700 LINE",
"108 0 LINE"
);
},
{
closed = 1;
nodes = (
"214 0 LINE",
"299 447 LINE",
"312 642 LINE",
"255 642 LINE",
"172 184 LINE",
"158 0 LINE"
);
},
{
closed = 1;
nodes = (
"448 0 LINE",
"434 184 LINE",
"351 642 LINE",
"294 642 LINE",
"307 447 LINE",
"392 0 LINE"
);
}
);
width = 600;
},
{
layerId = "5521DC30-183F-421A-91F3-644B5E24AFE6";
paths = (
{
closed = 1;
nodes = (
"538 0 LINE",
"603 700 LINE",
"460 700 LINE",
"438 344 LINE",
"415 0 LINE"
);
},
{
closed = 1;
nodes = (
"191 0 LINE",
"168 344 LINE",
"146 700 LINE",
"3 700 LINE",
"68 0 LINE"
);
},
{
closed = 1;
nodes = (
"224 0 LINE",
"295 297 LINE",
"322 612 LINE",
"241 612 LINE",
"181 324 LINE",
"158 0 LINE"
);
},
{
closed = 1;
nodes = (
"448 0 LINE",
"425 324 LINE",
"365 612 LINE",
"284 612 LINE",
"311 297 LINE",
"382 0 LINE"
);
}
);
width = 600;
},
{
layerId = "BE68D89F-AB3F-4BDF-B332-ED50D7C47704";
paths = (
{
closed = 1;
nodes = (
"467 0 LINE",
"549 700 LINE",
"515 700 LINE",
"442 49 LINE",
"439 0 LINE"
);
},
{
closed = 1;
nodes = (
"167 0 LINE",
"163 49 LINE",
"91 700 LINE",
"57 700 LINE",
"139 0 LINE"
);
},
{
closed = 1;
nodes = (
"184 0 LINE",
"301 609 LINE",
"310 662 LINE",
"281 662 LINE",
"164 68 LINE",
"155 0 LINE"
);
},
{
closed = 1;
nodes = (
"451 0 LINE",
"442 68 LINE",
"325 662 LINE",
"296 662 LINE",
"305 609 LINE",
"422 0 LINE"
);
}
);
width = 600;
}
);
leftKerningGroup = W;
rightKerningGroup = W;
unicode = 0057;
},
{
glyphname = X;
lastChange = "2017-02-08 20:03:25 +0000";
layers = (
{
layerId = "558B6FE6-F456-45D2-AA56-B37F51D1E4E1";
paths = (
{
closed = 1;
nodes = (
"287 305 LINE",
"369 305 LINE",
"369 387 LINE",
"287 387 LINE"
);
},
{
closed = 1;
nodes = (
"305 366 LINE",
"384 333 LINE",
"548 700 LINE",
"446 700 LINE"
);
},
{
closed = 1;
nodes = (
"548 0 LINE",
"379 366 LINE",
"285 366 LINE",
"446 0 LINE"
);
},
{
closed = 1;
nodes = (
"227 387 LINE",
"227 305 LINE",
"299 305 LINE",
"299 387 LINE"
);
},
{
closed = 1;
nodes = (
"48 700 LINE",
"212 333 LINE",
"291 366 LINE",
"150 700 LINE"
);
},
{
closed = 1;
nodes = (
"311 366 LINE",
"217 366 LINE",
"48 0 LINE",
"150 0 LINE"
);
}
);
width = 600;
},
{
layerId = "5521DC30-183F-421A-91F3-644B5E24AFE6";
paths = (
{
closed = 1;
nodes = (
"287 285 LINE",
"369 285 LINE",
"429 407 LINE",
"287 407 LINE"
);
},
{
closed = 1;
nodes = (
"285 366 LINE",
"424 333 LINE",
"588 700 LINE",
"426 700 LINE"
);
},
{
closed = 1;
nodes = (
"588 0 LINE",
"419 366 LINE",
"265 366 LINE",
"426 0 LINE"
);
},
{
closed = 1;
nodes = (
"227 407 LINE",
"227 285 LINE",
"299 285 LINE",
"299 407 LINE"
);
},
{
closed = 1;
nodes = (
"8 700 LINE",
"172 333 LINE",
"311 366 LINE",
"170 700 LINE"
);
},
{
closed = 1;
nodes = (
"331 366 LINE",
"177 366 LINE",
"8 0 LINE",
"170 0 LINE"
);
}
);
width = 600;
},
{
layerId = "BE68D89F-AB3F-4BDF-B332-ED50D7C47704";
paths = (
{
closed = 1;
nodes = (
"296 330 LINE",
"358 330 LINE",
"358 362 LINE",
"296 362 LINE"
);
},
{
closed = 1;
nodes = (
"327 358 LINE",
"353 333 LINE",
"517 700 LINE",
"477 700 LINE"
);
},
{
closed = 1;
nodes = (
"517 0 LINE",
"352 358 LINE",
"314 358 LINE",
"477 0 LINE"
);
},
{
closed = 1;
nodes = (
"239 362 LINE",
"239 330 LINE",
"298 330 LINE",
"298 362 LINE"
);
},
{
closed = 1;
nodes = (
"80 700 LINE",
"244 333 LINE",
"270 358 LINE",
"119 700 LINE"
);
},
{
closed = 1;
nodes = (
"282 358 LINE",
"245 358 LINE",
"80 0 LINE",
"119 0 LINE"
);
}
);
width = 600;
}
);
leftKerningGroup = X;
rightKerningGroup = X;
unicode = 0058;
},
{
glyphname = X.ss01;
lastChange = "2017-02-09 22:28:33 +0000";
layers = (
{
layerId = "558B6FE6-F456-45D2-AA56-B37F51D1E4E1";
paths = (
{
closed = 1;
nodes = (
"260 371 LINE",
"56 0 LINE",
"163 0 LINE",
"337 332 LINE"
);
},
{
closed = 1;
nodes = (
"337 332 LINE",
"542 700 LINE",
"436 700 LINE",
"260 371 LINE"
);
},
{
closed = 1;
nodes = (
"436 0 LINE",
"542 0 LINE",
"338 371 LINE",
"261 332 LINE"
);
},
{
closed = 1;
nodes = (
"163 700 LINE",
"56 700 LINE",
"261 332 LINE",
"338 371 LINE"
);
}
);
width = 600;
},
{
layerId = "5521DC30-183F-421A-91F3-644B5E24AFE6";
paths = (
{
closed = 1;
nodes = (
"230 371 LINE",
"26 0 LINE",
"193 0 LINE",
"367 332 LINE"
);
},
{
closed = 1;
nodes = (
"367 332 LINE",
"572 700 LINE",
"406 700 LINE",
"230 371 LINE"
);
},
{
closed = 1;
nodes = (
"406 0 LINE",
"572 0 LINE",
"368 371 LINE",
"231 332 LINE"
);
},
{
closed = 1;
nodes = (
"193 700 LINE",
"26 700 LINE",
"231 332 LINE",
"368 371 LINE"
);
}
);
width = 600;
},
{
layerId = "BE68D89F-AB3F-4BDF-B332-ED50D7C47704";
paths = (
{
closed = 1;
nodes = (
"290 371 LINE",
"86 0 LINE",
"126 0 LINE",
"307 332 LINE"
);
},
{
closed = 1;
nodes = (
"307 332 LINE",
"512 700 LINE",
"473 700 LINE",
"290 371 LINE"
);
},
{
closed = 1;
nodes = (
"473 0 LINE",
"512 0 LINE",
"308 371 LINE",
"291 332 LINE"
);
},
{
closed = 1;
nodes = (
"126 700 LINE",
"86 700 LINE",
"291 332 LINE",
"308 371 LINE"
);
}
);
width = 600;
}
);
},
{
glyphname = Y;
lastChange = "2017-02-10 00:52:32 +0000";
layers = (
{
layerId = "558B6FE6-F456-45D2-AA56-B37F51D1E4E1";
paths = (
{
closed = 1;
nodes = (
"301 390 LINE",
"347 277 LINE",
"555 700 LINE",
"448 700 LINE"
);
},
{
closed = 1;
nodes = (
"45 700 LINE",
"256 272 LINE",
"299 390 LINE",
"152 700 LINE"
);
},
{
closed = 1;
nodes = (
"347 0 LINE",
"347 390 LINE",
"254 390 LINE",
"254 0 LINE"
);
}
);
width = 600;
},
{
layerId = "5521DC30-183F-421A-91F3-644B5E24AFE6";
paths = (
{
closed = 1;
nodes = (
"301 420 LINE",
"377 257 LINE",
"585 700 LINE",
"418 700 LINE"
);
},
{
closed = 1;
nodes = (
"15 700 LINE",
"226 252 LINE",
"299 420 LINE",
"182 700 LINE"
);
},
{
closed = 1;
nodes = (
"377 0 LINE",
"377 420 LINE",
"224 420 LINE",
"224 0 LINE"
);
}
);
width = 600;
},
{
layerId = "BE68D89F-AB3F-4BDF-B332-ED50D7C47704";
paths = (
{
closed = 1;
nodes = (
"298 328 LINE",
"317 287 LINE",
"525 700 LINE",
"490 700 LINE"
);
},
{
closed = 1;
nodes = (
"75 700 LINE",
"286 282 LINE",
"303 328 LINE",
"110 700 LINE"
);
},
{
closed = 1;
nodes = (
"317 0 LINE",
"317 335 LINE",
"284 335 LINE",
"284 0 LINE"
);
}
);
width = 600;
}
);
leftKerningGroup = Y;
rightKerningGroup = Y;
unicode = 0059;
},
{
glyphname = Z;
lastChange = "2017-02-08 20:03:38 +0000";
layers = (
{
layerId = "558B6FE6-F456-45D2-AA56-B37F51D1E4E1";
paths = (
{
closed = 1;
nodes = (
"194 82 LINE",
"512 618 LINE",
"411 618 LINE",
"92 82 LINE"
);
},
{
closed = 1;
nodes = (
"100 618 LINE",
"512 618 LINE",
"512 700 LINE",
"100 700 LINE"
);
},
{
closed = 1;
nodes = (
"92 0 LINE",
"524 0 LINE",
"524 82 LINE",
"92 82 LINE"
);
}
);
width = 600;
},
{
layerId = "5521DC30-183F-421A-91F3-644B5E24AFE6";
paths = (
{
closed = 1;
nodes = (
"244 122 LINE",
"512 578 LINE",
"351 578 LINE",
"82 122 LINE"
);
},
{
closed = 1;
nodes = (
"90 578 LINE",
"512 578 LINE",
"512 700 LINE",
"90 700 LINE"
);
},
{
closed = 1;
nodes = (
"82 0 LINE",
"534 0 LINE",
"534 122 LINE",
"82 122 LINE"
);
}
);
width = 600;
},
{
layerId = "BE68D89F-AB3F-4BDF-B332-ED50D7C47704";
paths = (
{
closed = 1;
nodes = (
"141 32 LINE",
"502 668 LINE",
"464 668 LINE",
"102 32 LINE"
);
},
{
closed = 1;
nodes = (
"110 668 LINE",
"502 668 LINE",
"502 700 LINE",
"110 700 LINE"
);
},
{
closed = 1;
nodes = (
"102 0 LINE",
"514 0 LINE",
"514 32 LINE",
"102 32 LINE"
);
}
);
width = 600;
}
);
leftKerningGroup = Z;
rightKerningGroup = Z;
unicode = 005A;
},
{
glyphname = a;
lastChange = "2017-11-14 21:09:24 +0000";
layers = (
{
layerId = "558B6FE6-F456-45D2-AA56-B37F51D1E4E1";
paths = (
{
closed = 1;
nodes = (
"507 371 LINE",
"507 462 OFFCURVE",
"432 512 OFFCURVE",
"306 512 CURVE",
"211 512 OFFCURVE",
"140 482 OFFCURVE",
"106 448 CURVE",
"168 387 LINE",
"193 415 OFFCURVE",
"234 429 OFFCURVE",
"299 429 CURVE",
"377 429 OFFCURVE",
"414 410 OFFCURVE",
"414 351 CURVE"
);
},
{
closed = 1;
nodes = (
"413 -11 OFFCURVE",
"469 76 OFFCURVE",
"469 76 CURVE",
"428 142 LINE",
"421 108 OFFCURVE",
"354 71 OFFCURVE",
"293 71 CURVE",
"201 71 OFFCURVE",
"166 93 OFFCURVE",
"166 153 CURVE",
"73 153 LINE",
"73 41 OFFCURVE",
"137 -11 OFFCURVE",
"276 -11 CURVE"
);
},
{
closed = 1;
nodes = (
"166 153 LINE",
"166 220 OFFCURVE",
"194 234 OFFCURVE",
"330 234 CURVE",
"296 316 LINE",
"144 316 OFFCURVE",
"73 264 OFFCURVE",
"73 153 CURVE"
);
},
{
closed = 1;
nodes = (
"565 42 LINE",
"456 151 LINE",
"394 89 LINE",
"502 -18 LINE"
);
},
{
closed = 1;
nodes = (
"478 234 LINE",
"478 316 LINE",
"296 316 LINE",
"330 234 LINE"
);
},
{
closed = 1;
nodes = (
"507 294 LINE",
"414 294 LINE",
"414 116 LINE",
"507 89 LINE"
);
},
{
closed = 1;
nodes = (
"507 209 LINE",
"507 371 LINE",
"414 351 LINE",
"414 209 LINE"
);
}
);
width = 600;
},
{
layerId = "5521DC30-183F-421A-91F3-644B5E24AFE6";
paths = (
{
closed = 1;
nodes = (
"527 360 LINE",
"527 461 OFFCURVE",
"436 512 OFFCURVE",
"310 512 CURVE",
"215 512 OFFCURVE",
"138 489 OFFCURVE",
"83 434 CURVE",
"176 345 LINE",
"201 373 OFFCURVE",
"235 390 OFFCURVE",
"300 390 CURVE",
"358 390 OFFCURVE",
"374 362 OFFCURVE",
"374 323 CURVE"
);
},
{
closed = 1;
nodes = (
"415 -11 OFFCURVE",
"473 76 OFFCURVE",
"473 76 CURVE",
"404 167 LINE",
"388 142 OFFCURVE",
"365 109 OFFCURVE",
"303 109 CURVE",
"224 109 OFFCURVE",
"212 127 OFFCURVE",
"212 153 CURVE",
"64 153 LINE",
"64 41 OFFCURVE",
"137 -11 OFFCURVE",
"286 -11 CURVE"
);
},
{
closed = 1;
nodes = (
"212 153 LINE",
"212 181 OFFCURVE",
"217 213 OFFCURVE",
"340 213 CURVE",
"306 316 LINE",
"134 316 OFFCURVE",
"64 264 OFFCURVE",
"64 153 CURVE"
);
},
{
closed = 1;
nodes = (
"589 64 LINE",
"480 173 LINE",
"390 84 LINE",
"498 -23 LINE"
);
},
{
closed = 1;
nodes = (
"468 213 LINE",
"468 316 LINE",
"306 316 LINE",
"340 213 LINE"
);
},
{
closed = 1;
nodes = (
"527 294 LINE",
"374 294 LINE",
"374 116 LINE",
"527 89 LINE"
);
},
{
closed = 1;
nodes = (
"527 218 LINE",
"527 360 LINE",
"374 323 LINE",
"374 218 LINE"
);
}
);
width = 600;
},
{
layerId = "BE68D89F-AB3F-4BDF-B332-ED50D7C47704";
paths = (
{
closed = 1;
nodes = (
"477 381 LINE",
"477 472 OFFCURVE",
"395 512 OFFCURVE",
"306 512 CURVE",
"217 512 OFFCURVE",
"167 491 OFFCURVE",
"133 457 CURVE",
"157 432 LINE",
"182 460 OFFCURVE",
"234 479 OFFCURVE",
"299 479 CURVE",
"377 479 OFFCURVE",
"444 452 OFFCURVE",
"444 373 CURVE"
);
},
{
closed = 1;
nodes = (
"413 -11 OFFCURVE",
"469 76 OFFCURVE",
"469 76 CURVE",
"459 124 LINE",
"448 88 OFFCURVE",
"381 21 OFFCURVE",
"290 21 CURVE",
"199 21 OFFCURVE",
"131 50 OFFCURVE",
"131 153 CURVE",
"98 153 LINE",
"98 41 OFFCURVE",
"167 -11 OFFCURVE",
"276 -11 CURVE"
);
},
{
closed = 1;
nodes = (
"131 153 LINE",
"131 265 OFFCURVE",
"194 284 OFFCURVE",
"330 284 CURVE",
"302 316 LINE",
"150 316 OFFCURVE",
"98 264 OFFCURVE",
"98 153 CURVE"
);
},
{
closed = 1;
nodes = (
"543 21 LINE",
"456 107 LINE",
"444 73 LINE",
"520 -2 LINE"
);
},
{
closed = 1;
nodes = (
"468 284 LINE",
"468 316 LINE",
"302 316 LINE",
"330 284 LINE"
);
},
{
closed = 1;
nodes = (
"477 294 LINE",
"444 294 LINE",
"444 90 LINE",
"477 81 LINE"
);
},
{
closed = 1;
nodes = (
"477 209 LINE",
"477 381 LINE",
"444 373 LINE",
"444 209 LINE"
);
}
);
width = 600;
}
);
unicode = 0061;
},
{
glyphname = a.ss01;
lastChange = "2017-02-13 22:08:22 +0000";
layers = (
{
layerId = "558B6FE6-F456-45D2-AA56-B37F51D1E4E1";
paths = (
{
closed = 1;
nodes = (
"500 371 LINE",
"500 462 OFFCURVE",
"425 512 OFFCURVE",
"299 512 CURVE",
"204 512 OFFCURVE",
"130 486 OFFCURVE",
"96 452 CURVE",
"159 385 LINE",
"184 413 OFFCURVE",
"227 429 OFFCURVE",
"292 429 CURVE",
"370 429 OFFCURVE",
"407 410 OFFCURVE",
"407 351 CURVE"
);
},
{
closed = 1;
nodes = (
"406 -11 OFFCURVE",
"462 76 OFFCURVE",
"462 76 CURVE",
"421 142 LINE",
"414 108 OFFCURVE",
"347 71 OFFCURVE",
"286 71 CURVE",
"194 71 OFFCURVE",
"159 93 OFFCURVE",
"159 153 CURVE",
"66 153 LINE",
"66 41 OFFCURVE",
"130 -11 OFFCURVE",
"269 -11 CURVE"
);
},
{
closed = 1;
nodes = (
"159 153 LINE",
"159 220 OFFCURVE",
"187 234 OFFCURVE",
"323 234 CURVE",
"289 316 LINE",
"137 316 OFFCURVE",
"66 264 OFFCURVE",
"66 153 CURVE"
);
},
{
closed = 1;
nodes = (
"531 -11 OFFCURVE",
"545 -9 OFFCURVE",
"557 -6 CURVE",
"557 70 LINE",
"551 69 OFFCURVE",
"546 68 OFFCURVE",
"542 68 CURVE",
"510 68 OFFCURVE",
"500 84 OFFCURVE",
"500 142 CURVE",
"407 122 LINE",
"407 36 OFFCURVE",
"447 -11 OFFCURVE",
"518 -11 CURVE"
);
},
{
closed = 1;
nodes = (
"471 234 LINE",
"471 316 LINE",
"289 316 LINE",
"323 234 LINE"
);
},
{
closed = 1;
nodes = (
"500 142 LINE",
"500 294 LINE",
"407 294 LINE",
"407 122 LINE"
);
},
{
closed = 1;
nodes = (
"500 209 LINE",
"500 371 LINE",
"407 351 LINE",
"407 209 LINE"
);
}
);
width = 600;
},
{
layerId = "5521DC30-183F-421A-91F3-644B5E24AFE6";
paths = (
{
closed = 1;
nodes = (
"517 366 LINE",
"517 457 OFFCURVE",
"435 512 OFFCURVE",
"309 512 CURVE",
"214 512 OFFCURVE",
"128 489 OFFCURVE",
"73 434 CURVE",
"166 345 LINE",
"191 373 OFFCURVE",
"237 389 OFFCURVE",
"302 389 CURVE",
"377 389 OFFCURVE",
"364 370 OFFCURVE",
"364 331 CURVE"
);
},
{
closed = 1;
nodes = (
"416 -11 OFFCURVE",
"452 76 OFFCURVE",
"452 76 CURVE",
"390 176 LINE",
"365 128 OFFCURVE",
"340 111 OFFCURVE",
"293 111 CURVE",
"221 111 OFFCURVE",
"196 119 OFFCURVE",
"196 153 CURVE",
"43 153 LINE",
"43 41 OFFCURVE",
"127 -11 OFFCURVE",
"279 -11 CURVE"
);
},
{
closed = 1;
nodes = (
"196 153 LINE",
"196 180 OFFCURVE",
"205 204 OFFCURVE",
"311 204 CURVE",
"299 316 LINE",
"124 316 OFFCURVE",
"43 264 OFFCURVE",
"43 153 CURVE"
);
},
{
closed = 1;
nodes = (
"521 -11 OFFCURVE",
"570 -9 OFFCURVE",
"582 -6 CURVE",
"582 110 LINE",
"576 109 OFFCURVE",
"561 108 OFFCURVE",
"557 108 CURVE",
"525 108 OFFCURVE",
"517 124 OFFCURVE",
"517 152 CURVE",
"364 122 LINE",
"364 36 OFFCURVE",
"437 -11 OFFCURVE",
"508 -11 CURVE"
);
},
{
closed = 1;
nodes = (
"472 204 LINE",
"472 316 LINE",
"299 316 LINE",
"311 204 LINE"
);
},
{
closed = 1;
nodes = (
"517 152 LINE",
"517 304 LINE",
"364 294 LINE",
"364 122 LINE"
);
},
{
closed = 1;
nodes = (
"517 209 LINE",
"517 366 LINE",
"364 331 LINE",
"364 204 LINE"
);
}
);
width = 600;
},
{
layerId = "BE68D89F-AB3F-4BDF-B332-ED50D7C47704";
paths = (
{
closed = 1;
nodes = (
"457 381 LINE",
"457 472 OFFCURVE",
"375 512 OFFCURVE",
"286 512 CURVE",
"197 512 OFFCURVE",
"147 491 OFFCURVE",
"113 457 CURVE",
"137 432 LINE",
"162 460 OFFCURVE",
"214 479 OFFCURVE",
"279 479 CURVE",
"357 479 OFFCURVE",
"424 452 OFFCURVE",
"424 373 CURVE"
);
},
{
closed = 1;
nodes = (
"393 -11 OFFCURVE",
"449 76 OFFCURVE",
"449 76 CURVE",
"439 124 LINE",
"428 88 OFFCURVE",
"364 21 OFFCURVE",
"273 21 CURVE",
"181 21 OFFCURVE",
"116 48 OFFCURVE",
"116 153 CURVE",
"83 153 LINE",
"83 41 OFFCURVE",
"147 -11 OFFCURVE",
"256 -11 CURVE"
);
},
{
closed = 1;
nodes = (
"116 153 LINE",
"116 265 OFFCURVE",
"174 284 OFFCURVE",
"310 284 CURVE",
"282 316 LINE",
"130 316 OFFCURVE",
"83 264 OFFCURVE",
"83 153 CURVE"
);
},
{
closed = 1;
nodes = (
"529 -11 OFFCURVE",
"540 -7 OFFCURVE",
"544 -6 CURVE",
"544 26 LINE",
"544 26 OFFCURVE",
"532 20 OFFCURVE",
"509 20 CURVE",
"477 20 OFFCURVE",
"457 44 OFFCURVE",
"457 122 CURVE",
"424 112 LINE",
"424 46 OFFCURVE",
"446 -11 OFFCURVE",
"507 -11 CURVE"
);
},
{
closed = 1;
nodes = (
"448 284 LINE",
"448 316 LINE",
"282 316 LINE",
"310 284 LINE"
);
},
{
closed = 1;
nodes = (
"457 294 LINE",
"424 294 LINE",
"424 90 LINE",
"457 89 LINE"
);
},
{
closed = 1;
nodes = (
"457 209 LINE",
"457 381 LINE",
"424 373 LINE",
"424 209 LINE"
);
}
);
width = 600;
}
);
leftKerningGroup = a;
rightKerningGroup = n;
},
{
glyphname = aogonek;
lastChange = "2017-02-21 01:20:17 +0000";
layers = (
{
components = (
{
name = a;
},
{
name = ogonekcomb;
transform = "{1, 0, 0, 1, 169, 0}";
}
);
layerId = "558B6FE6-F456-45D2-AA56-B37F51D1E4E1";
paths = (
{
closed = 1;
nodes = (
"529 0 LINE",
"564 33 LINE",
"555 42 LINE",
"461 0 LINE"
);
}
);
width = 600;
},
{
components = (
{
name = a;
},
{
name = ogonekcomb;
transform = "{1, 0, 0, 1, 154, 0}";
}
);
layerId = "5521DC30-183F-421A-91F3-644B5E24AFE6";
paths = (
{
closed = 1;
nodes = (
"539 0 LINE",
"592 51 LINE",
"579 64 LINE",
"411 0 LINE"
);
}
);
width = 600;
},
{
components = (
{
name = a;
},
{
name = ogonekcomb;
transform = "{1, 0, 0, 1, 174, 0}";
}
);
layerId = "BE68D89F-AB3F-4BDF-B332-ED50D7C47704";
paths = (
{
closed = 1;
nodes = (
"524 0 LINE",
"542 12 LINE",
"533 21 LINE",
"491 0 LINE"
);
}
);
width = 600;
}
);
unicode = 0105;
},
{
glyphname = ae;
lastChange = "2017-02-12 19:52:58 +0000";
layers = (
{
layerId = "558B6FE6-F456-45D2-AA56-B37F51D1E4E1";
paths = (
{
closed = 1;
nodes = (
"307 -11 OFFCURVE",
"311 76 OFFCURVE",
"311 76 CURVE",
"270 142 LINE",
"263 108 OFFCURVE",
"256 71 OFFCURVE",
"195 71 CURVE",
"143 71 OFFCURVE",
"105 93 OFFCURVE",
"105 153 CURVE",
"12 153 LINE",
"12 41 OFFCURVE",
"79 -11 OFFCURVE",
"178 -11 CURVE"
);
},
{
closed = 1;
nodes = (
"105 153 LINE",
"105 220 OFFCURVE",
"161 224 OFFCURVE",
"232 224 CURVE",
"198 308 LINE",
"101 308 OFFCURVE",
"12 264 OFFCURVE",
"12 153 CURVE"
);
},
{
closed = 1;
nodes = (
"320 224 LINE",
"320 308 LINE",
"198 308 LINE",
"232 224 LINE"
);
},
{
closed = 1;
nodes = (
"339 355 LINE",
"339 446 OFFCURVE",
"281 512 OFFCURVE",
"195 512 CURVE",
"120 512 OFFCURVE",
"59 486 OFFCURVE",
"15 452 CURVE",
"76 388 LINE",
"100 410 OFFCURVE",
"143 429 OFFCURVE",
"190 429 CURVE",
"233 429 OFFCURVE",
"256 400 OFFCURVE",
"256 341 CURVE"
);
},
{
closed = 1;
nodes = (
"349 209 LINE",
"349 361 LINE",
"256 341 LINE",
"256 209 LINE"
);
},
{
closed = 1;
nodes = (
"500 139 LINE",
"489 109 OFFCURVE",
"470 72 OFFCURVE",
"434 72 CURVE SMOOTH",
"380 72 OFFCURVE",
"351 112 OFFCURVE",
"351 251 CURVE SMOOTH",
"351 394 OFFCURVE",
"369 429 OFFCURVE",
"432 429 CURVE SMOOTH",
"496 429 OFFCURVE",
"496 345 OFFCURVE",
"496 306 CURVE",
"590 224 LINE",
"600 394 OFFCURVE",
"560 512 OFFCURVE",
"439 512 CURVE SMOOTH",
"322 512 OFFCURVE",
"254 444 OFFCURVE",
"254 247 CURVE SMOOTH",
"254 54 OFFCURVE",
"318 -11 OFFCURVE",
"432 -11 CURVE SMOOTH",
"496 -11 OFFCURVE",
"554 21 OFFCURVE",
"584 102 CURVE"
);
},
{
closed = 1;
nodes = (
"347 224 LINE",
"590 224 LINE",
"530 306 LINE",
"347 306 LINE"
);
}
);
width = 600;
},
{
layerId = "5521DC30-183F-421A-91F3-644B5E24AFE6";
paths = (
{
closed = 1;
nodes = (
"307 -11 OFFCURVE",
"311 76 OFFCURVE",
"311 76 CURVE",
"262 162 LINE",
"255 128 OFFCURVE",
"226 111 OFFCURVE",
"195 111 CURVE",
"180 111 OFFCURVE",
"142 113 OFFCURVE",
"142 153 CURVE",
"12 153 LINE",
"12 41 OFFCURVE",
"79 -11 OFFCURVE",
"178 -11 CURVE"
);
},
{
closed = 1;
nodes = (
"142 153 LINE",
"142 204 OFFCURVE",
"198 204 OFFCURVE",
"232 204 CURVE",
"218 328 LINE",
"91 328 OFFCURVE",
"12 264 OFFCURVE",
"12 153 CURVE"
);
},
{
closed = 1;
nodes = (
"320 204 LINE",
"320 328 LINE",
"218 328 LINE",
"232 204 LINE"
);
},
{
closed = 1;
nodes = (
"339 335 LINE",
"339 426 OFFCURVE",
"281 512 OFFCURVE",
"195 512 CURVE",
"110 512 OFFCURVE",
"52 486 OFFCURVE",
"-5 442 CURVE",
"76 348 LINE",
"100 370 OFFCURVE",
"143 389 OFFCURVE",
"190 389 CURVE",
"233 389 OFFCURVE",
"246 370 OFFCURVE",
"246 321 CURVE"
);
},
{
closed = 1;
nodes = (
"349 209 LINE",
"349 341 LINE",
"246 321 LINE",
"246 209 LINE"
);
},
{
closed = 1;
nodes = (
"487 161 LINE",
"480 141 OFFCURVE",
"470 112 OFFCURVE",
"434 112 CURVE SMOOTH",
"400 112 OFFCURVE",
"381 132 OFFCURVE",
"381 251 CURVE SMOOTH",
"381 364 OFFCURVE",
"386 389 OFFCURVE",
"429 389 CURVE SMOOTH",
"459 389 OFFCURVE",
"466 365 OFFCURVE",
"466 326 CURVE",
"590 204 LINE",
"600 374 OFFCURVE",
"560 512 OFFCURVE",
"439 512 CURVE SMOOTH",
"322 512 OFFCURVE",
"244 444 OFFCURVE",
"244 247 CURVE SMOOTH",
"244 54 OFFCURVE",
"318 -11 OFFCURVE",
"432 -11 CURVE SMOOTH",
"496 -11 OFFCURVE",
"564 31 OFFCURVE",
"594 112 CURVE"
);
},
{
closed = 1;
nodes = (
"347 204 LINE",
"590 204 LINE",
"530 326 LINE",
"347 326 LINE"
);
}
);
width = 600;
},
{
layerId = "BE68D89F-AB3F-4BDF-B332-ED50D7C47704";
paths = (
{
closed = 1;
nodes = (
"301 -11 OFFCURVE",
"321 76 OFFCURVE",
"321 76 CURVE",
"301 109 LINE",
"294 75 OFFCURVE",
"255 21 OFFCURVE",
"185 21 CURVE",
"113 21 OFFCURVE",
"65 48 OFFCURVE",
"65 143 CURVE",
"32 143 LINE",
"32 36 OFFCURVE",
"83 -11 OFFCURVE",
"182 -11 CURVE"
);
},
{
closed = 1;
nodes = (
"65 143 LINE",
"65 240 OFFCURVE",
"149 249 OFFCURVE",
"220 249 CURVE",
"208 281 LINE",
"111 281 OFFCURVE",
"32 254 OFFCURVE",
"32 143 CURVE"
);
},
{
closed = 1;
nodes = (
"290 249 LINE",
"290 281 LINE",
"208 281 LINE",
"220 249 LINE"
);
},
{
closed = 1;
nodes = (
"66 438 LINE",
"85 455 OFFCURVE",
"113 479 OFFCURVE",
"174 479 CURVE",
"247 479 OFFCURVE",
"286 400 OFFCURVE",
"286 341 CURVE",
"316 355 LINE",
"316 447 OFFCURVE",
"260 512 OFFCURVE",
"174 512 CURVE",
"102 512 OFFCURVE",
"55 481 OFFCURVE",
"40 468 CURVE"
);
},
{
closed = 1;
nodes = (
"319 255 LINE",
"319 361 LINE",
"286 341 LINE",
"286 257 LINE"
);
},
{
closed = 1;
nodes = (
"549 107 LINE",
"538 77 OFFCURVE",
"513 22 OFFCURVE",
"444 22 CURVE SMOOTH",
"342 22 OFFCURVE",
"321 112 OFFCURVE",
"321 251 CURVE SMOOTH",
"321 394 OFFCURVE",
"356 479 OFFCURVE",
"439 479 CURVE SMOOTH",
"533 479 OFFCURVE",
"536 370 OFFCURVE",
"536 281 CURVE",
"570 249 LINE",
"580 419 OFFCURVE",
"550 512 OFFCURVE",
"439 512 CURVE SMOOTH",
"352 512 OFFCURVE",
"286 454 OFFCURVE",
"286 257 CURVE SMOOTH",
"286 64 OFFCURVE",
"332 -11 OFFCURVE",
"442 -11 CURVE SMOOTH",
"503 -11 OFFCURVE",
"549 19 OFFCURVE",
"580 93 CURVE"
);
},
{
closed = 1;
nodes = (
"317 249 LINE",
"570 249 LINE",
"540 281 LINE",
"317 281 LINE"
);
}
);
width = 600;
}
);
unicode = 00E6;
},
{
glyphname = b;
lastChange = "2017-02-12 19:54:33 +0000";
layers = (
{
layerId = "558B6FE6-F456-45D2-AA56-B37F51D1E4E1";
paths = (
{
closed = 1;
nodes = (
"165 0 LINE",
"180 71 LINE",
"180 800 LINE",
"87 800 LINE",
"87 0 LINE"
);
},
{
closed = 1;
nodes = (
"178 322 LINE",
"191 355 OFFCURVE",
"237 428 OFFCURVE",
"319 428 CURVE SMOOTH",
"411 428 OFFCURVE",
"441 380 OFFCURVE",
"441 251 CURVE",
"534 251 LINE",
"534 434 OFFCURVE",
"465 511 OFFCURVE",
"339 511 CURVE SMOOTH",
"212 511 OFFCURVE",
"135 414 OFFCURVE",
"135 302 CURVE"
);
},
{
closed = 1;
nodes = (
"135 98 OFFCURVE",
"202 -11 OFFCURVE",
"329 -11 CURVE SMOOTH",
"455 -11 OFFCURVE",
"534 68 OFFCURVE",
"534 251 CURVE",
"441 251 LINE",
"441 122 OFFCURVE",
"401 72 OFFCURVE",
"309 72 CURVE SMOOTH",
"227 72 OFFCURVE",
"181 147 OFFCURVE",
"178 190 CURVE",
"135 210 LINE"
);
}
);
width = 600;
},
{
layerId = "5521DC30-183F-421A-91F3-644B5E24AFE6";
paths = (
{
closed = 1;
nodes = (
"180 0 LINE",
"225 71 LINE",
"225 800 LINE",
"72 800 LINE",
"72 0 LINE"
);
},
{
closed = 1;
nodes = (
"203 272 LINE",
"216 335 OFFCURVE",
"243 388 OFFCURVE",
"305 388 CURVE SMOOTH",
"377 388 OFFCURVE",
"396 340 OFFCURVE",
"396 251 CURVE",
"549 251 LINE",
"549 434 OFFCURVE",
"470 511 OFFCURVE",
"334 511 CURVE SMOOTH",
"227 511 OFFCURVE",
"150 414 OFFCURVE",
"150 302 CURVE"
);
},
{
closed = 1;
nodes = (
"150 98 OFFCURVE",
"217 -11 OFFCURVE",
"324 -11 CURVE SMOOTH",
"460 -11 OFFCURVE",
"549 68 OFFCURVE",
"549 251 CURVE",
"396 251 LINE",
"396 162 OFFCURVE",
"367 112 OFFCURVE",
"295 112 CURVE SMOOTH",
"233 112 OFFCURVE",
"206 167 OFFCURVE",
"203 240 CURVE",
"150 210 LINE"
);
}
);
width = 600;
},
{
layerId = "BE68D89F-AB3F-4BDF-B332-ED50D7C47704";
paths = (
{
closed = 1;
nodes = (
"160 0 LINE",
"160 71 LINE",
"160 800 LINE",
"127 800 LINE",
"127 0 LINE"
);
},
{
closed = 1;
nodes = (
"158 312 LINE",
"171 385 OFFCURVE",
"235 478 OFFCURVE",
"327 478 CURVE SMOOTH",
"416 478 OFFCURVE",
"471 416 OFFCURVE",
"471 251 CURVE",
"504 251 LINE",
"504 434 OFFCURVE",
"430 511 OFFCURVE",
"334 511 CURVE SMOOTH",
"209 511 OFFCURVE",
"135 404 OFFCURVE",
"135 292 CURVE"
);
},
{
closed = 1;
nodes = (
"135 104 OFFCURVE",
"193 -11 OFFCURVE",
"324 -11 CURVE SMOOTH",
"420 -11 OFFCURVE",
"504 68 OFFCURVE",
"504 251 CURVE",
"471 251 LINE",
"471 89 OFFCURVE",
"407 22 OFFCURVE",
"318 22 CURVE SMOOTH",
"226 22 OFFCURVE",
"169 117 OFFCURVE",
"158 200 CURVE",
"135 216 LINE"
);
}
);
width = 600;
}
);
leftKerningGroup = h;
rightKerningGroup = o;
unicode = 0062;
},
{
glyphname = c;
lastChange = "2017-02-10 01:27:32 +0000";
layers = (
{
layerId = "558B6FE6-F456-45D2-AA56-B37F51D1E4E1";
paths = (
{
closed = 1;
nodes = (
"441 148 LINE",
"412 94 OFFCURVE",
"375 72 OFFCURVE",
"334 72 CURVE SMOOTH",
"261 72 OFFCURVE",
"200 124 OFFCURVE",
"200 251 CURVE SMOOTH",
"200 380 OFFCURVE",
"261 429 OFFCURVE",
"334 429 CURVE SMOOTH",
"375 429 OFFCURVE",
"412 406 OFFCURVE",
"439 346 CURVE",
"525 391 LINE",
"477 481 OFFCURVE",
"408 512 OFFCURVE",
"337 512 CURVE SMOOTH",
"210 512 OFFCURVE",
"102 444 OFFCURVE",
"102 251 CURVE SMOOTH",
"102 60 OFFCURVE",
"210 -11 OFFCURVE",
"337 -11 CURVE SMOOTH",
"409 -11 OFFCURVE",
"479 21 OFFCURVE",
"527 103 CURVE"
);
}
);
width = 600;
},
{
layerId = "5521DC30-183F-421A-91F3-644B5E24AFE6";
paths = (
{
closed = 1;
nodes = (
"423 171 LINE",
"405 135 OFFCURVE",
"380 112 OFFCURVE",
"334 112 CURVE SMOOTH",
"276 112 OFFCURVE",
"240 144 OFFCURVE",
"240 251 CURVE SMOOTH",
"240 360 OFFCURVE",
"276 389 OFFCURVE",
"334 389 CURVE SMOOTH",
"380 389 OFFCURVE",
"412 365 OFFCURVE",
"427 318 CURVE",
"563 393 LINE",
"515 483 OFFCURVE",
"438 512 OFFCURVE",
"337 512 CURVE SMOOTH",
"200 512 OFFCURVE",
"82 444 OFFCURVE",
"82 251 CURVE SMOOTH",
"82 60 OFFCURVE",
"200 -11 OFFCURVE",
"337 -11 CURVE SMOOTH",
"439 -11 OFFCURVE",
"512 19 OFFCURVE",
"560 101 CURVE"
);
}
);
width = 600;
},
{
layerId = "BE68D89F-AB3F-4BDF-B332-ED50D7C47704";
paths = (
{
closed = 1;
nodes = (
"479 106 LINE",
"461 69 OFFCURVE",
"418 22 OFFCURVE",
"340 22 CURVE SMOOTH",
"257 22 OFFCURVE",
"164 94 OFFCURVE",
"164 251 CURVE SMOOTH",
"164 410 OFFCURVE",
"257 479 OFFCURVE",
"340 479 CURVE SMOOTH",
"418 479 OFFCURVE",
"455 446 OFFCURVE",
"481 392 CURVE",
"512 408 LINE",
"485 461 OFFCURVE",
"437 512 OFFCURVE",
"340 512 CURVE SMOOTH",
"243 512 OFFCURVE",
"128 444 OFFCURVE",
"128 251 CURVE SMOOTH",
"128 60 OFFCURVE",
"243 -11 OFFCURVE",
"340 -11 CURVE SMOOTH",
"437 -11 OFFCURVE",
"494 52 OFFCURVE",
"512 89 CURVE"
);
}
);
width = 600;
}
);
leftKerningGroup = o;
rightKerningGroup = c;
unicode = 0063;
},
{
glyphname = eth;
lastChange = "2017-02-10 01:09:11 +0000";
layers = (
{
layerId = "558B6FE6-F456-45D2-AA56-B37F51D1E4E1";
paths = (
{
closed = 1;
nodes = (
"209 72 OFFCURVE",
"168 164 OFFCURVE",
"168 251 CURVE SMOOTH",
"168 340 OFFCURVE",
"194 429 OFFCURVE",
"277 429 CURVE SMOOTH",
"341 429 OFFCURVE",
"401 398 OFFCURVE",
"431 336 CURVE",
"475 373 LINE",
"427 463 OFFCURVE",
"371 512 OFFCURVE",
"280 512 CURVE SMOOTH",
"143 512 OFFCURVE",
"70 404 OFFCURVE",
"70 251 CURVE SMOOTH",
"70 100 OFFCURVE",
"155 -11 OFFCURVE",
"292 -11 CURVE",
"292 72 LINE"
);
},
{
closed = 1;
nodes = (
"211 659 LINE",
"360 631 OFFCURVE",
"429 516 OFFCURVE",
"429 328 CURVE SMOOTH",
"429 139 OFFCURVE",
"385 72 OFFCURVE",
"292 72 CURVE",
"292 -11 LINE",
"439 -11 OFFCURVE",
"527 75 OFFCURVE",
"527 328 CURVE SMOOTH",
"527 576 OFFCURVE",
"414 684 OFFCURVE",
"245 721 CURVE"
);
},
{
closed = 1;
nodes = (
"234 599 LINE",
"278 558 LINE",
"454 670 LINE",
"420 720 LINE"
);
}
);
width = 600;
},
{
layerId = "5521DC30-183F-421A-91F3-644B5E24AFE6";
paths = (
{
closed = 1;
nodes = (
"229 112 OFFCURVE",
"198 174 OFFCURVE",
"198 251 CURVE SMOOTH",
"198 330 OFFCURVE",
"224 389 OFFCURVE",
"287 389 CURVE SMOOTH",
"351 389 OFFCURVE",
"392 358 OFFCURVE",
"411 316 CURVE",
"475 373 LINE",
"427 463 OFFCURVE",
"371 512 OFFCURVE",
"280 512 CURVE SMOOTH",
"143 512 OFFCURVE",
"40 434 OFFCURVE",
"40 251 CURVE SMOOTH",
"40 70 OFFCURVE",
"155 -11 OFFCURVE",
"292 -11 CURVE",
"292 112 LINE"
);
},
{
closed = 1;
nodes = (
"183 636 LINE",
"361 602 OFFCURVE",
"399 516 OFFCURVE",
"399 328 CURVE SMOOTH",
"399 149 OFFCURVE",
"385 112 OFFCURVE",
"292 112 CURVE",
"292 -11 LINE",
"439 -11 OFFCURVE",
"557 45 OFFCURVE",
"557 328 CURVE SMOOTH",
"557 606 OFFCURVE",
"403 690 OFFCURVE",
"234 727 CURVE"
);
},
{
closed = 1;
nodes = (
"201 586 LINE",
"255 535 LINE",
"474 674 LINE",
"432 736 LINE"
);
}
);
width = 600;
},
{
layerId = "BE68D89F-AB3F-4BDF-B332-ED50D7C47704";
paths = (
{
closed = 1;
nodes = (
"194 22 OFFCURVE",
"118 114 OFFCURVE",
"118 251 CURVE SMOOTH",
"118 390 OFFCURVE",
"189 479 OFFCURVE",
"287 479 CURVE SMOOTH",
"381 479 OFFCURVE",
"458 398 OFFCURVE",
"463 336 CURVE",
"485 359 LINE",
"477 416 OFFCURVE",
"417 512 OFFCURVE",
"290 512 CURVE SMOOTH",
"150 512 OFFCURVE",
"85 404 OFFCURVE",
"85 251 CURVE SMOOTH",
"85 100 OFFCURVE",
"162 -11 OFFCURVE",
"292 -11 CURVE",
"292 22 LINE"
);
},
{
closed = 1;
nodes = (
"224 682 LINE",
"343 671 OFFCURVE",
"462 586 OFFCURVE",
"462 328 CURVE SMOOTH",
"462 89 OFFCURVE",
"385 22 OFFCURVE",
"292 22 CURVE",
"292 -11 LINE",
"409 -11 OFFCURVE",
"497 75 OFFCURVE",
"497 328 CURVE SMOOTH",
"497 566 OFFCURVE",
"411 685 OFFCURVE",
"242 715 CURVE"
);
},
{
closed = 1;
nodes = (
"270 612 LINE",
"297 584 LINE",
"437 671 LINE",
"415 704 LINE"
);
}
);
width = 600;
}
);
unicode = 00F0;
},
{
glyphname = e;
lastChange = "2017-11-14 21:09:59 +0000";
layers = (
{
layerId = "558B6FE6-F456-45D2-AA56-B37F51D1E4E1";
paths = (
{
closed = 1;
nodes = (
"448 141 LINE",
"418 92 OFFCURVE",
"372 72 OFFCURVE",
"324 72 CURVE SMOOTH",
"251 72 OFFCURVE",
"192 112 OFFCURVE",
"192 251 CURVE SMOOTH",
"192 394 OFFCURVE",
"253 429 OFFCURVE",
"326 429 CURVE SMOOTH",
"400 429 OFFCURVE",
"434 388 OFFCURVE",
"443 306 CURVE",
"544 224 LINE",
"554 394 OFFCURVE",
"481 512 OFFCURVE",
"330 512 CURVE SMOOTH",
"213 512 OFFCURVE",
"94 446 OFFCURVE",
"94 251 CURVE SMOOTH",
"94 58 OFFCURVE",
"213 -11 OFFCURVE",
"327 -11 CURVE SMOOTH",
"402 -11 OFFCURVE",
"482 19 OFFCURVE",
"530 96 CURVE"
);
},
{
closed = 1;
nodes = (
"188 224 LINE",
"544 224 LINE",
"480 306 LINE",
"188 306 LINE"
);
}
);
width = 600;
},
{
layerId = "5521DC30-183F-421A-91F3-644B5E24AFE6";
paths = (
{
closed = 1;
nodes = (
"416 161 LINE",
"392 124 OFFCURVE",
"364 111 OFFCURVE",
"314 112 CURVE SMOOTH",
"248 113 OFFCURVE",
"222 154 OFFCURVE",
"222 241 CURVE SMOOTH",
"222 352 OFFCURVE",
"259 391 OFFCURVE",
"324 391 CURVE SMOOTH",
"384 391 OFFCURVE",
"414 353 OFFCURVE",
"415 301 CURVE",
"554 204 LINE",
"564 398 OFFCURVE",
"484 512 OFFCURVE",
"320 512 CURVE SMOOTH",
"170 512 OFFCURVE",
"74 415 OFFCURVE",
"74 251 CURVE SMOOTH",
"74 89 OFFCURVE",
"164 -11 OFFCURVE",
"317 -11 CURVE SMOOTH",
"413 -11 OFFCURVE",
"498 29 OFFCURVE",
"538 94 CURVE"
);
},
{
closed = 1;
nodes = (
"208 204 LINE",
"554 204 LINE",
"460 301 LINE",
"208 301 LINE"
);
}
);
width = 600;
},
{
layerId = "BE68D89F-AB3F-4BDF-B332-ED50D7C47704";
paths = (
{
closed = 1;
nodes = (
"485 111 LINE",
"466 77 OFFCURVE",
"420 22 OFFCURVE",
"327 22 CURVE SMOOTH",
"214 22 OFFCURVE",
"152 106 OFFCURVE",
"152 251 CURVE SMOOTH",
"152 408 OFFCURVE",
"235 479 OFFCURVE",
"328 479 CURVE SMOOTH",
"442 479 OFFCURVE",
"488 373 OFFCURVE",
"485 281 CURVE",
"524 249 LINE",
"534 389 OFFCURVE",
"470 512 OFFCURVE",
"330 512 CURVE SMOOTH",
"222 512 OFFCURVE",
"115 434 OFFCURVE",
"115 251 CURVE SMOOTH",
"115 70 OFFCURVE",
"208 -11 OFFCURVE",
"327 -11 CURVE SMOOTH",
"436 -11 OFFCURVE",
"497 56 OFFCURVE",
"520 92 CURVE"
);
},
{
closed = 1;
nodes = (
"148 249 LINE",
"524 249 LINE",
"490 281 LINE",
"148 281 LINE"
);
}
);
width = 600;
}
);
leftKerningGroup = o;
rightKerningGroup = e;
unicode = 0065;
},
{
glyphname = f;
lastChange = "2017-04-10 19:03:09 +0000";
layers = (
{
layerId = "558B6FE6-F456-45D2-AA56-B37F51D1E4E1";
paths = (
{
closed = 1;
nodes = (
"334 0 LINE",
"334 606 LINE",
"241 626 LINE",
"241 0 LINE"
);
},
{
closed = 1;
nodes = (
"123 418 LINE",
"515 418 LINE",
"515 500 LINE",
"123 500 LINE"
);
},
{
closed = 1;
nodes = (
"543 792 LINE",
"516 802 OFFCURVE",
"483 807 OFFCURVE",
"442 807 CURVE",
"326 807 OFFCURVE",
"241 744 OFFCURVE",
"241 626 CURVE",
"334 606 LINE",
"334 692 OFFCURVE",
"361 724 OFFCURVE",
"449 724 CURVE",
"478 724 OFFCURVE",
"499 721 OFFCURVE",
"515 715 CURVE"
);
}
);
width = 600;
},
{
layerId = "5521DC30-183F-421A-91F3-644B5E24AFE6";
paths = (
{
closed = 1;
nodes = (
"364 0 LINE",
"364 566 LINE",
"211 606 LINE",
"211 0 LINE"
);
},
{
closed = 1;
nodes = (
"113 378 LINE",
"525 378 LINE",
"525 500 LINE",
"113 500 LINE"
);
},
{
closed = 1;
nodes = (
"563 785 LINE",
"536 795 OFFCURVE",
"513 807 OFFCURVE",
"442 807 CURVE",
"306 807 OFFCURVE",
"211 744 OFFCURVE",
"211 606 CURVE",
"364 566 LINE",
"364 652 OFFCURVE",
"391 684 OFFCURVE",
"449 684 CURVE",
"478 684 OFFCURVE",
"499 681 OFFCURVE",
"515 675 CURVE"
);
}
);
width = 600;
},
{
layerId = "BE68D89F-AB3F-4BDF-B332-ED50D7C47704";
paths = (
{
closed = 1;
nodes = (
"304 0 LINE",
"304 606 LINE",
"271 626 LINE",
"271 0 LINE"
);
},
{
closed = 1;
nodes = (
"133 468 LINE",
"505 468 LINE",
"505 500 LINE",
"133 500 LINE"
);
},
{
closed = 1;
nodes = (
"525 798 LINE",
"501 804 OFFCURVE",
"474 807 OFFCURVE",
"442 807 CURVE",
"326 807 OFFCURVE",
"271 744 OFFCURVE",
"271 626 CURVE",
"304 606 LINE",
"304 742 OFFCURVE",
"361 774 OFFCURVE",
"449 774 CURVE",
"477 774 OFFCURVE",
"498 771 OFFCURVE",
"514 766 CURVE"
);
}
);
width = 600;
}
);
leftKerningGroup = f;
rightKerningGroup = f;
unicode = 0066;
},
{
glyphname = g;
lastChange = "2017-11-14 21:10:57 +0000";
layers = (
{
layerId = "558B6FE6-F456-45D2-AA56-B37F51D1E4E1";
paths = (
{
closed = 1;
nodes = (
"388 149 OFFCURVE",
"515 188 OFFCURVE",
"515 331 CURVE SMOOTH",
"515 473 OFFCURVE",
"407 512 OFFCURVE",
"301 512 CURVE SMOOTH",
"194 512 OFFCURVE",
"86 473 OFFCURVE",
"86 331 CURVE SMOOTH",
"86 188 OFFCURVE",
"194 149 OFFCURVE",
"301 149 CURVE SMOOTH"
);
},
{
closed = 1;
nodes = (
"218 231 OFFCURVE",
"184 257 OFFCURVE",
"184 331 CURVE SMOOTH",
"184 404 OFFCURVE",
"208 430 OFFCURVE",
"301 430 CURVE SMOOTH",
"393 430 OFFCURVE",
"417 414 OFFCURVE",
"417 331 CURVE SMOOTH",
"417 257 OFFCURVE",
"383 231 OFFCURVE",
"301 231 CURVE SMOOTH"
);
},
{
closed = 1;
nodes = (
"258 -1 LINE",
"268 81 LINE",
"244 81 LINE SMOOTH",
"162 81 OFFCURVE",
"205 142 OFFCURVE",
"228 170 CURVE",
"185 199 LINE",
"160 181 OFFCURVE",
"109 151 OFFCURVE",
"105 92 CURVE SMOOTH",
"101 37 OFFCURVE",
"149 -1 OFFCURVE",
"240 -1 CURVE SMOOTH"
);
},
{
closed = 1;
nodes = (
"75 -147 OFFCURVE",
"159 -192 OFFCURVE",
"307 -192 CURVE",
"307 -114 LINE",
"241 -114 OFFCURVE",
"202 -102 OFFCURVE",
"181 -77 CURVE SMOOTH",
"162 -54 OFFCURVE",
"175 -1 OFFCURVE",
"196 17 CURVE",
"145 45 LINE",
"120 27 OFFCURVE",
"75 -10 OFFCURVE",
"75 -69 CURVE SMOOTH"
);
},
{
closed = 1;
nodes = (
"544 37 OFFCURVE",
"493 81 OFFCURVE",
"409 81 CURVE",
"374 -1 LINE",
"445 -1 OFFCURVE",
"443 -32 OFFCURVE",
"437 -57 CURVE SMOOTH",
"428 -94 OFFCURVE",
"388 -114 OFFCURVE",
"307 -114 CURVE",
"307 -192 LINE",
"455 -192 OFFCURVE",
"526 -125 OFFCURVE",
"535 -43 CURVE SMOOTH"
);
},
{
closed = 1;
nodes = (
"409 81 LINE",
"409 81 OFFCURVE",
"408 81 OFFCURVE",
"408 81 CURVE SMOOTH",
"268 81 LINE",
"258 -1 LINE",
"374 -1 LINE"
);
},
{
closed = 1;
nodes = (
"417 441 LINE",
"474 384 LINE",
"571 481 LINE",
"513 536 LINE"
);
}
);
width = 600;
},
{
layerId = "5521DC30-183F-421A-91F3-644B5E24AFE6";
paths = (
{
closed = 1;
nodes = (
"417 149 OFFCURVE",
"535 188 OFFCURVE",
"535 331 CURVE SMOOTH",
"535 473 OFFCURVE",
"427 512 OFFCURVE",
"301 512 CURVE SMOOTH",
"174 512 OFFCURVE",
"66 473 OFFCURVE",
"66 331 CURVE SMOOTH",
"66 188 OFFCURVE",
"174 149 OFFCURVE",
"301 149 CURVE SMOOTH"
);
},
{
closed = 1;
nodes = (
"248 267 OFFCURVE",
"224 277 OFFCURVE",
"224 331 CURVE SMOOTH",
"224 384 OFFCURVE",
"248 394 OFFCURVE",
"301 394 CURVE SMOOTH",
"353 394 OFFCURVE",
"377 384 OFFCURVE",
"377 331 CURVE SMOOTH",
"377 277 OFFCURVE",
"353 267 OFFCURVE",
"301 267 CURVE SMOOTH"
);
},
{
closed = 1;
nodes = (
"278 -1 LINE",
"288 101 LINE",
"284 101 LINE SMOOTH",
"222 101 OFFCURVE",
"227 142 OFFCURVE",
"250 170 CURVE",
"175 199 LINE",
"150 181 OFFCURVE",
"85 161 OFFCURVE",
"85 92 CURVE SMOOTH",
"85 17 OFFCURVE",
"209 -1 OFFCURVE",
"270 -1 CURVE SMOOTH"
);
},
{
closed = 1;
nodes = (
"55 -167 OFFCURVE",
"169 -202 OFFCURVE",
"307 -202 CURVE",
"307 -96 LINE",
"248 -96 OFFCURVE",
"214 -85 OFFCURVE",
"200 -58 CURVE SMOOTH",
"187 -33 OFFCURVE",
"202 -1 OFFCURVE",
"223 17 CURVE",
"140 45 LINE",
"115 27 OFFCURVE",
"55 0 OFFCURVE",
"55 -69 CURVE SMOOTH"
);
},
{
closed = 1;
nodes = (
"566 45 OFFCURVE",
"520 101 OFFCURVE",
"396 101 CURVE",
"354 -1 LINE",
"405 -1 OFFCURVE",
"422 -21 OFFCURVE",
"414 -52 CURVE SMOOTH",
"405 -86 OFFCURVE",
"348 -96 OFFCURVE",
"307 -96 CURVE",
"307 -202 LINE",
"475 -202 OFFCURVE",
"544 -133 OFFCURVE",
"555 -43 CURVE SMOOTH"
);
},
{
closed = 1;
nodes = (
"396 101 LINE",
"396 101 OFFCURVE",
"395 101 OFFCURVE",
"395 101 CURVE SMOOTH",
"288 101 LINE",
"278 -1 LINE",
"354 -1 LINE"
);
},
{
closed = 1;
nodes = (
"364 401 LINE",
"447 319 LINE",
"588 459 LINE",
"504 539 LINE"
);
}
);
width = 600;
},
{
layerId = "BE68D89F-AB3F-4BDF-B332-ED50D7C47704";
paths = (
{
closed = 1;
nodes = (
"402 149 OFFCURVE",
"493 188 OFFCURVE",
"493 331 CURVE SMOOTH",
"493 473 OFFCURVE",
"407 512 OFFCURVE",
"301 512 CURVE SMOOTH",
"194 512 OFFCURVE",
"108 473 OFFCURVE",
"108 331 CURVE SMOOTH",
"108 188 OFFCURVE",
"200 149 OFFCURVE",
"301 149 CURVE SMOOTH"
);
},
{
closed = 1;
nodes = (
"208 182 OFFCURVE",
"144 217 OFFCURVE",
"144 331 CURVE SMOOTH",
"144 444 OFFCURVE",
"198 480 OFFCURVE",
"301 480 CURVE SMOOTH",
"403 480 OFFCURVE",
"457 444 OFFCURVE",
"457 331 CURVE SMOOTH",
"457 217 OFFCURVE",
"393 182 OFFCURVE",
"301 182 CURVE SMOOTH"
);
},
{
closed = 1;
nodes = (
"228 -1 LINE",
"238 31 LINE",
"201 32 LINE SMOOTH",
"128 34 OFFCURVE",
"168 155 OFFCURVE",
"228 182 CURVE",
"197 195 LINE",
"172 177 OFFCURVE",
"131 140 OFFCURVE",
"125 92 CURVE SMOOTH",
"118 37 OFFCURVE",
"146 -1 OFFCURVE",
"210 -1 CURVE SMOOTH"
);
},
{
closed = 1;
nodes = (
"95 -136 OFFCURVE",
"159 -182 OFFCURVE",
"307 -182 CURVE",
"307 -150 LINE",
"186 -150 OFFCURVE",
"132 -117 OFFCURVE",
"131 -65 CURVE SMOOTH",
"130 -13 OFFCURVE",
"173 16 OFFCURVE",
"192 26 CURVE",
"169 41 LINE",
"152 33 OFFCURVE",
"95 -1 OFFCURVE",
"95 -63 CURVE SMOOTH"
);
},
{
closed = 1;
nodes = (
"514 -16 OFFCURVE",
"490 31 OFFCURVE",
"399 31 CURVE",
"382 -1 LINE",
"471 -1 OFFCURVE",
"476 -35 OFFCURVE",
"470 -67 CURVE SMOOTH",
"464 -101 OFFCURVE",
"428 -150 OFFCURVE",
"307 -150 CURVE",
"307 -182 LINE",
"458 -182 OFFCURVE",
"502 -109 OFFCURVE",
"508 -63 CURVE SMOOTH"
);
},
{
closed = 1;
nodes = (
"399 31 LINE",
"399 31 OFFCURVE",
"398 31 OFFCURVE",
"398 31 CURVE SMOOTH",
"238 31 LINE",
"228 -1 LINE",
"382 -1 LINE"
);
},
{
closed = 1;
nodes = (
"436 449 LINE",
"458 425 LINE",
"544 510 LINE",
"521 533 LINE"
);
}
);
width = 600;
}
);
unicode = 0067;
},
{
glyphname = g.ss01;
lastChange = "2017-02-10 01:17:59 +0000";
layers = (
{
layerId = "558B6FE6-F456-45D2-AA56-B37F51D1E4E1";
paths = (
{
closed = 1;
nodes = (
"556 503 LINE",
"488 503 OFFCURVE",
"425 447 OFFCURVE",
"439 367 CURVE",
"514 351 LINE",
"510 409 OFFCURVE",
"552 412 OFFCURVE",
"581 413 CURVE"
);
},
{
closed = 1;
nodes = (
"397 149 OFFCURVE",
"515 188 OFFCURVE",
"515 331 CURVE SMOOTH",
"515 473 OFFCURVE",
"407 512 OFFCURVE",
"301 512 CURVE SMOOTH",
"194 512 OFFCURVE",
"86 473 OFFCURVE",
"86 331 CURVE SMOOTH",
"86 188 OFFCURVE",
"194 149 OFFCURVE",
"301 149 CURVE SMOOTH"
);
},
{
closed = 1;
nodes = (
"218 231 OFFCURVE",
"184 257 OFFCURVE",
"184 331 CURVE SMOOTH",
"184 404 OFFCURVE",
"208 430 OFFCURVE",
"301 430 CURVE SMOOTH",
"393 430 OFFCURVE",
"417 414 OFFCURVE",
"417 331 CURVE SMOOTH",
"417 257 OFFCURVE",
"383 231 OFFCURVE",
"301 231 CURVE SMOOTH"
);
},
{
closed = 1;
nodes = (
"278 -1 LINE",
"288 81 LINE",
"264 81 LINE SMOOTH",
"182 81 OFFCURVE",
"205 142 OFFCURVE",
"228 170 CURVE",
"185 199 LINE",
"160 181 OFFCURVE",
"105 151 OFFCURVE",
"105 92 CURVE SMOOTH",
"105 37 OFFCURVE",
"169 -1 OFFCURVE",
"260 -1 CURVE SMOOTH"
);
},
{
closed = 1;
nodes = (
"75 -147 OFFCURVE",
"159 -192 OFFCURVE",
"307 -192 CURVE",
"307 -114 LINE",
"241 -114 OFFCURVE",
"202 -102 OFFCURVE",
"181 -77 CURVE SMOOTH",
"162 -54 OFFCURVE",
"175 -1 OFFCURVE",
"196 17 CURVE",
"145 45 LINE",
"120 27 OFFCURVE",
"75 -10 OFFCURVE",
"75 -69 CURVE SMOOTH"
);
},
{
closed = 1;
nodes = (
"536 46 OFFCURVE",
"460 81 OFFCURVE",
"356 81 CURVE",
"324 -1 LINE",
"435 -1 OFFCURVE",
"448 -22 OFFCURVE",
"442 -57 CURVE SMOOTH",
"436 -95 OFFCURVE",
"388 -114 OFFCURVE",
"307 -114 CURVE",
"307 -192 LINE",
"455 -192 OFFCURVE",
"534 -141 OFFCURVE",
"535 -43 CURVE SMOOTH"
);
},
{
closed = 1;
nodes = (
"356 81 LINE",
"356 81 OFFCURVE",
"355 81 OFFCURVE",
"355 81 CURVE SMOOTH",
"288 81 LINE",
"278 -1 LINE",
"324 -1 LINE"
);
}
);
width = 600;
},
{
layerId = "5521DC30-183F-421A-91F3-644B5E24AFE6";
paths = (
{
closed = 1;
nodes = (
"586 503 LINE",
"518 503 OFFCURVE",
"435 467 OFFCURVE",
"449 367 CURVE",
"545 331 LINE",
"541 389 OFFCURVE",
"592 394 OFFCURVE",
"611 393 CURVE"
);
},
{
closed = 1;
nodes = (
"427 149 OFFCURVE",
"545 188 OFFCURVE",
"545 331 CURVE SMOOTH",
"545 473 OFFCURVE",
"437 512 OFFCURVE",
"301 512 CURVE SMOOTH",
"164 512 OFFCURVE",
"56 473 OFFCURVE",
"56 331 CURVE SMOOTH",
"56 188 OFFCURVE",
"164 149 OFFCURVE",
"301 149 CURVE SMOOTH"
);
},
{
closed = 1;
nodes = (
"238 271 OFFCURVE",
"214 287 OFFCURVE",
"214 331 CURVE SMOOTH",
"214 374 OFFCURVE",
"238 390 OFFCURVE",
"301 390 CURVE SMOOTH",
"363 390 OFFCURVE",
"387 374 OFFCURVE",
"387 331 CURVE SMOOTH",
"387 287 OFFCURVE",
"363 271 OFFCURVE",
"301 271 CURVE SMOOTH"
);
},
{
closed = 1;
nodes = (
"268 -1 LINE",
"288 101 LINE",
"284 101 LINE SMOOTH",
"212 101 OFFCURVE",
"225 142 OFFCURVE",
"248 170 CURVE",
"155 199 LINE",
"130 181 OFFCURVE",
"75 161 OFFCURVE",
"75 92 CURVE SMOOTH",
"75 17 OFFCURVE",
"199 -1 OFFCURVE",
"260 -1 CURVE SMOOTH"
);
},
{
closed = 1;
nodes = (
"45 -167 OFFCURVE",
"159 -202 OFFCURVE",
"307 -202 CURVE",
"307 -84 LINE",
"241 -84 OFFCURVE",
"205 -79 OFFCURVE",
"197 -52 CURVE SMOOTH",
"189 -25 OFFCURVE",
"205 -1 OFFCURVE",
"226 17 CURVE",
"115 45 LINE",
"90 27 OFFCURVE",
"45 0 OFFCURVE",
"45 -69 CURVE SMOOTH"
);
},
{
closed = 1;
nodes = (
"576 45 OFFCURVE",
"530 101 OFFCURVE",
"406 101 CURVE",
"364 -1 LINE",
"415 -1 OFFCURVE",
"423 -14 OFFCURVE",
"416 -47 CURVE SMOOTH",
"409 -81 OFFCURVE",
"358 -84 OFFCURVE",
"307 -84 CURVE",
"307 -202 LINE",
"485 -202 OFFCURVE",
"554 -133 OFFCURVE",
"565 -43 CURVE SMOOTH"
);
},
{
closed = 1;
nodes = (
"406 101 LINE",
"406 101 OFFCURVE",
"405 101 OFFCURVE",
"405 101 CURVE SMOOTH",
"288 101 LINE",
"268 -1 LINE",
"364 -1 LINE"
);
}
);
width = 600;
},
{
layerId = "BE68D89F-AB3F-4BDF-B332-ED50D7C47704";
paths = (
{
closed = 1;
nodes = (
"550 503 LINE",
"512 503 OFFCURVE",
"448 460 OFFCURVE",
"462 360 CURVE",
"492 351 LINE",
"488 449 OFFCURVE",
"530 470 OFFCURVE",
"559 471 CURVE"
);
},
{
closed = 1;
nodes = (
"402 149 OFFCURVE",
"493 188 OFFCURVE",
"493 331 CURVE SMOOTH",
"493 473 OFFCURVE",
"407 512 OFFCURVE",
"301 512 CURVE SMOOTH",
"194 512 OFFCURVE",
"108 473 OFFCURVE",
"108 331 CURVE SMOOTH",
"108 188 OFFCURVE",
"200 149 OFFCURVE",
"301 149 CURVE SMOOTH"
);
},
{
closed = 1;
nodes = (
"208 182 OFFCURVE",
"144 217 OFFCURVE",
"144 331 CURVE SMOOTH",
"144 444 OFFCURVE",
"198 480 OFFCURVE",
"301 480 CURVE SMOOTH",
"403 480 OFFCURVE",
"457 444 OFFCURVE",
"457 331 CURVE SMOOTH",
"457 217 OFFCURVE",
"393 182 OFFCURVE",
"301 182 CURVE SMOOTH"
);
},
{
closed = 1;
nodes = (
"228 -1 LINE",
"238 31 LINE",
"201 32 LINE SMOOTH",
"128 34 OFFCURVE",
"168 155 OFFCURVE",
"228 182 CURVE",
"197 195 LINE",
"172 177 OFFCURVE",
"131 140 OFFCURVE",
"125 92 CURVE SMOOTH",
"118 37 OFFCURVE",
"146 -1 OFFCURVE",
"210 -1 CURVE SMOOTH"
);
},
{
closed = 1;
nodes = (
"95 -136 OFFCURVE",
"159 -182 OFFCURVE",
"307 -182 CURVE",
"307 -150 LINE",
"186 -150 OFFCURVE",
"132 -117 OFFCURVE",
"131 -65 CURVE SMOOTH",
"130 -13 OFFCURVE",
"173 16 OFFCURVE",
"192 26 CURVE",
"169 41 LINE",
"152 33 OFFCURVE",
"95 -1 OFFCURVE",
"95 -63 CURVE SMOOTH"
);
},
{
closed = 1;
nodes = (
"514 -16 OFFCURVE",
"490 31 OFFCURVE",
"399 31 CURVE",
"382 -1 LINE",
"471 -1 OFFCURVE",
"476 -35 OFFCURVE",
"470 -67 CURVE SMOOTH",
"464 -101 OFFCURVE",
"428 -150 OFFCURVE",
"307 -150 CURVE",
"307 -182 LINE",
"458 -182 OFFCURVE",
"502 -109 OFFCURVE",
"508 -63 CURVE SMOOTH"
);
},
{
closed = 1;
nodes = (
"399 31 LINE",
"399 31 OFFCURVE",
"398 31 OFFCURVE",
"398 31 CURVE SMOOTH",
"238 31 LINE",
"228 -1 LINE",
"382 -1 LINE"
);
}
);
width = 600;
}
);
leftKerningGroup = g;
rightKerningGroup = g;
},
{
glyphname = h;
lastChange = "2017-02-09 02:34:54 +0000";
layers = (
{
layerId = "558B6FE6-F456-45D2-AA56-B37F51D1E4E1";
paths = (
{
closed = 1;
nodes = (
"168 0 LINE",
"168 800 LINE",
"75 800 LINE",
"75 0 LINE"
);
},
{
closed = 1;
nodes = (
"166 332 LINE",
"179 365 OFFCURVE",
"225 428 OFFCURVE",
"317 428 CURVE SMOOTH",
"409 428 OFFCURVE",
"419 371 OFFCURVE",
"419 252 CURVE SMOOTH",
"419 0 LINE",
"512 0 LINE",
"512 282 LINE SMOOTH",
"512 445 OFFCURVE",
"453 511 OFFCURVE",
"337 511 CURVE SMOOTH",
"200 511 OFFCURVE",
"123 424 OFFCURVE",
"123 312 CURVE"
);
}
);
width = 600;
},
{
layerId = "5521DC30-183F-421A-91F3-644B5E24AFE6";
paths = (
{
closed = 1;
nodes = (
"208 0 LINE",
"208 800 LINE",
"55 800 LINE",
"55 0 LINE"
);
},
{
closed = 1;
nodes = (
"198 302 LINE",
"201 316 OFFCURVE",
"241 388 OFFCURVE",
"303 388 CURVE SMOOTH",
"365 388 OFFCURVE",
"379 331 OFFCURVE",
"379 232 CURVE SMOOTH",
"379 0 LINE",
"532 0 LINE",
"532 302 LINE SMOOTH",
"532 465 OFFCURVE",
"465 511 OFFCURVE",
"349 511 CURVE SMOOTH",
"232 511 OFFCURVE",
"133 434 OFFCURVE",
"133 322 CURVE"
);
}
);
width = 600;
},
{
layerId = "BE68D89F-AB3F-4BDF-B332-ED50D7C47704";
paths = (
{
closed = 1;
nodes = (
"148 0 LINE",
"148 800 LINE",
"115 800 LINE",
"115 0 LINE"
);
},
{
closed = 1;
nodes = (
"148 312 LINE",
"152 408 OFFCURVE",
"243 479 OFFCURVE",
"333 479 CURVE SMOOTH",
"431 479 OFFCURVE",
"451 419 OFFCURVE",
"451 282 CURVE SMOOTH",
"451 0 LINE",
"484 0 LINE",
"484 292 LINE SMOOTH",
"484 455 OFFCURVE",
"448 512 OFFCURVE",
"337 512 CURVE SMOOTH",
"207 512 OFFCURVE",
"118 413 OFFCURVE",
"117 312 CURVE"
);
}
);
width = 600;
}
);
leftKerningGroup = h;
rightKerningGroup = n;
unicode = 0068;
},
{
glyphname = i;
lastChange = "2017-11-15 01:17:12 +0000";
layers = (
{
layerId = "558B6FE6-F456-45D2-AA56-B37F51D1E4E1";
paths = (
{
closed = 1;
nodes = (
"91 418 LINE",
"264 418 LINE",
"264 500 LINE",
"91 500 LINE"
);
},
{
closed = 1;
nodes = (
"352 56 LINE",
"352 500 LINE",
"259 500 LINE",
"259 31 LINE"
);
},
{
closed = 1;
nodes = (
"259 0 LINE",
"491 0 LINE",
"491 82 LINE",
"259 82 LINE"
);
},
{
closed = 1;
nodes = (
"347 620 OFFCURVE",
"381 654 OFFCURVE",
"381 698 CURVE SMOOTH",
"381 742 OFFCURVE",
"347 776 OFFCURVE",
"303 776 CURVE SMOOTH",
"259 776 OFFCURVE",
"225 742 OFFCURVE",
"225 698 CURVE SMOOTH",
"225 654 OFFCURVE",
"259 620 OFFCURVE",
"303 620 CURVE SMOOTH"
);
}
);
width = 600;
},
{
layerId = "5521DC30-183F-421A-91F3-644B5E24AFE6";
paths = (
{
closed = 1;
nodes = (
"76 378 LINE",
"244 378 LINE",
"244 500 LINE",
"76 500 LINE"
);
},
{
closed = 1;
nodes = (
"392 56 LINE",
"392 500 LINE",
"239 500 LINE",
"239 31 LINE"
);
},
{
closed = 1;
nodes = (
"239 0 LINE",
"521 0 LINE",
"521 122 LINE",
"239 122 LINE"
);
},
{
closed = 1;
nodes = (
"377 587 OFFCURVE",
"426 636 OFFCURVE",
"426 698 CURVE SMOOTH",
"426 760 OFFCURVE",
"377 809 OFFCURVE",
"315 809 CURVE SMOOTH",
"253 809 OFFCURVE",
"204 760 OFFCURVE",
"204 698 CURVE SMOOTH",
"204 636 OFFCURVE",
"253 587 OFFCURVE",
"315 587 CURVE SMOOTH"
);
}
);
width = 600;
},
{
layerId = "BE68D89F-AB3F-4BDF-B332-ED50D7C47704";
paths = (
{
closed = 1;
nodes = (
"85 468 LINE",
"284 468 LINE",
"284 500 LINE",
"85 500 LINE"
);
},
{
closed = 1;
nodes = (
"312 26 LINE",
"312 500 LINE",
"279 500 LINE",
"279 1 LINE"
);
},
{
closed = 1;
nodes = (
"279 0 LINE",
"481 0 LINE",
"481 32 LINE",
"279 32 LINE"
);
},
{
closed = 1;
nodes = (
"319 653 OFFCURVE",
"339 673 OFFCURVE",
"339 698 CURVE SMOOTH",
"339 723 OFFCURVE",
"319 743 OFFCURVE",
"294 743 CURVE SMOOTH",
"269 743 OFFCURVE",
"249 723 OFFCURVE",
"249 698 CURVE SMOOTH",
"249 673 OFFCURVE",
"269 653 OFFCURVE",
"294 653 CURVE SMOOTH"
);
}
);
width = 600;
}
);
leftKerningGroup = i;
rightKerningGroup = i;
unicode = 0069;
},
{
glyphname = i.ss01;
lastChange = "2017-02-10 01:20:52 +0000";
layers = (
{
layerId = "558B6FE6-F456-45D2-AA56-B37F51D1E4E1";
paths = (
{
closed = 1;
nodes = (
"455 -11 OFFCURVE",
"484 -1 OFFCURVE",
"492 0 CURVE",
"492 78 LINE",
"481 76 OFFCURVE",
"438 66 OFFCURVE",
"407 66 CURVE",
"375 66 OFFCURVE",
"350 79 OFFCURVE",
"350 142 CURVE",
"257 122 LINE",
"257 19 OFFCURVE",
"321 -11 OFFCURVE",
"388 -11 CURVE"
);
},
{
closed = 1;
nodes = (
"350 142 LINE",
"350 500 LINE",
"257 500 LINE",
"257 122 LINE"
);
},
{
closed = 1;
nodes = (
"262 418 LINE",
"262 500 LINE",
"119 500 LINE",
"119 418 LINE"
);
},
{
closed = 1;
nodes = (
"335 629 OFFCURVE",
"365 659 OFFCURVE",
"365 698 CURVE SMOOTH",
"365 737 OFFCURVE",
"335 767 OFFCURVE",
"296 767 CURVE SMOOTH",
"257 767 OFFCURVE",
"227 737 OFFCURVE",
"227 698 CURVE SMOOTH",
"227 659 OFFCURVE",
"257 629 OFFCURVE",
"296 629 CURVE SMOOTH"
);
}
);
width = 600;
},
{
layerId = "5521DC30-183F-421A-91F3-644B5E24AFE6";
paths = (
{
closed = 1;
nodes = (
"472 -11 OFFCURVE",
"526 -1 OFFCURVE",
"534 0 CURVE",
"534 123 LINE",
"529 121 OFFCURVE",
"469 106 OFFCURVE",
"430 106 CURVE",
"403 106 OFFCURVE",
"382 109 OFFCURVE",
"382 172 CURVE",
"229 122 LINE",
"229 9 OFFCURVE",
"313 -11 OFFCURVE",
"405 -11 CURVE"
);
},
{
closed = 1;
nodes = (
"382 172 LINE",
"382 500 LINE",
"229 500 LINE",
"229 122 LINE"
);
},
{
closed = 1;
nodes = (
"234 378 LINE",
"234 500 LINE",
"101 500 LINE",
"101 378 LINE"
);
},
{
closed = 1;
nodes = (
"356 605 OFFCURVE",
"397 646 OFFCURVE",
"397 698 CURVE SMOOTH",
"397 750 OFFCURVE",
"356 791 OFFCURVE",
"304 791 CURVE SMOOTH",
"252 791 OFFCURVE",
"211 750 OFFCURVE",
"211 698 CURVE SMOOTH",
"211 646 OFFCURVE",
"252 605 OFFCURVE",
"304 605 CURVE SMOOTH"
);
}
);
width = 600;
},
{
layerId = "BE68D89F-AB3F-4BDF-B332-ED50D7C47704";
paths = (
{
closed = 1;
nodes = (
"429 -11 OFFCURVE",
"478 -1 OFFCURVE",
"484 0 CURVE",
"484 32 LINE",
"479 31 OFFCURVE",
"428 20 OFFCURVE",
"384 20 CURVE",
"340 20 OFFCURVE",
"302 30 OFFCURVE",
"302 123 CURVE",
"269 117 LINE",
"269 14 OFFCURVE",
"313 -11 OFFCURVE",
"375 -11 CURVE"
);
},
{
closed = 1;
nodes = (
"302 123 LINE",
"302 500 LINE",
"269 500 LINE",
"269 117 LINE"
);
},
{
closed = 1;
nodes = (
"274 468 LINE",
"274 500 LINE",
"111 500 LINE",
"111 468 LINE"
);
},
{
closed = 1;
nodes = (
"309 653 OFFCURVE",
"329 673 OFFCURVE",
"329 698 CURVE SMOOTH",
"329 723 OFFCURVE",
"309 743 OFFCURVE",
"284 743 CURVE SMOOTH",
"259 743 OFFCURVE",
"239 723 OFFCURVE",
"239 698 CURVE SMOOTH",
"239 673 OFFCURVE",
"259 653 OFFCURVE",
"284 653 CURVE SMOOTH"
);
}
);
width = 600;
}
);
},
{
glyphname = idotless;
lastChange = "2017-02-10 00:53:20 +0000";
layers = (
{
layerId = "558B6FE6-F456-45D2-AA56-B37F51D1E4E1";
paths = (
{
closed = 1;
nodes = (
"111 418 LINE",
"254 418 LINE",
"254 500 LINE",
"111 500 LINE"
);
},
{
closed = 1;
nodes = (
"342 56 LINE",
"342 500 LINE",
"249 500 LINE",
"249 31 LINE"
);
},
{
closed = 1;
nodes = (
"249 0 LINE",
"471 0 LINE",
"471 82 LINE",
"249 82 LINE"
);
}
);
width = 600;
},
{
layerId = "5521DC30-183F-421A-91F3-644B5E24AFE6";
paths = (
{
closed = 1;
nodes = (
"109 378 LINE",
"242 378 LINE",
"242 500 LINE",
"109 500 LINE"
);
},
{
closed = 1;
nodes = (
"390 56 LINE",
"390 500 LINE",
"237 500 LINE",
"237 31 LINE"
);
},
{
closed = 1;
nodes = (
"237 0 LINE",
"509 0 LINE",
"509 122 LINE",
"237 122 LINE"
);
}
);
width = 600;
},
{
layerId = "BE68D89F-AB3F-4BDF-B332-ED50D7C47704";
paths = (
{
closed = 1;
nodes = (
"111 468 LINE",
"274 468 LINE",
"274 500 LINE",
"111 500 LINE"
);
},
{
closed = 1;
nodes = (
"302 26 LINE",
"302 500 LINE",
"269 500 LINE",
"269 1 LINE"
);
},
{
closed = 1;
nodes = (
"269 0 LINE",
"451 0 LINE",
"451 32 LINE",
"269 32 LINE"
);
}
);
width = 600;
}
);
unicode = 0131;
},
{
glyphname = j;
lastChange = "2017-11-15 01:16:47 +0000";
layers = (
{
layerId = "558B6FE6-F456-45D2-AA56-B37F51D1E4E1";
paths = (
{
closed = 1;
nodes = (
"337 500 LINE",
"337 8 LINE",
"430 -12 LINE",
"430 500 LINE"
);
},
{
closed = 1;
nodes = (
"145 -183 LINE",
"169 -189 OFFCURVE",
"197 -192 OFFCURVE",
"229 -192 CURVE",
"345 -192 OFFCURVE",
"430 -130 OFFCURVE",
"430 -12 CURVE",
"337 8 LINE",
"337 -78 OFFCURVE",
"310 -109 OFFCURVE",
"222 -109 CURVE",
"201 -109 OFFCURVE",
"182 -106 OFFCURVE",
"166 -100 CURVE"
);
},
{
closed = 1;
nodes = (
"159 418 LINE",
"409 418 LINE",
"409 500 LINE",
"159 500 LINE"
);
},
{
closed = 1;
nodes = (
"423 620 OFFCURVE",
"457 654 OFFCURVE",
"457 698 CURVE SMOOTH",
"457 742 OFFCURVE",
"423 776 OFFCURVE",
"379 776 CURVE SMOOTH",
"335 776 OFFCURVE",
"301 742 OFFCURVE",
"301 698 CURVE SMOOTH",
"301 654 OFFCURVE",
"335 620 OFFCURVE",
"379 620 CURVE SMOOTH"
);
}
);
width = 600;
},
{
layerId = "5521DC30-183F-421A-91F3-644B5E24AFE6";
paths = (
{
closed = 1;
nodes = (
"307 500 LINE",
"307 18 LINE",
"460 -12 LINE",
"460 500 LINE"
);
},
{
closed = 1;
nodes = (
"122 -178 LINE",
"146 -184 OFFCURVE",
"177 -192 OFFCURVE",
"229 -192 CURVE",
"385 -192 OFFCURVE",
"460 -130 OFFCURVE",
"460 -12 CURVE",
"307 18 LINE",
"307 -38 OFFCURVE",
"280 -69 OFFCURVE",
"222 -69 CURVE",
"201 -69 OFFCURVE",
"171 -64 OFFCURVE",
"155 -58 CURVE"
);
},
{
closed = 1;
nodes = (
"159 378 LINE",
"409 378 LINE",
"409 500 LINE",
"159 500 LINE"
);
},
{
closed = 1;
nodes = (
"440 587 OFFCURVE",
"489 636 OFFCURVE",
"489 698 CURVE SMOOTH",
"489 760 OFFCURVE",
"440 809 OFFCURVE",
"378 809 CURVE SMOOTH",
"316 809 OFFCURVE",
"267 760 OFFCURVE",
"267 698 CURVE SMOOTH",
"267 636 OFFCURVE",
"316 587 OFFCURVE",
"378 587 CURVE SMOOTH"
);
}
);
width = 600;
},
{
layerId = "BE68D89F-AB3F-4BDF-B332-ED50D7C47704";
paths = (
{
closed = 1;
nodes = (
"367 500 LINE",
"367 8 LINE",
"400 -12 LINE",
"400 500 LINE"
);
},
{
closed = 1;
nodes = (
"157 -186 LINE",
"178 -190 OFFCURVE",
"202 -192 OFFCURVE",
"229 -192 CURVE",
"315 -192 OFFCURVE",
"400 -130 OFFCURVE",
"400 -12 CURVE",
"367 8 LINE",
"367 -78 OFFCURVE",
"330 -159 OFFCURVE",
"222 -159 CURVE",
"201 -159 OFFCURVE",
"181 -156 OFFCURVE",
"166 -152 CURVE"
);
},
{
closed = 1;
nodes = (
"159 468 LINE",
"379 468 LINE",
"379 500 LINE",
"159 500 LINE"
);
},
{
closed = 1;
nodes = (
"404 653 OFFCURVE",
"424 673 OFFCURVE",
"424 698 CURVE SMOOTH",
"424 723 OFFCURVE",
"404 743 OFFCURVE",
"379 743 CURVE SMOOTH",
"354 743 OFFCURVE",
"334 724 OFFCURVE",
"334 698 CURVE SMOOTH",
"334 673 OFFCURVE",
"354 653 OFFCURVE",
"379 653 CURVE SMOOTH"
);
}
);
width = 600;
}
);
leftKerningGroup = j;
rightKerningGroup = j;
unicode = 006A;
},
{
glyphname = k;
lastChange = "2017-02-10 01:36:23 +0000";
layers = (
{
layerId = "558B6FE6-F456-45D2-AA56-B37F51D1E4E1";
paths = (
{
closed = 1;
nodes = (
"205 0 LINE",
"205 800 LINE",
"112 800 LINE",
"112 0 LINE"
);
},
{
closed = 1;
nodes = (
"174 218 LINE",
"296 218 LINE",
"296 300 LINE",
"174 300 LINE"
);
},
{
closed = 1;
nodes = (
"212 279 LINE",
"297 246 LINE",
"531 500 LINE",
"418 500 LINE"
);
},
{
closed = 1;
nodes = (
"548 0 LINE",
"297 279 LINE",
"185 279 LINE",
"435 0 LINE"
);
}
);
width = 600;
},
{
layerId = "5521DC30-183F-421A-91F3-644B5E24AFE6";
paths = (
{
closed = 1;
nodes = (
"215 0 LINE",
"215 800 LINE",
"62 800 LINE",
"62 0 LINE"
);
},
{
closed = 1;
nodes = (
"174 198 LINE",
"296 198 LINE",
"296 320 LINE",
"174 320 LINE"
);
},
{
closed = 1;
nodes = (
"202 279 LINE",
"344 246 LINE",
"581 500 LINE",
"400 500 LINE"
);
},
{
closed = 1;
nodes = (
"598 0 LINE",
"344 279 LINE",
"175 279 LINE",
"417 0 LINE"
);
}
);
width = 600;
},
{
layerId = "BE68D89F-AB3F-4BDF-B332-ED50D7C47704";
paths = (
{
closed = 1;
nodes = (
"185 0 LINE",
"185 800 LINE",
"152 800 LINE",
"152 0 LINE"
);
},
{
closed = 1;
nodes = (
"174 243 LINE",
"266 243 LINE",
"266 275 LINE",
"174 275 LINE"
);
},
{
closed = 1;
nodes = (
"245 268 LINE",
"270 246 LINE",
"504 500 LINE",
"461 500 LINE"
);
},
{
closed = 1;
nodes = (
"519 0 LINE",
"276 270 LINE",
"233 270 LINE",
"475 0 LINE"
);
}
);
width = 600;
}
);
leftKerningGroup = h;
rightKerningGroup = k;
unicode = 006B;
},
{
glyphname = l;
lastChange = "2017-04-10 19:51:29 +0000";
layers = (
{
layerId = "558B6FE6-F456-45D2-AA56-B37F51D1E4E1";
paths = (
{
closed = 1;
nodes = (
"338 142 LINE",
"338 800 LINE",
"245 800 LINE",
"245 122 LINE"
);
},
{
closed = 1;
nodes = (
"458 -11 OFFCURVE",
"502 -1 OFFCURVE",
"510 0 CURVE",
"510 78 LINE",
"499 76 OFFCURVE",
"441 66 OFFCURVE",
"410 66 CURVE",
"383 66 OFFCURVE",
"338 69 OFFCURVE",
"338 142 CURVE",
"245 122 LINE",
"245 9 OFFCURVE",
"329 -11 OFFCURVE",
"391 -11 CURVE"
);
},
{
closed = 1;
nodes = (
"250 718 LINE",
"250 800 LINE",
"88 800 LINE",
"88 718 LINE"
);
}
);
width = 600;
},
{
layerId = "5521DC30-183F-421A-91F3-644B5E24AFE6";
paths = (
{
closed = 1;
nodes = (
"383 172 LINE",
"383 800 LINE",
"230 800 LINE",
"230 122 LINE"
);
},
{
closed = 1;
nodes = (
"480 -11 OFFCURVE",
"540 0 OFFCURVE",
"542 0 CURVE",
"542 123 LINE",
"537 121 OFFCURVE",
"477 106 OFFCURVE",
"431 106 CURVE",
"404 106 OFFCURVE",
"383 117 OFFCURVE",
"383 172 CURVE",
"230 122 LINE",
"230 9 OFFCURVE",
"314 -11 OFFCURVE",
"406 -11 CURVE"
);
},
{
closed = 1;
nodes = (
"235 678 LINE",
"235 800 LINE",
"88 800 LINE",
"88 678 LINE"
);
}
);
width = 600;
},
{
layerId = "BE68D89F-AB3F-4BDF-B332-ED50D7C47704";
paths = (
{
closed = 1;
nodes = (
"293 123 LINE",
"293 800 LINE",
"260 800 LINE",
"260 117 LINE"
);
},
{
closed = 1;
nodes = (
"430 -11 OFFCURVE",
"479 -1 OFFCURVE",
"485 0 CURVE",
"485 32 LINE",
"480 31 OFFCURVE",
"429 20 OFFCURVE",
"385 20 CURVE",
"341 20 OFFCURVE",
"293 30 OFFCURVE",
"293 123 CURVE",
"260 117 LINE",
"260 14 OFFCURVE",
"314 -11 OFFCURVE",
"376 -11 CURVE"
);
},
{
closed = 1;
nodes = (
"265 768 LINE",
"265 800 LINE",
"98 800 LINE",
"98 768 LINE"
);
}
);
width = 600;
}
);
leftKerningGroup = h;
rightKerningGroup = l;
unicode = 006C;
},
{
glyphname = l.ss01;
lastChange = "2017-02-14 00:54:55 +0000";
layers = (
{
layerId = "558B6FE6-F456-45D2-AA56-B37F51D1E4E1";
paths = (
{
closed = 1;
nodes = (
"333 71 LINE",
"333 800 LINE",
"240 800 LINE",
"240 51 LINE"
);
},
{
closed = 1;
nodes = (
"467 0 LINE",
"467 82 LINE",
"240 82 LINE",
"240 0 LINE"
);
},
{
closed = 1;
nodes = (
"245 718 LINE",
"245 800 LINE",
"98 800 LINE",
"98 718 LINE"
);
}
);
width = 600;
},
{
layerId = "5521DC30-183F-421A-91F3-644B5E24AFE6";
paths = (
{
closed = 1;
nodes = (
"366 56 LINE",
"366 800 LINE",
"213 800 LINE",
"213 31 LINE"
);
},
{
closed = 1;
nodes = (
"485 0 LINE",
"485 122 LINE",
"213 122 LINE",
"213 0 LINE"
);
},
{
closed = 1;
nodes = (
"218 678 LINE",
"218 800 LINE",
"85 800 LINE",
"85 678 LINE"
);
}
);
width = 600;
},
{
layerId = "BE68D89F-AB3F-4BDF-B332-ED50D7C47704";
paths = (
{
closed = 1;
nodes = (
"273 29 LINE",
"273 800 LINE",
"240 800 LINE",
"240 23 LINE"
);
},
{
closed = 1;
nodes = (
"457 0 LINE",
"457 32 LINE",
"240 32 LINE",
"240 0 LINE"
);
},
{
closed = 1;
nodes = (
"245 768 LINE",
"245 800 LINE",
"88 800 LINE",
"88 768 LINE"
);
}
);
width = 600;
}
);
},
{
glyphname = lslash;
lastChange = "2017-02-12 19:56:50 +0000";
layers = (
{
components = (
{
name = l;
}
);
layerId = "558B6FE6-F456-45D2-AA56-B37F51D1E4E1";
paths = (
{
closed = 1;
nodes = (
"157 173 LINE",
"393 409 LINE",
"393 500 LINE",
"157 263 LINE"
);
}
);
width = 600;
},
{
components = (
{
name = l;
}
);
layerId = "5521DC30-183F-421A-91F3-644B5E24AFE6";
paths = (
{
closed = 1;
nodes = (
"137 133 LINE",
"449 445 LINE",
"449 576 LINE",
"137 263 LINE"
);
}
);
width = 600;
},
{
components = (
{
name = l;
}
);
layerId = "BE68D89F-AB3F-4BDF-B332-ED50D7C47704";
paths = (
{
closed = 1;
nodes = (
"157 203 LINE",
"365 411 LINE",
"365 452 LINE",
"157 243 LINE"
);
}
);
width = 600;
}
);
unicode = 0142;
},
{
glyphname = m;
lastChange = "2017-11-14 21:16:40 +0000";
layers = (
{
layerId = "558B6FE6-F456-45D2-AA56-B37F51D1E4E1";
paths = (
{
closed = 1;
nodes = (
"581 0 LINE",
"581 322 LINE SMOOTH",
"581 485 OFFCURVE",
"534 511 OFFCURVE",
"468 511 CURVE SMOOTH",
"383 511 OFFCURVE",
"314 424 OFFCURVE",
"314 312 CURVE",
"357 352 LINE",
"364 391 OFFCURVE",
"406 428 OFFCURVE",
"438 428 CURVE SMOOTH",
"480 428 OFFCURVE",
"490 401 OFFCURVE",
"490 282 CURVE SMOOTH",
"490 0 LINE"
);
},
{
closed = 1;
nodes = (
"136 0 LINE",
"136 402 LINE",
"136 402 OFFCURVE",
"116 500 OFFCURVE",
"116 500 CURVE",
"45 500 LINE",
"45 500 OFFCURVE",
"45 436 OFFCURVE",
"45 345 CURVE",
"45 0 LINE"
);
},
{
closed = 1;
nodes = (
"357 0 LINE",
"357 352 LINE SMOOTH",
"357 352 OFFCURVE",
"353 367 OFFCURVE",
"353 392 CURVE SMOOTH",
"353 475 OFFCURVE",
"302 511 OFFCURVE",
"242 511 CURVE SMOOTH",
"157 511 OFFCURVE",
"93 424 OFFCURVE",
"93 312 CURVE",
"136 352 LINE",
"143 391 OFFCURVE",
"185 428 OFFCURVE",
"217 428 CURVE SMOOTH",
"259 428 OFFCURVE",
"269 401 OFFCURVE",
"269 282 CURVE SMOOTH",
"269 0 LINE"
);
}
);
width = 600;
},
{
layerId = "5521DC30-183F-421A-91F3-644B5E24AFE6";
paths = (
{
closed = 1;
nodes = (
"595 0 LINE",
"595 322 LINE SMOOTH",
"595 485 OFFCURVE",
"531 511 OFFCURVE",
"465 511 CURVE SMOOTH",
"390 511 OFFCURVE",
"311 424 OFFCURVE",
"311 312 CURVE",
"354 332 LINE",
"361 361 OFFCURVE",
"401 388 OFFCURVE",
"423 388 CURVE SMOOTH",
"445 388 OFFCURVE",
"452 373 OFFCURVE",
"452 314 CURVE SMOOTH",
"452 0 LINE"
);
},
{
closed = 1;
nodes = (
"156 0 LINE",
"156 402 LINE",
"156 402 OFFCURVE",
"111 500 OFFCURVE",
"111 500 CURVE",
"12 500 LINE",
"12 500 OFFCURVE",
"12 436 OFFCURVE",
"12 345 CURVE",
"12 0 LINE"
);
},
{
closed = 1;
nodes = (
"366 0 LINE",
"366 369 LINE SMOOTH",
"366 369 OFFCURVE",
"357 392 OFFCURVE",
"357 392 CURVE SMOOTH",
"357 475 OFFCURVE",
"301 511 OFFCURVE",
"241 511 CURVE SMOOTH",
"163 511 OFFCURVE",
"98 424 OFFCURVE",
"98 312 CURVE",
"146 332 LINE",
"153 361 OFFCURVE",
"185 388 OFFCURVE",
"207 388 CURVE SMOOTH",
"229 388 OFFCURVE",
"242 373 OFFCURVE",
"242 314 CURVE SMOOTH",
"242 0 LINE"
);
}
);
width = 600;
},
{
layerId = "BE68D89F-AB3F-4BDF-B332-ED50D7C47704";
paths = (
{
closed = 1;
nodes = (
"546 0 LINE",
"546 332 LINE SMOOTH",
"546 475 OFFCURVE",
"518 511 OFFCURVE",
"446 511 CURVE SMOOTH",
"356 511 OFFCURVE",
"293 424 OFFCURVE",
"293 312 CURVE",
"320 352 LINE",
"327 391 OFFCURVE",
"370 478 OFFCURVE",
"441 478 CURVE SMOOTH",
"499 478 OFFCURVE",
"513 451 OFFCURVE",
"513 322 CURVE SMOOTH",
"513 0 LINE"
);
},
{
closed = 1;
nodes = (
"101 0 LINE",
"101 402 LINE",
"101 402 OFFCURVE",
"101 500 OFFCURVE",
"101 500 CURVE",
"68 500 LINE",
"68 500 OFFCURVE",
"68 436 OFFCURVE",
"68 345 CURVE",
"68 0 LINE"
);
},
{
closed = 1;
nodes = (
"320 0 LINE",
"320 352 LINE SMOOTH",
"320 352 OFFCURVE",
"320 362 OFFCURVE",
"320 387 CURVE SMOOTH",
"320 475 OFFCURVE",
"295 511 OFFCURVE",
"225 511 CURVE SMOOTH",
"142 511 OFFCURVE",
"73 424 OFFCURVE",
"73 312 CURVE",
"101 352 LINE",
"108 389 OFFCURVE",
"152 478 OFFCURVE",
"222 478 CURVE SMOOTH",
"284 478 OFFCURVE",
"287 451 OFFCURVE",
"287 322 CURVE SMOOTH",
"287 0 LINE"
);
}
);
width = 600;
}
);
leftKerningGroup = n;
rightKerningGroup = n;
unicode = 006D;
},
{
glyphname = n;
lastChange = "2017-04-10 19:08:52 +0000";
layers = (
{
layerId = "558B6FE6-F456-45D2-AA56-B37F51D1E4E1";
paths = (
{
closed = 1;
nodes = (
"192 332 LINE",
"205 365 OFFCURVE",
"251 428 OFFCURVE",
"333 428 CURVE SMOOTH",
"425 428 OFFCURVE",
"435 371 OFFCURVE",
"435 252 CURVE SMOOTH",
"435 0 LINE",
"528 0 LINE",
"528 282 LINE SMOOTH",
"528 445 OFFCURVE",
"469 511 OFFCURVE",
"353 511 CURVE SMOOTH",
"226 511 OFFCURVE",
"149 424 OFFCURVE",
"149 312 CURVE"
);
},
{
closed = 1;
nodes = (
"99 500 LINE",
"99 500 OFFCURVE",
"99 436 OFFCURVE",
"99 345 CURVE",
"99 0 LINE",
"192 0 LINE",
"192 402 LINE",
"192 402 OFFCURVE",
"172 500 OFFCURVE",
"172 500 CURVE"
);
}
);
width = 600;
},
{
layerId = "5521DC30-183F-421A-91F3-644B5E24AFE6";
paths = (
{
closed = 1;
nodes = (
"224 312 LINE",
"237 345 OFFCURVE",
"263 388 OFFCURVE",
"325 388 CURVE SMOOTH",
"381 388 OFFCURVE",
"391 351 OFFCURVE",
"391 282 CURVE SMOOTH",
"391 0 LINE",
"544 0 LINE",
"544 282 LINE SMOOTH",
"544 445 OFFCURVE",
"455 511 OFFCURVE",
"345 511 CURVE SMOOTH",
"228 511 OFFCURVE",
"161 424 OFFCURVE",
"161 312 CURVE"
);
},
{
closed = 1;
nodes = (
"81 500 LINE",
"81 500 OFFCURVE",
"81 436 OFFCURVE",
"81 345 CURVE",
"81 0 LINE",
"234 0 LINE",
"234 402 LINE",
"234 402 OFFCURVE",
"184 500 OFFCURVE",
"184 500 CURVE"
);
}
);
width = 600;
},
{
layerId = "BE68D89F-AB3F-4BDF-B332-ED50D7C47704";
paths = (
{
closed = 1;
nodes = (
"164 331 LINE",
"167 394 OFFCURVE",
"263 478 OFFCURVE",
"345 478 CURVE SMOOTH",
"417 478 OFFCURVE",
"457 459 OFFCURVE",
"457 320 CURVE SMOOTH",
"457 0 LINE",
"490 0 LINE",
"490 332 LINE SMOOTH",
"490 455 OFFCURVE",
"459 511 OFFCURVE",
"353 511 CURVE SMOOTH",
"236 511 OFFCURVE",
"134 414 OFFCURVE",
"134 312 CURVE"
);
},
{
closed = 1;
nodes = (
"131 500 LINE",
"131 500 OFFCURVE",
"131 436 OFFCURVE",
"131 345 CURVE",
"131 0 LINE",
"164 0 LINE",
"164 402 LINE",
"164 402 OFFCURVE",
"164 500 OFFCURVE",
"164 500 CURVE"
);
}
);
width = 600;
}
);
leftKerningGroup = n;
rightKerningGroup = n;
unicode = 006E;
},
{
glyphname = eng;
lastChange = "2017-02-12 19:58:31 +0000";
layers = (
{
components = (
{
name = n;
}
);
layerId = "558B6FE6-F456-45D2-AA56-B37F51D1E4E1";
paths = (
{
closed = 1;
nodes = (
"225 -183 LINE",
"249 -189 OFFCURVE",
"277 -192 OFFCURVE",
"309 -192 CURVE",
"425 -192 OFFCURVE",
"510 -130 OFFCURVE",
"510 -12 CURVE",
"510 22 LINE",
"417 8 LINE",
"417 -78 OFFCURVE",
"390 -109 OFFCURVE",
"302 -109 CURVE",
"281 -109 OFFCURVE",
"262 -106 OFFCURVE",
"246 -100 CURVE"
);
}
);
width = 600;
},
{
components = (
{
name = n;
}
);
layerId = "5521DC30-183F-421A-91F3-644B5E24AFE6";
paths = (
{
closed = 1;
nodes = (
"225 -183 LINE",
"249 -189 OFFCURVE",
"277 -192 OFFCURVE",
"309 -192 CURVE",
"425 -192 OFFCURVE",
"534 -130 OFFCURVE",
"534 -12 CURVE",
"534 22 LINE",
"381 0 LINE",
"381 -18 OFFCURVE",
"370 -61 OFFCURVE",
"302 -61 CURVE",
"281 -61 OFFCURVE",
"265 -60 OFFCURVE",
"257 -56 CURVE"
);
}
);
width = 600;
},
{
components = (
{
name = n;
}
);
layerId = "BE68D89F-AB3F-4BDF-B332-ED50D7C47704";
paths = (
{
closed = 1;
nodes = (
"225 -183 LINE",
"239 -187 OFFCURVE",
"265 -192 OFFCURVE",
"307 -192 CURVE",
"383 -192 OFFCURVE",
"470 -130 OFFCURVE",
"470 -2 CURVE",
"470 2 LINE",
"437 0 LINE",
"437 -86 OFFCURVE",
"392 -159 OFFCURVE",
"304 -159 CURVE",
"273 -159 OFFCURVE",
"240 -153 OFFCURVE",
"234 -150 CURVE"
);
}
);
width = 600;
}
);
unicode = 014B;
},
{
glyphname = o;
lastChange = "2017-02-10 01:27:23 +0000";
layers = (
{
layerId = "558B6FE6-F456-45D2-AA56-B37F51D1E4E1";
paths = (
{
closed = 1;
nodes = (
"419 -11 OFFCURVE",
"527 58 OFFCURVE",
"527 251 CURVE SMOOTH",
"527 443 OFFCURVE",
"419 512 OFFCURVE",
"303 512 CURVE SMOOTH",
"186 512 OFFCURVE",
"78 443 OFFCURVE",
"78 251 CURVE SMOOTH",
"78 58 OFFCURVE",
"186 -11 OFFCURVE",
"303 -11 CURVE SMOOTH"
);
},
{
closed = 1;
nodes = (
"240 72 OFFCURVE",
"176 117 OFFCURVE",
"176 251 CURVE SMOOTH",
"176 384 OFFCURVE",
"240 429 OFFCURVE",
"303 429 CURVE SMOOTH",
"365 429 OFFCURVE",
"429 384 OFFCURVE",
"429 251 CURVE SMOOTH",
"429 117 OFFCURVE",
"365 72 OFFCURVE",
"303 72 CURVE SMOOTH"
);
}
);
width = 600;
},
{
layerId = "5521DC30-183F-421A-91F3-644B5E24AFE6";
paths = (
{
closed = 1;
nodes = (
"429 -11 OFFCURVE",
"557 58 OFFCURVE",
"557 251 CURVE SMOOTH",
"557 443 OFFCURVE",
"429 512 OFFCURVE",
"303 512 CURVE SMOOTH",
"176 512 OFFCURVE",
"48 443 OFFCURVE",
"48 251 CURVE SMOOTH",
"48 58 OFFCURVE",
"176 -11 OFFCURVE",
"303 -11 CURVE SMOOTH"
);
},
{
closed = 1;
nodes = (
"270 112 OFFCURVE",
"206 127 OFFCURVE",
"206 251 CURVE SMOOTH",
"206 374 OFFCURVE",
"270 389 OFFCURVE",
"303 389 CURVE SMOOTH",
"335 389 OFFCURVE",
"399 374 OFFCURVE",
"399 251 CURVE SMOOTH",
"399 127 OFFCURVE",
"335 112 OFFCURVE",
"303 112 CURVE SMOOTH"
);
}
);
width = 600;
},
{
layerId = "BE68D89F-AB3F-4BDF-B332-ED50D7C47704";
paths = (
{
closed = 1;
nodes = (
"409 -11 OFFCURVE",
"497 58 OFFCURVE",
"497 251 CURVE SMOOTH",
"497 443 OFFCURVE",
"409 512 OFFCURVE",
"303 512 CURVE SMOOTH",
"196 512 OFFCURVE",
"108 443 OFFCURVE",
"108 251 CURVE SMOOTH",
"108 58 OFFCURVE",
"196 -11 OFFCURVE",
"303 -11 CURVE SMOOTH"
);
},
{
closed = 1;
nodes = (
"220 22 OFFCURVE",
"144 72 OFFCURVE",
"144 251 CURVE SMOOTH",
"144 427 OFFCURVE",
"220 479 OFFCURVE",
"303 479 CURVE SMOOTH",
"385 479 OFFCURVE",
"461 427 OFFCURVE",
"461 251 CURVE SMOOTH",
"461 72 OFFCURVE",
"385 22 OFFCURVE",
"303 22 CURVE SMOOTH"
);
}
);
width = 600;
}
);
leftKerningGroup = o;
rightKerningGroup = o;
unicode = 006F;
},
{
glyphname = oe;
lastChange = "2017-02-10 01:28:30 +0000";
layers = (
{
layerId = "558B6FE6-F456-45D2-AA56-B37F51D1E4E1";
paths = (
{
closed = 1;
nodes = (
"301 -11 OFFCURVE",
"349 108 OFFCURVE",
"349 251 CURVE SMOOTH",
"349 393 OFFCURVE",
"301 512 OFFCURVE",
"185 512 CURVE SMOOTH",
"88 512 OFFCURVE",
"20 443 OFFCURVE",
"20 251 CURVE SMOOTH",
"20 58 OFFCURVE",
"88 -11 OFFCURVE",
"185 -11 CURVE SMOOTH"
);
},
{
closed = 1;
nodes = (
"142 72 OFFCURVE",
"118 117 OFFCURVE",
"118 251 CURVE SMOOTH",
"118 384 OFFCURVE",
"142 429 OFFCURVE",
"185 429 CURVE SMOOTH",
"227 429 OFFCURVE",
"251 384 OFFCURVE",
"251 251 CURVE SMOOTH",
"251 117 OFFCURVE",
"227 72 OFFCURVE",
"185 72 CURVE SMOOTH"
);
},
{
closed = 1;
nodes = (
"487 -11 OFFCURVE",
"542 21 OFFCURVE",
"572 102 CURVE",
"488 139 LINE",
"477 109 OFFCURVE",
"461 72 OFFCURVE",
"425 72 CURVE SMOOTH",
"371 72 OFFCURVE",
"349 112 OFFCURVE",
"349 251 CURVE SMOOTH",
"349 394 OFFCURVE",
"370 429 OFFCURVE",
"423 429 CURVE SMOOTH",
"487 429 OFFCURVE",
"484 345 OFFCURVE",
"484 306 CURVE",
"578 224 LINE",
"588 394 OFFCURVE",
"551 512 OFFCURVE",
"430 512 CURVE SMOOTH",
"293 512 OFFCURVE",
"252 394 OFFCURVE",
"252 247 CURVE SMOOTH",
"252 104 OFFCURVE",
"289 -11 OFFCURVE",
"423 -11 CURVE SMOOTH"
);
},
{
closed = 1;
nodes = (
"578 224 LINE",
"518 306 LINE",
"345 306 LINE",
"345 224 LINE"
);
}
);
width = 600;
},
{
layerId = "5521DC30-183F-421A-91F3-644B5E24AFE6";
paths = (
{
closed = 1;
nodes = (
"298 -11 OFFCURVE",
"346 108 OFFCURVE",
"346 251 CURVE SMOOTH",
"346 393 OFFCURVE",
"298 512 OFFCURVE",
"182 512 CURVE SMOOTH",
"85 512 OFFCURVE",
"7 443 OFFCURVE",
"7 251 CURVE SMOOTH",
"7 58 OFFCURVE",
"85 -11 OFFCURVE",
"182 -11 CURVE SMOOTH"
);
},
{
closed = 1;
nodes = (
"159 112 OFFCURVE",
"135 117 OFFCURVE",
"135 251 CURVE SMOOTH",
"135 384 OFFCURVE",
"159 389 OFFCURVE",
"182 389 CURVE SMOOTH",
"204 389 OFFCURVE",
"228 384 OFFCURVE",
"228 251 CURVE SMOOTH",
"228 117 OFFCURVE",
"204 112 OFFCURVE",
"182 112 CURVE SMOOTH"
);
},
{
closed = 1;
nodes = (
"500 -11 OFFCURVE",
"568 31 OFFCURVE",
"598 112 CURVE",
"491 161 LINE",
"484 141 OFFCURVE",
"474 112 OFFCURVE",
"438 112 CURVE SMOOTH",
"404 112 OFFCURVE",
"385 132 OFFCURVE",
"385 251 CURVE SMOOTH",
"385 364 OFFCURVE",
"398 389 OFFCURVE",
"431 389 CURVE SMOOTH",
"461 389 OFFCURVE",
"470 365 OFFCURVE",
"470 326 CURVE",
"594 204 LINE",
"604 374 OFFCURVE",
"554 512 OFFCURVE",
"433 512 CURVE SMOOTH",
"326 512 OFFCURVE",
"248 444 OFFCURVE",
"248 247 CURVE SMOOTH",
"248 54 OFFCURVE",
"322 -11 OFFCURVE",
"436 -11 CURVE SMOOTH"
);
},
{
closed = 1;
nodes = (
"594 204 LINE",
"534 326 LINE",
"351 326 LINE",
"351 204 LINE"
);
}
);
width = 600;
},
{
layerId = "BE68D89F-AB3F-4BDF-B332-ED50D7C47704";
paths = (
{
closed = 1;
nodes = (
"260 -11 OFFCURVE",
"318 58 OFFCURVE",
"318 251 CURVE SMOOTH",
"318 443 OFFCURVE",
"260 512 OFFCURVE",
"184 512 CURVE SMOOTH",
"107 512 OFFCURVE",
"49 443 OFFCURVE",
"49 251 CURVE SMOOTH",
"49 58 OFFCURVE",
"107 -11 OFFCURVE",
"184 -11 CURVE SMOOTH"
);
},
{
closed = 1;
nodes = (
"131 22 OFFCURVE",
"84 72 OFFCURVE",
"84 251 CURVE SMOOTH",
"84 427 OFFCURVE",
"131 479 OFFCURVE",
"184 479 CURVE SMOOTH",
"236 479 OFFCURVE",
"280 427 OFFCURVE",
"280 251 CURVE SMOOTH",
"280 72 OFFCURVE",
"236 22 OFFCURVE",
"184 22 CURVE SMOOTH"
);
},
{
closed = 1;
nodes = (
"490 -11 OFFCURVE",
"546 19 OFFCURVE",
"577 93 CURVE",
"546 107 LINE",
"535 77 OFFCURVE",
"510 22 OFFCURVE",
"431 22 CURVE SMOOTH",
"339 22 OFFCURVE",
"318 122 OFFCURVE",
"318 251 CURVE SMOOTH",
"318 384 OFFCURVE",
"353 479 OFFCURVE",
"436 479 CURVE SMOOTH",
"530 479 OFFCURVE",
"533 370 OFFCURVE",
"533 281 CURVE",
"567 249 LINE",
"577 419 OFFCURVE",
"547 512 OFFCURVE",
"436 512 CURVE SMOOTH",
"349 512 OFFCURVE",
"283 444 OFFCURVE",
"283 257 CURVE SMOOTH",
"283 74 OFFCURVE",
"329 -11 OFFCURVE",
"429 -11 CURVE SMOOTH"
);
},
{
closed = 1;
nodes = (
"567 249 LINE",
"537 281 LINE",
"314 281 LINE",
"314 249 LINE"
);
}
);
width = 600;
}
);
unicode = 0153;
},
{
glyphname = p;
lastChange = "2017-02-09 22:11:06 +0000";
layers = (
{
layerId = "558B6FE6-F456-45D2-AA56-B37F51D1E4E1";
paths = (
{
closed = 1;
nodes = (
"87 -200 LINE",
"180 -200 LINE",
"180 429 LINE",
"160 500 LINE",
"87 500 LINE"
);
},
{
closed = 1;
nodes = (
"135 96 OFFCURVE",
"192 -11 OFFCURVE",
"329 -11 CURVE SMOOTH",
"455 -11 OFFCURVE",
"534 66 OFFCURVE",
"534 249 CURVE",
"441 249 LINE",
"441 120 OFFCURVE",
"401 72 OFFCURVE",
"309 72 CURVE SMOOTH",
"227 72 OFFCURVE",
"182 135 OFFCURVE",
"178 178 CURVE",
"135 208 LINE"
);
},
{
closed = 1;
nodes = (
"178 310 LINE",
"181 353 OFFCURVE",
"237 429 OFFCURVE",
"319 429 CURVE SMOOTH",
"411 429 OFFCURVE",
"441 378 OFFCURVE",
"441 249 CURVE",
"534 249 LINE",
"534 432 OFFCURVE",
"465 512 OFFCURVE",
"339 512 CURVE SMOOTH",
"212 512 OFFCURVE",
"135 394 OFFCURVE",
"135 290 CURVE"
);
}
);
width = 600;
},
{
layerId = "5521DC30-183F-421A-91F3-644B5E24AFE6";
paths = (
{
closed = 1;
nodes = (
"71 -200 LINE",
"224 -200 LINE",
"224 429 LINE",
"174 500 LINE",
"71 500 LINE"
);
},
{
closed = 1;
nodes = (
"159 96 OFFCURVE",
"216 -11 OFFCURVE",
"333 -11 CURVE SMOOTH",
"469 -11 OFFCURVE",
"548 66 OFFCURVE",
"548 249 CURVE",
"395 249 LINE",
"395 140 OFFCURVE",
"355 112 OFFCURVE",
"293 112 CURVE SMOOTH",
"231 112 OFFCURVE",
"213 145 OFFCURVE",
"209 188 CURVE",
"159 208 LINE"
);
},
{
closed = 1;
nodes = (
"209 300 LINE",
"212 343 OFFCURVE",
"241 389 OFFCURVE",
"303 389 CURVE SMOOTH",
"365 389 OFFCURVE",
"395 358 OFFCURVE",
"395 249 CURVE",
"548 249 LINE",
"548 432 OFFCURVE",
"479 512 OFFCURVE",
"343 512 CURVE SMOOTH",
"236 512 OFFCURVE",
"159 394 OFFCURVE",
"159 290 CURVE"
);
}
);
width = 600;
},
{
layerId = "BE68D89F-AB3F-4BDF-B332-ED50D7C47704";
paths = (
{
closed = 1;
nodes = (
"127 -200 LINE",
"160 -200 LINE",
"160 429 LINE",
"160 500 LINE",
"127 500 LINE"
);
},
{
closed = 1;
nodes = (
"129 96 OFFCURVE",
"193 -11 OFFCURVE",
"332 -11 CURVE SMOOTH",
"448 -11 OFFCURVE",
"517 66 OFFCURVE",
"517 249 CURVE",
"484 249 LINE",
"484 100 OFFCURVE",
"433 22 OFFCURVE",
"331 22 CURVE SMOOTH",
"209 22 OFFCURVE",
"163 135 OFFCURVE",
"159 178 CURVE",
"129 208 LINE"
);
},
{
closed = 1;
nodes = (
"159 310 LINE",
"162 353 OFFCURVE",
"219 479 OFFCURVE",
"341 479 CURVE SMOOTH",
"443 479 OFFCURVE",
"484 398 OFFCURVE",
"484 249 CURVE",
"517 249 LINE",
"517 432 OFFCURVE",
"458 512 OFFCURVE",
"342 512 CURVE SMOOTH",
"211 512 OFFCURVE",
"129 394 OFFCURVE",
"129 290 CURVE"
);
}
);
width = 600;
}
);
leftKerningGroup = p;
rightKerningGroup = o;
unicode = 0070;
},
{
glyphname = thorn;
lastChange = "2017-02-10 01:27:48 +0000";
layers = (
{
layerId = "558B6FE6-F456-45D2-AA56-B37F51D1E4E1";
paths = (
{
closed = 1;
nodes = (
"180 -200 LINE",
"180 800 LINE",
"87 800 LINE",
"87 -200 LINE"
);
},
{
closed = 1;
nodes = (
"178 322 LINE",
"191 355 OFFCURVE",
"237 428 OFFCURVE",
"319 428 CURVE SMOOTH",
"411 428 OFFCURVE",
"441 380 OFFCURVE",
"441 251 CURVE",
"534 251 LINE",
"534 434 OFFCURVE",
"465 511 OFFCURVE",
"339 511 CURVE SMOOTH",
"212 511 OFFCURVE",
"135 414 OFFCURVE",
"135 302 CURVE"
);
},
{
closed = 1;
nodes = (
"135 98 OFFCURVE",
"202 -11 OFFCURVE",
"329 -11 CURVE SMOOTH",
"455 -11 OFFCURVE",
"534 68 OFFCURVE",
"534 251 CURVE",
"441 251 LINE",
"441 122 OFFCURVE",
"401 72 OFFCURVE",
"309 72 CURVE SMOOTH",
"227 72 OFFCURVE",
"181 147 OFFCURVE",
"178 190 CURVE",
"135 210 LINE"
);
}
);
width = 600;
},
{
layerId = "5521DC30-183F-421A-91F3-644B5E24AFE6";
paths = (
{
closed = 1;
nodes = (
"210 -200 LINE",
"210 800 LINE",
"57 800 LINE",
"57 -200 LINE"
);
},
{
closed = 1;
nodes = (
"188 282 LINE",
"201 315 OFFCURVE",
"228 388 OFFCURVE",
"310 388 CURVE SMOOTH",
"382 388 OFFCURVE",
"401 340 OFFCURVE",
"401 251 CURVE",
"554 251 LINE",
"554 434 OFFCURVE",
"475 511 OFFCURVE",
"339 511 CURVE SMOOTH",
"212 511 OFFCURVE",
"135 414 OFFCURVE",
"135 302 CURVE"
);
},
{
closed = 1;
nodes = (
"135 98 OFFCURVE",
"202 -11 OFFCURVE",
"329 -11 CURVE SMOOTH",
"465 -11 OFFCURVE",
"554 68 OFFCURVE",
"554 251 CURVE",
"401 251 LINE",
"401 162 OFFCURVE",
"372 112 OFFCURVE",
"300 112 CURVE SMOOTH",
"218 112 OFFCURVE",
"191 187 OFFCURVE",
"188 230 CURVE",
"135 210 LINE"
);
}
);
width = 600;
},
{
layerId = "BE68D89F-AB3F-4BDF-B332-ED50D7C47704";
paths = (
{
closed = 1;
nodes = (
"150 -200 LINE",
"150 800 LINE",
"117 800 LINE",
"117 -200 LINE"
);
},
{
closed = 1;
nodes = (
"142 295 LINE",
"155 382 OFFCURVE",
"247 478 OFFCURVE",
"329 478 CURVE SMOOTH",
"418 478 OFFCURVE",
"471 410 OFFCURVE",
"471 251 CURVE",
"504 251 LINE",
"504 434 OFFCURVE",
"429 511 OFFCURVE",
"333 511 CURVE SMOOTH",
"236 511 OFFCURVE",
"122 414 OFFCURVE",
"122 302 CURVE"
);
},
{
closed = 1;
nodes = (
"128 77 OFFCURVE",
"218 -11 OFFCURVE",
"325 -11 CURVE SMOOTH",
"421 -11 OFFCURVE",
"504 68 OFFCURVE",
"504 251 CURVE",
"471 251 LINE",
"471 92 OFFCURVE",
"410 22 OFFCURVE",
"321 22 CURVE SMOOTH",
"239 22 OFFCURVE",
"152 108 OFFCURVE",
"144 221 CURVE",
"122 210 LINE"
);
}
);
width = 600;
}
);
unicode = 00FE;
},
{
glyphname = r;
lastChange = "2017-04-10 21:19:54 +0000";
layers = (
{
layerId = "558B6FE6-F456-45D2-AA56-B37F51D1E4E1";
paths = (
{
closed = 1;
nodes = (
"328 332 LINE",
"341 365 OFFCURVE",
"387 426 OFFCURVE",
"469 426 CURVE SMOOTH",
"513 426 OFFCURVE",
"536 417 OFFCURVE",
"542 412 CURVE",
"572 495 LINE",
"558 501 OFFCURVE",
"528 512 OFFCURVE",
"489 512 CURVE SMOOTH",
"362 512 OFFCURVE",
"285 424 OFFCURVE",
"285 312 CURVE"
);
},
{
closed = 1;
nodes = (
"494 0 LINE",
"494 82 LINE",
"103 82 LINE",
"103 0 LINE"
);
},
{
closed = 1;
nodes = (
"328 0 LINE",
"328 402 LINE",
"308 500 LINE",
"235 500 LINE",
"235 345 LINE",
"235 0 LINE"
);
},
{
closed = 1;
nodes = (
"262 418 LINE",
"262 500 LINE",
"103 500 LINE",
"103 418 LINE"
);
}
);
width = 600;
},
{
layerId = "5521DC30-183F-421A-91F3-644B5E24AFE6";
paths = (
{
closed = 1;
nodes = (
"348 332 LINE",
"361 365 OFFCURVE",
"407 386 OFFCURVE",
"469 386 CURVE SMOOTH",
"509 386 OFFCURVE",
"538 371 OFFCURVE",
"542 366 CURVE",
"583 490 LINE",
"574 496 OFFCURVE",
"554 512 OFFCURVE",
"489 512 CURVE SMOOTH",
"362 512 OFFCURVE",
"285 424 OFFCURVE",
"285 312 CURVE"
);
},
{
closed = 1;
nodes = (
"499 0 LINE",
"499 122 LINE",
"103 122 LINE",
"103 0 LINE"
);
},
{
closed = 1;
nodes = (
"358 0 LINE",
"358 402 LINE",
"308 500 LINE",
"205 500 LINE",
"205 345 LINE",
"205 0 LINE"
);
},
{
closed = 1;
nodes = (
"262 378 LINE",
"262 500 LINE",
"103 500 LINE",
"103 378 LINE"
);
}
);
width = 600;
},
{
layerId = "BE68D89F-AB3F-4BDF-B332-ED50D7C47704";
paths = (
{
closed = 1;
nodes = (
"297 323 LINE",
"320 410 OFFCURVE",
"390 478 OFFCURVE",
"482 478 CURVE SMOOTH",
"528 478 OFFCURVE",
"545 465 OFFCURVE",
"545 465 CURVE",
"557 499 LINE",
"546 504 OFFCURVE",
"521 512 OFFCURVE",
"489 512 CURVE SMOOTH",
"362 512 OFFCURVE",
"270 413 OFFCURVE",
"270 301 CURVE"
);
},
{
closed = 1;
nodes = (
"489 0 LINE",
"489 32 LINE",
"103 32 LINE",
"103 0 LINE"
);
},
{
closed = 1;
nodes = (
"298 0 LINE",
"298 402 LINE",
"298 500 LINE",
"265 500 LINE",
"265 345 LINE",
"265 0 LINE"
);
},
{
closed = 1;
nodes = (
"292 468 LINE",
"292 500 LINE",
"103 500 LINE",
"103 468 LINE"
);
}
);
width = 600;
}
);
leftKerningGroup = n;
rightKerningGroup = r;
unicode = 0072;
},
{
glyphname = s;
lastChange = "2017-11-14 21:12:09 +0000";
layers = (
{
layerId = "558B6FE6-F456-45D2-AA56-B37F51D1E4E1";
paths = (
{
closed = 1;
nodes = (
"402 -11 OFFCURVE",
"522 32 OFFCURVE",
"524 140 CURVE SMOOTH",
"526 261 OFFCURVE",
"358 288 OFFCURVE",
"314 301 CURVE SMOOTH",
"281 311 OFFCURVE",
"204 329 OFFCURVE",
"204 370 CURVE SMOOTH",
"204 415 OFFCURVE",
"270 429 OFFCURVE",
"311 429 CURVE SMOOTH",
"349 429 OFFCURVE",
"406 412 OFFCURVE",
"429 374 CURVE",
"505 423 LINE",
"462 489 OFFCURVE",
"373 512 OFFCURVE",
"311 512 CURVE SMOOTH",
"226 512 OFFCURVE",
"103 473 OFFCURVE",
"106 373 CURVE SMOOTH",
"109 264 OFFCURVE",
"250 228 OFFCURVE",
"301 215 CURVE SMOOTH",
"335 206 OFFCURVE",
"426 190 OFFCURVE",
"426 137 CURVE SMOOTH",
"426 89 OFFCURVE",
"364 72 OFFCURVE",
"304 72 CURVE SMOOTH",
"253 72 OFFCURVE",
"180 93 OFFCURVE",
"159 129 CURVE",
"81 77 LINE",
"125 12 OFFCURVE",
"227 -11 OFFCURVE",
"302 -11 CURVE SMOOTH"
);
}
);
width = 600;
},
{
layerId = "5521DC30-183F-421A-91F3-644B5E24AFE6";
paths = (
{
closed = 1;
nodes = (
"432 -11 OFFCURVE",
"539 38 OFFCURVE",
"539 146 CURVE SMOOTH",
"539 273 OFFCURVE",
"368 302 OFFCURVE",
"304 319 CURVE SMOOTH",
"271 328 OFFCURVE",
"230 338 OFFCURVE",
"230 363 CURVE SMOOTH",
"230 386 OFFCURVE",
"271 400 OFFCURVE",
"317 399 CURVE SMOOTH",
"362 398 OFFCURVE",
"400 378 OFFCURVE",
"423 341 CURVE",
"530 413 LINE",
"487 479 OFFCURVE",
"413 512 OFFCURVE",
"311 512 CURVE SMOOTH",
"196 512 OFFCURVE",
"84 462 OFFCURVE",
"84 370 CURVE SMOOTH",
"84 261 OFFCURVE",
"209 220 OFFCURVE",
"291 202 CURVE SMOOTH",
"345 190 OFFCURVE",
"392 177 OFFCURVE",
"392 148 CURVE SMOOTH",
"392 122 OFFCURVE",
"359 108 OFFCURVE",
"309 108 CURVE SMOOTH",
"248 108 OFFCURVE",
"192 131 OFFCURVE",
"171 167 CURVE",
"51 90 LINE",
"95 25 OFFCURVE",
"187 -11 OFFCURVE",
"302 -11 CURVE SMOOTH"
);
}
);
width = 600;
},
{
layerId = "BE68D89F-AB3F-4BDF-B332-ED50D7C47704";
paths = (
{
closed = 1;
nodes = (
"402 -11 OFFCURVE",
"503 39 OFFCURVE",
"504 140 CURVE SMOOTH",
"505 240 OFFCURVE",
"356 270 OFFCURVE",
"309 282 CURVE SMOOTH",
"275 291 OFFCURVE",
"160 305 OFFCURVE",
"160 383 CURVE SMOOTH",
"160 462 OFFCURVE",
"263 479 OFFCURVE",
"311 479 CURVE SMOOTH",
"359 479 OFFCURVE",
"421 467 OFFCURVE",
"448 423 CURVE",
"483 445 LINE",
"463 481 OFFCURVE",
"396 512 OFFCURVE",
"311 512 CURVE SMOOTH",
"226 512 OFFCURVE",
"122 473 OFFCURVE",
"122 383 CURVE SMOOTH",
"122 285 OFFCURVE",
"252 262 OFFCURVE",
"300 248 CURVE SMOOTH",
"342 236 OFFCURVE",
"466 213 OFFCURVE",
"466 140 CURVE SMOOTH",
"466 51 OFFCURVE",
"374 22 OFFCURVE",
"304 22 CURVE SMOOTH",
"234 22 OFFCURVE",
"169 41 OFFCURVE",
"139 75 CURVE",
"105 50 LINE",
"141 14 OFFCURVE",
"217 -11 OFFCURVE",
"302 -11 CURVE SMOOTH"
);
}
);
width = 600;
}
);
leftKerningGroup = s;
rightKerningGroup = s;
unicode = 0073;
},
{
glyphname = germandbls;
lastChange = "2017-02-10 01:31:17 +0000";
layers = (
{
layerId = "558B6FE6-F456-45D2-AA56-B37F51D1E4E1";
paths = (
{
closed = 1;
nodes = (
"163 0 LINE",
"163 502 LINE",
"70 523 LINE",
"70 0 LINE"
);
},
{
closed = 1;
nodes = (
"223 2 LINE",
"256 -7 OFFCURVE",
"291 -11 OFFCURVE",
"323 -11 CURVE SMOOTH",
"444 -11 OFFCURVE",
"559 48 OFFCURVE",
"559 197 CURVE",
"461 197 LINE",
"461 102 OFFCURVE",
"403 72 OFFCURVE",
"323 72 CURVE SMOOTH",
"296 72 OFFCURVE",
"270 77 OFFCURVE",
"247 86 CURVE"
);
},
{
closed = 1;
nodes = (
"509 550 LINE",
"509 668 OFFCURVE",
"405 726 OFFCURVE",
"297 726 CURVE SMOOTH",
"189 726 OFFCURVE",
"70 662 OFFCURVE",
"70 523 CURVE",
"163 502 LINE",
"163 608 OFFCURVE",
"233 643 OFFCURVE",
"297 643 CURVE SMOOTH",
"354 643 OFFCURVE",
"410 624 OFFCURVE",
"410 550 CURVE"
);
},
{
closed = 1;
nodes = (
"410 550 LINE",
"410 463 OFFCURVE",
"309 474 OFFCURVE",
"309 391 CURVE SMOOTH",
"309 308 OFFCURVE",
"461 302 OFFCURVE",
"461 197 CURVE",
"559 197 LINE",
"559 350 OFFCURVE",
"405 354 OFFCURVE",
"405 391 CURVE SMOOTH",
"405 428 OFFCURVE",
"509 436 OFFCURVE",
"509 550 CURVE"
);
}
);
width = 600;
},
{
layerId = "5521DC30-183F-421A-91F3-644B5E24AFE6";
paths = (
{
closed = 1;
nodes = (
"183 0 LINE",
"183 502 LINE",
"30 513 LINE",
"30 0 LINE"
);
},
{
closed = 1;
nodes = (
"223 2 LINE",
"256 -7 OFFCURVE",
"291 -11 OFFCURVE",
"323 -11 CURVE SMOOTH",
"444 -11 OFFCURVE",
"589 48 OFFCURVE",
"589 197 CURVE",
"431 197 LINE",
"431 142 OFFCURVE",
"403 112 OFFCURVE",
"323 112 CURVE SMOOTH",
"296 112 OFFCURVE",
"270 117 OFFCURVE",
"247 126 CURVE"
);
},
{
closed = 1;
nodes = (
"539 550 LINE",
"539 668 OFFCURVE",
"405 726 OFFCURVE",
"297 726 CURVE SMOOTH",
"189 726 OFFCURVE",
"30 682 OFFCURVE",
"30 513 CURVE",
"183 502 LINE",
"183 568 OFFCURVE",
"233 603 OFFCURVE",
"297 603 CURVE SMOOTH",
"354 603 OFFCURVE",
"380 586 OFFCURVE",
"380 540 CURVE"
);
},
{
closed = 1;
nodes = (
"380 540 LINE",
"380 473 OFFCURVE",
"279 494 OFFCURVE",
"279 391 CURVE SMOOTH",
"279 288 OFFCURVE",
"431 302 OFFCURVE",
"431 197 CURVE",
"589 197 LINE",
"589 350 OFFCURVE",
"435 354 OFFCURVE",
"435 391 CURVE SMOOTH",
"435 428 OFFCURVE",
"539 436 OFFCURVE",
"539 550 CURVE"
);
}
);
width = 600;
},
{
layerId = "BE68D89F-AB3F-4BDF-B332-ED50D7C47704";
paths = (
{
closed = 1;
nodes = (
"133 0 LINE",
"133 512 LINE",
"100 523 LINE",
"100 0 LINE"
);
},
{
closed = 1;
nodes = (
"223 2 LINE",
"253 -5 OFFCURVE",
"284 -11 OFFCURVE",
"323 -11 CURVE SMOOTH",
"444 -11 OFFCURVE",
"539 48 OFFCURVE",
"539 197 CURVE",
"501 197 LINE",
"501 52 OFFCURVE",
"403 22 OFFCURVE",
"323 22 CURVE SMOOTH",
"286 22 OFFCURVE",
"250 30 OFFCURVE",
"232 35 CURVE"
);
},
{
closed = 1;
nodes = (
"489 552 LINE",
"489 670 OFFCURVE",
"405 726 OFFCURVE",
"297 726 CURVE SMOOTH",
"189 726 OFFCURVE",
"100 662 OFFCURVE",
"100 523 CURVE",
"133 512 LINE",
"133 668 OFFCURVE",
"233 693 OFFCURVE",
"297 693 CURVE SMOOTH",
"354 693 OFFCURVE",
"450 676 OFFCURVE",
"450 552 CURVE"
);
},
{
closed = 1;
nodes = (
"450 552 LINE",
"450 452 OFFCURVE",
"349 464 OFFCURVE",
"349 391 CURVE SMOOTH",
"349 318 OFFCURVE",
"501 332 OFFCURVE",
"501 197 CURVE",
"539 197 LINE",
"539 345 OFFCURVE",
"385 354 OFFCURVE",
"385 391 CURVE SMOOTH",
"385 428 OFFCURVE",
"489 450 OFFCURVE",
"489 552 CURVE"
);
}
);
width = 600;
}
);
unicode = 00DF;
},
{
glyphname = t;
lastChange = "2017-11-14 21:17:32 +0000";
layers = (
{
layerId = "558B6FE6-F456-45D2-AA56-B37F51D1E4E1";
paths = (
{
closed = 1;
nodes = (
"305 142 LINE",
"305 680 LINE",
"212 680 LINE",
"212 122 LINE"
);
},
{
closed = 1;
nodes = (
"410 -11 OFFCURVE",
"439 -1 OFFCURVE",
"447 0 CURVE",
"447 78 LINE",
"436 76 OFFCURVE",
"393 66 OFFCURVE",
"362 66 CURVE",
"330 66 OFFCURVE",
"305 79 OFFCURVE",
"305 142 CURVE",
"212 122 LINE",
"212 19 OFFCURVE",
"276 -11 OFFCURVE",
"343 -11 CURVE"
);
},
{
closed = 1;
nodes = (
"484 418 LINE",
"484 500 LINE",
"72 500 LINE",
"72 418 LINE"
);
}
);
width = 600;
},
{
layerId = "5521DC30-183F-421A-91F3-644B5E24AFE6";
paths = (
{
closed = 1;
nodes = (
"343 182 LINE",
"343 680 LINE",
"190 680 LINE",
"190 122 LINE"
);
},
{
closed = 1;
nodes = (
"433 -11 OFFCURVE",
"487 -1 OFFCURVE",
"495 0 CURVE",
"495 123 LINE",
"490 121 OFFCURVE",
"430 106 OFFCURVE",
"391 106 CURVE",
"364 106 OFFCURVE",
"343 119 OFFCURVE",
"343 182 CURVE",
"190 122 LINE",
"190 9 OFFCURVE",
"274 -11 OFFCURVE",
"366 -11 CURVE"
);
},
{
closed = 1;
nodes = (
"512 378 LINE",
"512 500 LINE",
"50 500 LINE",
"50 378 LINE"
);
}
);
width = 600;
},
{
layerId = "BE68D89F-AB3F-4BDF-B332-ED50D7C47704";
paths = (
{
closed = 1;
nodes = (
"273 96 LINE",
"273 680 LINE",
"240 680 LINE",
"240 86 LINE"
);
},
{
closed = 1;
nodes = (
"398 -11 OFFCURVE",
"427 -1 OFFCURVE",
"435 0 CURVE",
"435 32 LINE",
"427 30 OFFCURVE",
"381 20 OFFCURVE",
"346 20 CURVE",
"311 20 OFFCURVE",
"273 33 OFFCURVE",
"273 96 CURVE",
"240 86 LINE",
"240 33 OFFCURVE",
"274 -11 OFFCURVE",
"341 -11 CURVE"
);
},
{
closed = 1;
nodes = (
"472 468 LINE",
"472 500 LINE",
"80 500 LINE",
"80 468 LINE"
);
}
);
width = 600;
}
);
leftKerningGroup = t;
rightKerningGroup = t;
unicode = 0074;
},
{
glyphname = t.ss01;
lastChange = "2017-02-14 00:59:52 +0000";
layers = (
{
layerId = "558B6FE6-F456-45D2-AA56-B37F51D1E4E1";
paths = (
{
closed = 1;
nodes = (
"345 0 LINE",
"345 680 LINE",
"252 680 LINE",
"252 0 LINE"
);
},
{
closed = 1;
nodes = (
"467 0 LINE",
"467 82 LINE",
"294 82 LINE",
"294 0 LINE"
);
},
{
closed = 1;
nodes = (
"507 418 LINE",
"507 500 LINE",
"122 500 LINE",
"122 418 LINE"
);
}
);
width = 600;
},
{
layerId = "5521DC30-183F-421A-91F3-644B5E24AFE6";
paths = (
{
closed = 1;
nodes = (
"375 0 LINE",
"375 680 LINE",
"222 680 LINE",
"222 0 LINE"
);
},
{
closed = 1;
nodes = (
"487 0 LINE",
"487 122 LINE",
"294 122 LINE",
"294 0 LINE"
);
},
{
closed = 1;
nodes = (
"527 378 LINE",
"527 500 LINE",
"102 500 LINE",
"102 378 LINE"
);
}
);
width = 600;
},
{
layerId = "BE68D89F-AB3F-4BDF-B332-ED50D7C47704";
paths = (
{
closed = 1;
nodes = (
"303 26 LINE",
"303 680 LINE",
"270 680 LINE",
"270 16 LINE"
);
},
{
closed = 1;
nodes = (
"457 0 LINE",
"457 32 LINE",
"270 32 LINE",
"270 0 LINE"
);
},
{
closed = 1;
nodes = (
"502 468 LINE",
"502 500 LINE",
"130 500 LINE",
"130 468 LINE"
);
}
);
width = 600;
}
);
},
{
glyphname = u;
lastChange = "2017-04-10 19:17:24 +0000";
layers = (
{
layerId = "558B6FE6-F456-45D2-AA56-B37F51D1E4E1";
paths = (
{
closed = 1;
nodes = (
"386 -10 OFFCURVE",
"463 77 OFFCURVE",
"463 189 CURVE",
"420 169 LINE",
"407 136 OFFCURVE",
"361 73 OFFCURVE",
"279 73 CURVE SMOOTH",
"187 73 OFFCURVE",
"177 130 OFFCURVE",
"177 249 CURVE SMOOTH",
"177 501 LINE",
"84 501 LINE",
"84 219 LINE SMOOTH",
"84 56 OFFCURVE",
"143 -10 OFFCURVE",
"259 -10 CURVE SMOOTH"
);
},
{
closed = 1;
nodes = (
"514 0 LINE SMOOTH",
"514 0 OFFCURVE",
"513 101 OFFCURVE",
"513 101 CURVE",
"513 501 LINE",
"420 501 LINE",
"420 99 LINE",
"420 99 OFFCURVE",
"430 0 OFFCURVE",
"430 0 CURVE"
);
}
);
width = 600;
},
{
layerId = "5521DC30-183F-421A-91F3-644B5E24AFE6";
paths = (
{
closed = 1;
nodes = (
"384 -10 OFFCURVE",
"441 77 OFFCURVE",
"441 189 CURVE",
"398 189 LINE",
"385 156 OFFCURVE",
"359 113 OFFCURVE",
"287 113 CURVE SMOOTH",
"235 113 OFFCURVE",
"215 160 OFFCURVE",
"215 249 CURVE SMOOTH",
"215 501 LINE",
"62 501 LINE",
"62 219 LINE SMOOTH",
"62 56 OFFCURVE",
"131 -10 OFFCURVE",
"257 -10 CURVE SMOOTH"
);
},
{
closed = 1;
nodes = (
"522 0 LINE SMOOTH",
"522 0 OFFCURVE",
"521 101 OFFCURVE",
"521 101 CURVE",
"521 501 LINE",
"368 501 LINE",
"368 99 LINE",
"368 99 OFFCURVE",
"408 0 OFFCURVE",
"408 0 CURVE"
);
}
);
width = 600;
},
{
layerId = "BE68D89F-AB3F-4BDF-B332-ED50D7C47704";
paths = (
{
closed = 1;
nodes = (
"406 -10 OFFCURVE",
"493 77 OFFCURVE",
"493 189 CURVE",
"460 140 LINE",
"447 107 OFFCURVE",
"398 23 OFFCURVE",
"286 23 CURVE SMOOTH",
"174 23 OFFCURVE",
"157 90 OFFCURVE",
"157 209 CURVE SMOOTH",
"157 501 LINE",
"124 501 LINE",
"124 189 LINE SMOOTH",
"124 26 OFFCURVE",
"193 -10 OFFCURVE",
"279 -10 CURVE SMOOTH"
);
},
{
closed = 1;
nodes = (
"494 0 LINE SMOOTH",
"494 0 OFFCURVE",
"493 101 OFFCURVE",
"493 101 CURVE",
"493 501 LINE",
"460 501 LINE",
"460 99 LINE",
"460 99 OFFCURVE",
"460 0 OFFCURVE",
"460 0 CURVE"
);
}
);
width = 600;
}
);
leftKerningGroup = u;
rightKerningGroup = u;
unicode = 0075;
},
{
glyphname = uogonek;
lastChange = "2017-02-12 20:00:49 +0000";
layers = (
{
components = (
{
name = u;
},
{
name = ogonekcomb;
transform = "{1, 0, 0, 1, 154, 0}";
}
);
layerId = "558B6FE6-F456-45D2-AA56-B37F51D1E4E1";
paths = (
{
closed = 1;
nodes = (
"446 0 LINE",
"494 -12 LINE",
"494 23 LINE",
"461 6 LINE"
);
}
);
width = 600;
},
{
components = (
{
name = u;
},
{
name = ogonekcomb;
transform = "{1, 0, 0, 1, 137, 0}";
}
);
layerId = "5521DC30-183F-421A-91F3-644B5E24AFE6";
paths = (
{
closed = 1;
nodes = (
"394 0 LINE",
"442 -12 LINE",
"442 23 LINE",
"409 6 LINE"
);
}
);
width = 600;
},
{
components = (
{
name = u;
},
{
name = ogonekcomb;
transform = "{1, 0, 0, 1, 144, 0}";
}
);
layerId = "BE68D89F-AB3F-4BDF-B332-ED50D7C47704";
paths = (
{
closed = 1;
nodes = (
"464 -1 LINE",
"478 -5 LINE",
"478 6 LINE",
"468 1 LINE"
);
}
);
width = 600;
}
);
unicode = 0173;
},
{
glyphname = v;
lastChange = "2017-02-09 15:58:25 +0000";
layers = (
{
layerId = "558B6FE6-F456-45D2-AA56-B37F51D1E4E1";
paths = (
{
closed = 1;
nodes = (
"98 500 LINE",
"220 0 LINE",
"307 0 LINE",
"195 500 LINE"
);
},
{
closed = 1;
nodes = (
"409 500 LINE",
"297 0 LINE",
"384 0 LINE",
"506 500 LINE"
);
},
{
closed = 1;
nodes = (
"372 0 LINE",
"372 82 LINE",
"232 82 LINE",
"232 0 LINE"
);
}
);
width = 600;
},
{
layerId = "5521DC30-183F-421A-91F3-644B5E24AFE6";
paths = (
{
closed = 1;
nodes = (
"68 500 LINE",
"190 0 LINE",
"327 0 LINE",
"225 500 LINE"
);
},
{
closed = 1;
nodes = (
"379 500 LINE",
"277 0 LINE",
"414 0 LINE",
"536 500 LINE"
);
},
{
closed = 1;
nodes = (
"372 0 LINE",
"372 122 LINE",
"232 122 LINE",
"232 0 LINE"
);
}
);
width = 600;
},
{
layerId = "BE68D89F-AB3F-4BDF-B332-ED50D7C47704";
paths = (
{
closed = 1;
nodes = (
"128 500 LINE",
"250 0 LINE",
"284 0 LINE",
"165 500 LINE"
);
},
{
closed = 1;
nodes = (
"439 500 LINE",
"320 0 LINE",
"354 0 LINE",
"476 500 LINE"
);
},
{
closed = 1;
nodes = (
"342 0 LINE",
"342 32 LINE",
"262 32 LINE",
"262 0 LINE"
);
}
);
width = 600;
}
);
leftKerningGroup = v;
rightKerningGroup = v;
unicode = 0076;
},
{
glyphname = w;
lastChange = "2017-11-15 01:15:44 +0000";
layers = (
{
layerId = "558B6FE6-F456-45D2-AA56-B37F51D1E4E1";
paths = (
{
closed = 1;
nodes = (
"108 0 LINE",
"188 0 LINE",
"135 500 LINE",
"45 500 LINE"
);
},
{
closed = 1;
nodes = (
"408 0 LINE",
"488 0 LINE",
"551 500 LINE",
"461 500 LINE"
);
},
{
closed = 1;
nodes = (
"341 500 LINE",
"255 500 LINE",
"151 0 LINE",
"220 0 LINE"
);
},
{
closed = 1;
nodes = (
"445 0 LINE",
"341 500 LINE",
"255 500 LINE",
"376 0 LINE"
);
}
);
width = 600;
},
{
layerId = "5521DC30-183F-421A-91F3-644B5E24AFE6";
paths = (
{
closed = 1;
nodes = (
"74 0 LINE",
"194 0 LINE",
"146 500 LINE",
"1 500 LINE"
);
},
{
closed = 1;
nodes = (
"404 0 LINE",
"524 0 LINE",
"597 500 LINE",
"452 500 LINE"
);
},
{
closed = 1;
nodes = (
"357 500 LINE",
"241 500 LINE",
"137 0 LINE",
"236 0 LINE"
);
},
{
closed = 1;
nodes = (
"461 0 LINE",
"357 500 LINE",
"241 500 LINE",
"362 0 LINE"
);
}
);
width = 600;
},
{
layerId = "BE68D89F-AB3F-4BDF-B332-ED50D7C47704";
paths = (
{
closed = 1;
nodes = (
"138 0 LINE",
"169 0 LINE",
"108 500 LINE",
"75 500 LINE"
);
},
{
closed = 1;
nodes = (
"427 0 LINE",
"458 0 LINE",
"521 500 LINE",
"488 500 LINE"
);
},
{
closed = 1;
nodes = (
"308 500 LINE",
"277 500 LINE",
"159 0 LINE",
"190 0 LINE"
);
},
{
closed = 1;
nodes = (
"437 0 LINE",
"319 500 LINE",
"288 500 LINE",
"406 0 LINE"
);
}
);
width = 600;
}
);
leftKerningGroup = w;
rightKerningGroup = w;
unicode = 0077;
},
{
glyphname = x;
lastChange = "2017-02-10 03:27:51 +0000";
layers = (
{
layerId = "558B6FE6-F456-45D2-AA56-B37F51D1E4E1";
paths = (
{
closed = 1;
nodes = (
"296 273 LINE",
"376 240 LINE",
"541 500 LINE",
"434 500 LINE"
);
},
{
closed = 1;
nodes = (
"274 212 LINE",
"366 212 LINE",
"366 294 LINE",
"274 294 LINE"
);
},
{
closed = 1;
nodes = (
"541 0 LINE",
"371 273 LINE",
"272 273 LINE",
"434 0 LINE"
);
},
{
closed = 1;
nodes = (
"224 294 LINE",
"224 212 LINE",
"316 212 LINE",
"316 294 LINE"
);
},
{
closed = 1;
nodes = (
"49 500 LINE",
"214 240 LINE",
"294 273 LINE",
"156 500 LINE"
);
},
{
closed = 1;
nodes = (
"318 273 LINE",
"219 273 LINE",
"49 0 LINE",
"156 0 LINE"
);
}
);
width = 600;
},
{
layerId = "5521DC30-183F-421A-91F3-644B5E24AFE6";
paths = (
{
closed = 1;
nodes = (
"286 273 LINE",
"406 240 LINE",
"571 500 LINE",
"414 500 LINE"
);
},
{
closed = 1;
nodes = (
"274 192 LINE",
"366 192 LINE",
"366 314 LINE",
"274 314 LINE"
);
},
{
closed = 1;
nodes = (
"571 0 LINE",
"401 273 LINE",
"262 273 LINE",
"414 0 LINE"
);
},
{
closed = 1;
nodes = (
"224 314 LINE",
"224 192 LINE",
"316 192 LINE",
"316 314 LINE"
);
},
{
closed = 1;
nodes = (
"19 500 LINE",
"184 240 LINE",
"304 273 LINE",
"176 500 LINE"
);
},
{
closed = 1;
nodes = (
"328 273 LINE",
"189 273 LINE",
"19 0 LINE",
"176 0 LINE"
);
}
);
width = 600;
},
{
layerId = "BE68D89F-AB3F-4BDF-B332-ED50D7C47704";
paths = (
{
closed = 1;
nodes = (
"316 263 LINE",
"339 240 LINE",
"507 500 LINE",
"467 500 LINE"
);
},
{
closed = 1;
nodes = (
"274 237 LINE",
"331 237 LINE",
"331 269 LINE",
"274 269 LINE"
);
},
{
closed = 1;
nodes = (
"507 0 LINE",
"335 273 LINE",
"307 258 LINE",
"467 0 LINE"
);
},
{
closed = 1;
nodes = (
"259 269 LINE",
"259 237 LINE",
"316 237 LINE",
"316 269 LINE"
);
},
{
closed = 1;
nodes = (
"83 500 LINE",
"251 240 LINE",
"274 263 LINE",
"123 500 LINE"
);
},
{
closed = 1;
nodes = (
"283 258 LINE",
"255 273 LINE",
"83 0 LINE",
"123 0 LINE"
);
}
);
width = 600;
}
);
leftKerningGroup = x;
rightKerningGroup = x;
unicode = 0078;
},
{
glyphname = x.ss01;
lastChange = "2017-02-10 01:35:45 +0000";
layers = (
{
layerId = "558B6FE6-F456-45D2-AA56-B37F51D1E4E1";
paths = (
{
closed = 1;
nodes = (
"260 265 LINE",
"56 0 LINE",
"173 0 LINE",
"337 237 LINE"
);
},
{
closed = 1;
nodes = (
"337 237 LINE",
"547 500 LINE",
"431 500 LINE",
"260 265 LINE"
);
},
{
closed = 1;
nodes = (
"426 0 LINE",
"542 0 LINE",
"338 265 LINE",
"261 237 LINE"
);
},
{
closed = 1;
nodes = (
"173 500 LINE",
"56 500 LINE",
"261 237 LINE",
"338 265 LINE"
);
}
);
width = 600;
},
{
layerId = "5521DC30-183F-421A-91F3-644B5E24AFE6";
paths = (
{
closed = 1;
nodes = (
"230 265 LINE",
"26 0 LINE",
"193 0 LINE",
"367 237 LINE"
);
},
{
closed = 1;
nodes = (
"367 237 LINE",
"572 500 LINE",
"416 500 LINE",
"230 265 LINE"
);
},
{
closed = 1;
nodes = (
"406 0 LINE",
"572 0 LINE",
"368 265 LINE",
"231 237 LINE"
);
},
{
closed = 1;
nodes = (
"193 500 LINE",
"26 500 LINE",
"231 237 LINE",
"368 265 LINE"
);
}
);
width = 600;
},
{
layerId = "BE68D89F-AB3F-4BDF-B332-ED50D7C47704";
paths = (
{
closed = 1;
nodes = (
"289 265 LINE",
"102 0 LINE",
"143 0 LINE",
"308 237 LINE"
);
},
{
closed = 1;
nodes = (
"308 237 LINE",
"502 500 LINE",
"461 500 LINE",
"289 265 LINE"
);
},
{
closed = 1;
nodes = (
"456 0 LINE",
"497 0 LINE",
"309 265 LINE",
"290 237 LINE"
);
},
{
closed = 1;
nodes = (
"143 500 LINE",
"102 500 LINE",
"290 237 LINE",
"309 265 LINE"
);
}
);
width = 600;
}
);
},
{
glyphname = y;
lastChange = "2017-11-15 01:16:25 +0000";
layers = (
{
layerId = "558B6FE6-F456-45D2-AA56-B37F51D1E4E1";
paths = (
{
closed = 1;
nodes = (
"102 500 LINE",
"284 0 LINE",
"351 34 LINE",
"209 500 LINE"
);
},
{
closed = 1;
nodes = (
"436 500 LINE",
"294 34 LINE",
"371 0 LINE",
"543 500 LINE"
);
},
{
closed = 1;
nodes = (
"106 -183 LINE",
"113 -186 OFFCURVE",
"143 -192 OFFCURVE",
"168 -192 CURVE",
"259 -192 OFFCURVE",
"327 -118 OFFCURVE",
"371 0 CURVE",
"325 34 LINE",
"286 11 LINE",
"248 -75 OFFCURVE",
"223 -109 OFFCURVE",
"161 -109 CURVE",
"148 -109 OFFCURVE",
"138 -106 OFFCURVE",
"136 -105 CURVE"
);
}
);
width = 600;
},
{
layerId = "5521DC30-183F-421A-91F3-644B5E24AFE6";
paths = (
{
closed = 1;
nodes = (
"72 500 LINE",
"254 0 LINE",
"351 84 LINE",
"239 500 LINE"
);
},
{
closed = 1;
nodes = (
"406 500 LINE",
"294 84 LINE",
"401 0 LINE",
"573 500 LINE"
);
},
{
closed = 1;
nodes = (
"85 -175 LINE",
"92 -178 OFFCURVE",
"127 -192 OFFCURVE",
"178 -192 CURVE",
"299 -192 OFFCURVE",
"357 -118 OFFCURVE",
"401 0 CURVE",
"325 84 LINE",
"256 11 LINE",
"226 -60 OFFCURVE",
"195 -67 OFFCURVE",
"163 -67 CURVE",
"150 -67 OFFCURVE",
"131 -60 OFFCURVE",
"131 -60 CURVE"
);
}
);
width = 600;
},
{
layerId = "BE68D89F-AB3F-4BDF-B332-ED50D7C47704";
paths = (
{
closed = 1;
nodes = (
"132 500 LINE",
"312 0 LINE",
"333 43 LINE",
"172 500 LINE"
);
},
{
closed = 1;
nodes = (
"473 500 LINE",
"322 41 LINE",
"341 0 LINE",
"513 500 LINE"
);
},
{
closed = 1;
nodes = (
"130 -189 LINE",
"135 -190 OFFCURVE",
"149 -192 OFFCURVE",
"162 -192 CURVE",
"233 -192 OFFCURVE",
"297 -118 OFFCURVE",
"341 0 CURVE",
"323 43 LINE",
"313 19 LINE",
"278 -83 OFFCURVE",
"226 -159 OFFCURVE",
"161 -159 CURVE",
"149 -159 OFFCURVE",
"139 -157 OFFCURVE",
"139 -157 CURVE"
);
}
);
width = 600;
}
);
leftKerningGroup = y;
rightKerningGroup = y;
unicode = 0079;
},
{
glyphname = z;
lastChange = "2017-02-09 20:14:40 +0000";
layers = (
{
layerId = "558B6FE6-F456-45D2-AA56-B37F51D1E4E1";
paths = (
{
closed = 1;
nodes = (
"221 82 LINE",
"494 418 LINE",
"388 418 LINE",
"113 82 LINE"
);
},
{
closed = 1;
nodes = (
"121 418 LINE",
"494 418 LINE",
"494 500 LINE",
"121 500 LINE"
);
},
{
closed = 1;
nodes = (
"113 0 LINE",
"506 0 LINE",
"506 82 LINE",
"113 82 LINE"
);
}
);
width = 600;
},
{
layerId = "5521DC30-183F-421A-91F3-644B5E24AFE6";
paths = (
{
closed = 1;
nodes = (
"276 122 LINE",
"504 378 LINE",
"333 378 LINE",
"103 122 LINE"
);
},
{
closed = 1;
nodes = (
"111 378 LINE",
"504 378 LINE",
"504 500 LINE",
"111 500 LINE"
);
},
{
closed = 1;
nodes = (
"103 0 LINE",
"516 0 LINE",
"516 122 LINE",
"103 122 LINE"
);
}
);
width = 600;
},
{
layerId = "BE68D89F-AB3F-4BDF-B332-ED50D7C47704";
paths = (
{
closed = 1;
nodes = (
"165 32 LINE",
"494 468 LINE",
"454 468 LINE",
"123 32 LINE"
);
},
{
closed = 1;
nodes = (
"131 468 LINE",
"494 468 LINE",
"494 500 LINE",
"131 500 LINE"
);
},
{
closed = 1;
nodes = (
"123 0 LINE",
"496 0 LINE",
"496 32 LINE",
"123 32 LINE"
);
}
);
width = 600;
}
);
leftKerningGroup = z;
rightKerningGroup = z;
unicode = 007A;
},
{
glyphname = zero;
lastChange = "2017-02-14 20:49:41 +0000";
layers = (
{
layerId = "558B6FE6-F456-45D2-AA56-B37F51D1E4E1";
paths = (
{
closed = 1;
nodes = (
"418 -11 OFFCURVE",
"526 60 OFFCURVE",
"526 348 CURVE SMOOTH",
"526 635 OFFCURVE",
"418 706 OFFCURVE",
"302 706 CURVE SMOOTH",
"185 706 OFFCURVE",
"77 635 OFFCURVE",
"77 348 CURVE SMOOTH",
"77 60 OFFCURVE",
"185 -11 OFFCURVE",
"302 -11 CURVE SMOOTH"
);
},
{
closed = 1;
nodes = (
"239 72 OFFCURVE",
"175 124 OFFCURVE",
"175 348 CURVE SMOOTH",
"175 571 OFFCURVE",
"239 623 OFFCURVE",
"302 623 CURVE SMOOTH",
"364 623 OFFCURVE",
"428 571 OFFCURVE",
"428 348 CURVE SMOOTH",
"428 124 OFFCURVE",
"364 72 OFFCURVE",
"302 72 CURVE SMOOTH"
);
},
{
closed = 1;
nodes = (
"330 266 OFFCURVE",
"356 282 OFFCURVE",
"356 348 CURVE SMOOTH",
"356 413 OFFCURVE",
"330 429 OFFCURVE",
"302 429 CURVE SMOOTH",
"273 429 OFFCURVE",
"247 413 OFFCURVE",
"247 348 CURVE SMOOTH",
"247 282 OFFCURVE",
"273 266 OFFCURVE",
"302 266 CURVE SMOOTH"
);
}
);
width = 600;
},
{
layerId = "5521DC30-183F-421A-91F3-644B5E24AFE6";
paths = (
{
closed = 1;
nodes = (
"443 -11 OFFCURVE",
"566 60 OFFCURVE",
"566 348 CURVE SMOOTH",
"566 635 OFFCURVE",
"443 706 OFFCURVE",
"302 706 CURVE SMOOTH",
"160 706 OFFCURVE",
"37 635 OFFCURVE",
"37 348 CURVE SMOOTH",
"37 60 OFFCURVE",
"160 -11 OFFCURVE",
"302 -11 CURVE SMOOTH"
);
},
{
closed = 1;
nodes = (
"239 112 OFFCURVE",
"195 144 OFFCURVE",
"195 348 CURVE SMOOTH",
"195 551 OFFCURVE",
"239 583 OFFCURVE",
"302 583 CURVE SMOOTH",
"364 583 OFFCURVE",
"408 551 OFFCURVE",
"408 348 CURVE SMOOTH",
"408 144 OFFCURVE",
"364 112 OFFCURVE",
"302 112 CURVE SMOOTH"
);
},
{
closed = 1;
nodes = (
"336 254 OFFCURVE",
"367 263 OFFCURVE",
"367 348 CURVE SMOOTH",
"367 432 OFFCURVE",
"336 441 OFFCURVE",
"302 441 CURVE SMOOTH",
"267 441 OFFCURVE",
"236 432 OFFCURVE",
"236 348 CURVE SMOOTH",
"236 263 OFFCURVE",
"267 254 OFFCURVE",
"302 254 CURVE SMOOTH"
);
}
);
width = 600;
},
{
layerId = "BE68D89F-AB3F-4BDF-B332-ED50D7C47704";
paths = (
{
closed = 1;
nodes = (
"388 -11 OFFCURVE",
"496 70 OFFCURVE",
"496 348 CURVE SMOOTH",
"496 625 OFFCURVE",
"388 706 OFFCURVE",
"302 706 CURVE SMOOTH",
"205 706 OFFCURVE",
"107 625 OFFCURVE",
"107 348 CURVE SMOOTH",
"107 70 OFFCURVE",
"205 -11 OFFCURVE",
"302 -11 CURVE SMOOTH"
);
},
{
closed = 1;
nodes = (
"209 22 OFFCURVE",
"140 125 OFFCURVE",
"140 348 CURVE SMOOTH",
"140 571 OFFCURVE",
"209 673 OFFCURVE",
"302 673 CURVE SMOOTH",
"391 673 OFFCURVE",
"463 571 OFFCURVE",
"463 348 CURVE SMOOTH",
"463 125 OFFCURVE",
"391 22 OFFCURVE",
"302 22 CURVE SMOOTH"
);
},
{
closed = 1;
nodes = (
"321 283 OFFCURVE",
"344 296 OFFCURVE",
"344 348 CURVE SMOOTH",
"344 399 OFFCURVE",
"321 412 OFFCURVE",
"302 412 CURVE SMOOTH",
"282 412 OFFCURVE",
"259 399 OFFCURVE",
"259 348 CURVE SMOOTH",
"259 296 OFFCURVE",
"282 283 OFFCURVE",
"302 283 CURVE SMOOTH"
);
}
);
width = 600;
}
);
unicode = 0030;
},
{
glyphname = one;
lastChange = "2017-02-09 20:25:10 +0000";
layers = (
{
layerId = "558B6FE6-F456-45D2-AA56-B37F51D1E4E1";
paths = (
{
closed = 1;
nodes = (
"140 513 LINE",
"269 590 LINE",
"284 700 LINE",
"99 589 LINE"
);
},
{
closed = 1;
nodes = (
"362 56 LINE",
"362 700 LINE",
"284 700 LINE",
"269 590 LINE",
"269 31 LINE"
);
},
{
closed = 1;
nodes = (
"131 0 LINE",
"491 0 LINE",
"491 82 LINE",
"131 82 LINE"
);
}
);
width = 600;
},
{
layerId = "5521DC30-183F-421A-91F3-644B5E24AFE6";
paths = (
{
closed = 1;
nodes = (
"140 473 LINE",
"239 535 LINE",
"264 700 LINE",
"79 589 LINE"
);
},
{
closed = 1;
nodes = (
"392 56 LINE",
"392 700 LINE",
"264 700 LINE",
"239 535 LINE",
"239 31 LINE"
);
},
{
closed = 1;
nodes = (
"111 0 LINE",
"511 0 LINE",
"511 122 LINE",
"111 122 LINE"
);
}
);
width = 600;
},
{
layerId = "BE68D89F-AB3F-4BDF-B332-ED50D7C47704";
paths = (
{
closed = 1;
nodes = (
"137 568 LINE",
"299 664 LINE",
"299 700 LINE",
"122 596 LINE"
);
},
{
closed = 1;
nodes = (
"332 16 LINE",
"332 700 LINE",
"299 700 LINE",
"299 646 LINE",
"299 11 LINE"
);
},
{
closed = 1;
nodes = (
"141 0 LINE",
"481 0 LINE",
"481 32 LINE",
"141 32 LINE"
);
}
);
width = 600;
}
);
unicode = 0031;
},
{
glyphname = two;
lastChange = "2017-02-10 03:28:12 +0000";
layers = (
{
layerId = "558B6FE6-F456-45D2-AA56-B37F51D1E4E1";
paths = (
{
closed = 1;
nodes = (
"226 82 LINE",
"251 99 OFFCURVE",
"314 156 OFFCURVE",
"363 213 CURVE SMOOTH",
"445 307 OFFCURVE",
"510 404 OFFCURVE",
"510 505 CURVE SMOOTH",
"510 611 OFFCURVE",
"440 706 OFFCURVE",
"305 706 CURVE SMOOTH",
"207 706 OFFCURVE",
"120 659 OFFCURVE",
"83 585 CURVE",
"170 540 LINE",
"191 588 OFFCURVE",
"242 623 OFFCURVE",
"303 623 CURVE SMOOTH",
"369 623 OFFCURVE",
"412 577 OFFCURVE",
"412 505 CURVE SMOOTH",
"412 427 OFFCURVE",
"352 332 OFFCURVE",
"284 257 CURVE SMOOTH",
"231 197 OFFCURVE",
"165 142 OFFCURVE",
"88 82 CURVE"
);
},
{
closed = 1;
nodes = (
"507 0 LINE",
"507 82 LINE",
"88 82 LINE",
"88 0 LINE"
);
}
);
width = 600;
},
{
layerId = "5521DC30-183F-421A-91F3-644B5E24AFE6";
paths = (
{
closed = 1;
nodes = (
"297 122 LINE",
"303 126 OFFCURVE",
"349 164 OFFCURVE",
"398 221 CURVE SMOOTH",
"479 316 OFFCURVE",
"540 404 OFFCURVE",
"540 505 CURVE SMOOTH",
"540 631 OFFCURVE",
"450 706 OFFCURVE",
"305 706 CURVE SMOOTH",
"197 706 OFFCURVE",
"110 662 OFFCURVE",
"60 565 CURVE",
"188 500 LINE",
"209 540 OFFCURVE",
"242 583 OFFCURVE",
"298 583 CURVE SMOOTH",
"352 583 OFFCURVE",
"382 559 OFFCURVE",
"382 500 CURVE SMOOTH",
"382 422 OFFCURVE",
"323 352 OFFCURVE",
"255 277 CURVE SMOOTH",
"202 217 OFFCURVE",
"114 151 OFFCURVE",
"68 122 CURVE"
);
},
{
closed = 1;
nodes = (
"537 0 LINE",
"537 122 LINE",
"68 122 LINE",
"68 0 LINE"
);
}
);
width = 600;
},
{
layerId = "BE68D89F-AB3F-4BDF-B332-ED50D7C47704";
paths = (
{
closed = 1;
nodes = (
"151 32 LINE",
"130 11 OFFCURVE",
"216 83 OFFCURVE",
"263 126 CURVE SMOOTH",
"402 253 OFFCURVE",
"497 382 OFFCURVE",
"497 506 CURVE SMOOTH",
"497 614 OFFCURVE",
"433 706 OFFCURVE",
"305 706 CURVE SMOOTH",
"228 706 OFFCURVE",
"149 672 OFFCURVE",
"105 613 CURVE",
"140 594 LINE",
"169 642 OFFCURVE",
"236 673 OFFCURVE",
"303 673 CURVE SMOOTH",
"410 673 OFFCURVE",
"460 595 OFFCURVE",
"460 506 CURVE SMOOTH",
"460 401 OFFCURVE",
"383 282 OFFCURVE",
"245 156 CURVE SMOOTH",
"208 123 OFFCURVE",
"151 74 OFFCURVE",
"98 32 CURVE"
);
},
{
closed = 1;
nodes = (
"497 0 LINE",
"497 32 LINE",
"98 32 LINE",
"98 0 LINE"
);
}
);
width = 600;
}
);
unicode = 0032;
},
{
glyphname = three;
lastChange = "2017-02-09 21:27:08 +0000";
layers = (
{
layerId = "558B6FE6-F456-45D2-AA56-B37F51D1E4E1";
paths = (
{
closed = 1;
nodes = (
"448 -11 OFFCURVE",
"533 67 OFFCURVE",
"533 196 CURVE SMOOTH",
"533 290 OFFCURVE",
"474 360 OFFCURVE",
"347 371 CURVE SMOOTH",
"343 371 OFFCURVE",
"285 313 OFFCURVE",
"291 313 CURVE SMOOTH",
"401 313 OFFCURVE",
"434 262 OFFCURVE",
"434 196 CURVE SMOOTH",
"434 122 OFFCURVE",
"393 72 OFFCURVE",
"308 72 CURVE SMOOTH",
"240 72 OFFCURVE",
"182 105 OFFCURVE",
"160 155 CURVE",
"73 110 LINE",
"111 34 OFFCURVE",
"199 -11 OFFCURVE",
"308 -11 CURVE SMOOTH"
);
},
{
closed = 1;
nodes = (
"401 313 LINE",
"401 395 LINE",
"263 395 LINE",
"263 313 LINE"
);
},
{
closed = 1;
nodes = (
"467 362 OFFCURVE",
"519 433 OFFCURVE",
"519 520 CURVE SMOOTH",
"519 639 OFFCURVE",
"434 706 OFFCURVE",
"303 706 CURVE SMOOTH",
"203 706 OFFCURVE",
"123 659 OFFCURVE",
"86 585 CURVE",
"173 540 LINE",
"194 588 OFFCURVE",
"244 623 OFFCURVE",
"303 623 CURVE SMOOTH",
"379 623 OFFCURVE",
"420 594 OFFCURVE",
"420 520 CURVE SMOOTH",
"420 458 OFFCURVE",
"401 395 OFFCURVE",
"291 395 CURVE SMOOTH",
"285 395 OFFCURVE",
"337 336 OFFCURVE",
"341 337 CURVE SMOOTH"
);
}
);
width = 600;
},
{
layerId = "5521DC30-183F-421A-91F3-644B5E24AFE6";
paths = (
{
closed = 1;
nodes = (
"448 -11 OFFCURVE",
"553 67 OFFCURVE",
"553 196 CURVE SMOOTH",
"553 290 OFFCURVE",
"499 361 OFFCURVE",
"377 371 CURVE SMOOTH",
"373 371 OFFCURVE",
"265 293 OFFCURVE",
"271 293 CURVE SMOOTH",
"381 293 OFFCURVE",
"404 246 OFFCURVE",
"404 200 CURVE SMOOTH",
"404 146 OFFCURVE",
"370 112 OFFCURVE",
"305 112 CURVE SMOOTH",
"237 112 OFFCURVE",
"192 145 OFFCURVE",
"170 195 CURVE",
"48 130 LINE",
"86 54 OFFCURVE",
"179 -11 OFFCURVE",
"308 -11 CURVE SMOOTH"
);
},
{
closed = 1;
nodes = (
"401 293 LINE",
"401 415 LINE",
"233 415 LINE",
"233 293 LINE"
);
},
{
closed = 1;
nodes = (
"491 368 OFFCURVE",
"539 433 OFFCURVE",
"539 520 CURVE SMOOTH",
"539 639 OFFCURVE",
"434 706 OFFCURVE",
"303 706 CURVE SMOOTH",
"183 706 OFFCURVE",
"98 639 OFFCURVE",
"61 565 CURVE",
"183 500 LINE",
"204 548 OFFCURVE",
"244 583 OFFCURVE",
"303 583 CURVE SMOOTH",
"359 583 OFFCURVE",
"390 560 OFFCURVE",
"390 506 CURVE SMOOTH",
"390 464 OFFCURVE",
"381 415 OFFCURVE",
"271 415 CURVE SMOOTH",
"265 415 OFFCURVE",
"367 336 OFFCURVE",
"371 337 CURVE SMOOTH"
);
}
);
width = 600;
},
{
layerId = "BE68D89F-AB3F-4BDF-B332-ED50D7C47704";
paths = (
{
closed = 1;
nodes = (
"435 -11 OFFCURVE",
"515 61 OFFCURVE",
"515 194 CURVE SMOOTH",
"515 299 OFFCURVE",
"443 364 OFFCURVE",
"327 367 CURVE SMOOTH",
"323 367 OFFCURVE",
"285 338 OFFCURVE",
"291 338 CURVE SMOOTH",
"421 338 OFFCURVE",
"476 283 OFFCURVE",
"476 194 CURVE SMOOTH",
"476 70 OFFCURVE",
"394 22 OFFCURVE",
"308 22 CURVE SMOOTH",
"212 22 OFFCURVE",
"152 59 OFFCURVE",
"128 101 CURVE",
"94 82 LINE",
"134 24 OFFCURVE",
"209 -11 OFFCURVE",
"308 -11 CURVE SMOOTH"
);
},
{
closed = 1;
nodes = (
"391 338 LINE",
"391 370 LINE",
"278 370 LINE",
"278 338 LINE"
);
},
{
closed = 1;
nodes = (
"459 353 OFFCURVE",
"499 435 OFFCURVE",
"499 520 CURVE SMOOTH",
"499 659 OFFCURVE",
"407 706 OFFCURVE",
"303 706 CURVE SMOOTH",
"200 706 OFFCURVE",
"132 661 OFFCURVE",
"107 610 CURVE",
"141 593 LINE",
"160 638 OFFCURVE",
"228 673 OFFCURVE",
"303 673 CURVE SMOOTH",
"382 673 OFFCURVE",
"460 636 OFFCURVE",
"460 520 CURVE SMOOTH",
"460 430 OFFCURVE",
"411 370 OFFCURVE",
"291 370 CURVE SMOOTH",
"285 370 OFFCURVE",
"317 337 OFFCURVE",
"321 337 CURVE SMOOTH"
);
}
);
width = 600;
}
);
unicode = 0033;
},
{
glyphname = four;
lastChange = "2017-02-09 21:15:46 +0000";
layers = (
{
layerId = "558B6FE6-F456-45D2-AA56-B37F51D1E4E1";
paths = (
{
closed = 1;
nodes = (
"173 234 LINE",
"314 649 LINE",
"237 700 LINE",
"78 234 LINE"
);
},
{
closed = 1;
nodes = (
"382 618 LINE",
"382 700 LINE",
"237 700 LINE",
"237 618 LINE"
);
},
{
closed = 1;
nodes = (
"412 0 LINE",
"412 700 LINE",
"319 700 LINE",
"319 0 LINE"
);
},
{
closed = 1;
nodes = (
"531 152 LINE",
"531 234 LINE",
"78 234 LINE",
"78 152 LINE"
);
}
);
width = 600;
},
{
layerId = "5521DC30-183F-421A-91F3-644B5E24AFE6";
paths = (
{
closed = 1;
nodes = (
"198 254 LINE",
"322 631 LINE",
"213 700 LINE",
"56 254 LINE"
);
},
{
closed = 1;
nodes = (
"386 578 LINE",
"386 700 LINE",
"213 700 LINE",
"213 578 LINE"
);
},
{
closed = 1;
nodes = (
"452 0 LINE",
"452 700 LINE",
"304 700 LINE",
"299 0 LINE"
);
},
{
closed = 1;
nodes = (
"551 132 LINE",
"551 254 LINE",
"56 254 LINE",
"56 132 LINE"
);
}
);
width = 600;
},
{
layerId = "BE68D89F-AB3F-4BDF-B332-ED50D7C47704";
paths = (
{
closed = 1;
nodes = (
"133 208 LINE",
"305 682 LINE",
"277 700 LINE",
"98 208 LINE"
);
},
{
closed = 1;
nodes = (
"372 668 LINE",
"372 700 LINE",
"277 700 LINE",
"277 668 LINE"
);
},
{
closed = 1;
nodes = (
"382 0 LINE",
"382 700 LINE",
"349 700 LINE",
"349 0 LINE"
);
},
{
closed = 1;
nodes = (
"511 176 LINE",
"511 208 LINE",
"98 208 LINE",
"98 176 LINE"
);
}
);
width = 600;
}
);
unicode = 0034;
},
{
glyphname = five;
lastChange = "2017-02-09 21:57:48 +0000";
layers = (
{
layerId = "558B6FE6-F456-45D2-AA56-B37F51D1E4E1";
paths = (
{
closed = 1;
nodes = (
"424 -11 OFFCURVE",
"517 80 OFFCURVE",
"517 231 CURVE SMOOTH",
"517 384 OFFCURVE",
"446 466 OFFCURVE",
"309 466 CURVE SMOOTH",
"228 466 OFFCURVE",
"151 419 OFFCURVE",
"123 329 CURVE",
"170 296 LINE",
"200 358 OFFCURVE",
"265 383 OFFCURVE",
"309 383 CURVE SMOOTH",
"392 383 OFFCURVE",
"419 320 OFFCURVE",
"419 231 CURVE SMOOTH",
"419 144 OFFCURVE",
"379 72 OFFCURVE",
"290 72 CURVE SMOOTH",
"226 72 OFFCURVE",
"181 90 OFFCURVE",
"148 148 CURVE",
"62 103 LINE",
"110 21 OFFCURVE",
"189 -11 OFFCURVE",
"287 -11 CURVE SMOOTH"
);
},
{
closed = 1;
nodes = (
"203 673 LINE",
"118 700 LINE",
"83 334 LINE",
"170 296 LINE"
);
},
{
closed = 1;
nodes = (
"479 618 LINE",
"479 700 LINE",
"118 700 LINE",
"118 618 LINE"
);
}
);
width = 600;
},
{
layerId = "5521DC30-183F-421A-91F3-644B5E24AFE6";
paths = (
{
closed = 1;
nodes = (
"429 -11 OFFCURVE",
"537 60 OFFCURVE",
"537 231 CURVE SMOOTH",
"537 394 OFFCURVE",
"449 469 OFFCURVE",
"312 469 CURVE SMOOTH",
"211 469 OFFCURVE",
"141 419 OFFCURVE",
"113 329 CURVE",
"185 273 LINE",
"202 320 OFFCURVE",
"244 339 OFFCURVE",
"298 339 CURVE SMOOTH",
"360 339 OFFCURVE",
"389 311 OFFCURVE",
"389 236 CURVE SMOOTH",
"389 159 OFFCURVE",
"354 112 OFFCURVE",
"292 112 CURVE SMOOTH",
"224 112 OFFCURVE",
"186 151 OFFCURVE",
"171 186 CURVE",
"43 114 LINE",
"95 22 OFFCURVE",
"170 -11 OFFCURVE",
"292 -11 CURVE SMOOTH"
);
},
{
closed = 1;
nodes = (
"230 673 LINE",
"98 700 LINE",
"62 325 LINE",
"185 273 LINE"
);
},
{
closed = 1;
nodes = (
"504 578 LINE",
"504 700 LINE",
"98 700 LINE",
"118 578 LINE"
);
}
);
width = 600;
},
{
layerId = "BE68D89F-AB3F-4BDF-B332-ED50D7C47704";
paths = (
{
closed = 1;
nodes = (
"424 -11 OFFCURVE",
"497 77 OFFCURVE",
"497 231 CURVE SMOOTH",
"497 386 OFFCURVE",
"428 462 OFFCURVE",
"308 462 CURVE SMOOTH",
"212 462 OFFCURVE",
"148 414 OFFCURVE",
"132 341 CURVE",
"142 314 LINE",
"181 394 OFFCURVE",
"230 429 OFFCURVE",
"308 429 CURVE SMOOTH",
"412 429 OFFCURVE",
"459 359 OFFCURVE",
"459 231 CURVE SMOOTH",
"459 88 OFFCURVE",
"397 22 OFFCURVE",
"285 22 CURVE SMOOTH",
"213 22 OFFCURVE",
"148 48 OFFCURVE",
"117 95 CURVE",
"83 76 LINE",
"126 19 OFFCURVE",
"198 -11 OFFCURVE",
"282 -11 CURVE SMOOTH"
);
},
{
closed = 1;
nodes = (
"178 673 LINE",
"148 700 LINE",
"113 327 LINE",
"142 314 LINE"
);
},
{
closed = 1;
nodes = (
"479 668 LINE",
"479 700 LINE",
"148 700 LINE",
"148 668 LINE"
);
}
);
width = 600;
}
);
unicode = 0035;
},
{
glyphname = six;
lastChange = "2017-02-09 21:26:43 +0000";
layers = (
{
layerId = "558B6FE6-F456-45D2-AA56-B37F51D1E4E1";
paths = (
{
closed = 1;
nodes = (
"480 685 LINE",
"445 701 OFFCURVE",
"396 709 OFFCURVE",
"347 706 CURVE SMOOTH",
"211 698 OFFCURVE",
"70 590 OFFCURVE",
"70 328 CURVE SMOOTH",
"70 75 OFFCURVE",
"158 -11 OFFCURVE",
"305 -11 CURVE",
"305 72 LINE",
"212 72 OFFCURVE",
"168 139 OFFCURVE",
"168 328 CURVE SMOOTH",
"168 526 OFFCURVE",
"266 618 OFFCURVE",
"347 623 CURVE SMOOTH",
"381 625 OFFCURVE",
"417 621 OFFCURVE",
"440 609 CURVE"
);
},
{
closed = 1;
nodes = (
"305 -11 LINE",
"442 -11 OFFCURVE",
"527 80 OFFCURVE",
"527 231 CURVE SMOOTH",
"527 384 OFFCURVE",
"457 467 OFFCURVE",
"320 467 CURVE SMOOTH",
"229 467 OFFCURVE",
"170 423 OFFCURVE",
"122 333 CURVE",
"166 296 LINE",
"196 358 OFFCURVE",
"256 384 OFFCURVE",
"320 384 CURVE SMOOTH",
"403 384 OFFCURVE",
"429 320 OFFCURVE",
"429 231 CURVE SMOOTH",
"429 144 OFFCURVE",
"388 72 OFFCURVE",
"305 72 CURVE"
);
}
);
width = 600;
},
{
layerId = "5521DC30-183F-421A-91F3-644B5E24AFE6";
paths = (
{
closed = 1;
nodes = (
"510 671 LINE",
"489 686 OFFCURVE",
"440 709 OFFCURVE",
"347 706 CURVE SMOOTH",
"211 702 OFFCURVE",
"50 610 OFFCURVE",
"50 328 CURVE SMOOTH",
"50 75 OFFCURVE",
"138 -11 OFFCURVE",
"305 -11 CURVE",
"305 112 LINE",
"242 112 OFFCURVE",
"198 139 OFFCURVE",
"198 328 CURVE SMOOTH",
"198 526 OFFCURVE",
"266 579 OFFCURVE",
"347 583 CURVE SMOOTH",
"405 586 OFFCURVE",
"435 573 OFFCURVE",
"448 564 CURVE"
);
},
{
closed = 1;
nodes = (
"305 -11 LINE",
"462 -11 OFFCURVE",
"547 83 OFFCURVE",
"547 234 CURVE SMOOTH",
"547 387 OFFCURVE",
"483 472 OFFCURVE",
"326 472 CURVE SMOOTH",
"235 472 OFFCURVE",
"170 423 OFFCURVE",
"122 333 CURVE",
"196 266 LINE",
"212 299 OFFCURVE",
"251 339 OFFCURVE",
"315 339 CURVE SMOOTH",
"368 339 OFFCURVE",
"399 323 OFFCURVE",
"399 234 CURVE SMOOTH",
"399 147 OFFCURVE",
"358 112 OFFCURVE",
"305 112 CURVE"
);
}
);
width = 600;
},
{
layerId = "BE68D89F-AB3F-4BDF-B332-ED50D7C47704";
paths = (
{
closed = 1;
nodes = (
"456 689 LINE",
"436 700 OFFCURVE",
"396 709 OFFCURVE",
"347 706 CURVE SMOOTH",
"211 698 OFFCURVE",
"90 590 OFFCURVE",
"90 328 CURVE SMOOTH",
"90 85 OFFCURVE",
"168 -11 OFFCURVE",
"305 -11 CURVE",
"305 22 LINE",
"188 22 OFFCURVE",
"128 108 OFFCURVE",
"128 328 CURVE SMOOTH",
"128 575 OFFCURVE",
"241 666 OFFCURVE",
"349 672 CURVE SMOOTH",
"385 674 OFFCURVE",
"417 668 OFFCURVE",
"439 655 CURVE"
);
},
{
closed = 1;
nodes = (
"305 -11 LINE",
"442 -11 OFFCURVE",
"507 80 OFFCURVE",
"507 231 CURVE SMOOTH",
"507 384 OFFCURVE",
"447 462 OFFCURVE",
"320 462 CURVE SMOOTH",
"229 462 OFFCURVE",
"134 424 OFFCURVE",
"106 322 CURVE",
"126 296 LINE",
"156 398 OFFCURVE",
"242 429 OFFCURVE",
"320 429 CURVE SMOOTH",
"418 429 OFFCURVE",
"469 370 OFFCURVE",
"469 231 CURVE SMOOTH",
"469 94 OFFCURVE",
"413 22 OFFCURVE",
"305 22 CURVE"
);
}
);
width = 600;
}
);
unicode = 0036;
},
{
glyphname = seven;
lastChange = "2017-02-09 21:17:33 +0000";
layers = (
{
layerId = "558B6FE6-F456-45D2-AA56-B37F51D1E4E1";
paths = (
{
closed = 1;
nodes = (
"420 618 LINE",
"134 0 LINE",
"238 0 LINE",
"515 618 LINE"
);
},
{
closed = 1;
nodes = (
"515 700 LINE",
"94 700 LINE",
"94 618 LINE",
"515 618 LINE"
);
}
);
width = 600;
},
{
layerId = "5521DC30-183F-421A-91F3-644B5E24AFE6";
paths = (
{
closed = 1;
nodes = (
"370 578 LINE",
"104 0 LINE",
"264 0 LINE",
"525 578 LINE"
);
},
{
closed = 1;
nodes = (
"525 700 LINE",
"74 700 LINE",
"74 578 LINE",
"525 578 LINE"
);
}
);
width = 600;
},
{
layerId = "BE68D89F-AB3F-4BDF-B332-ED50D7C47704";
paths = (
{
closed = 1;
nodes = (
"480 668 LINE",
"195 0 LINE",
"230 0 LINE",
"515 668 LINE"
);
},
{
closed = 1;
nodes = (
"515 700 LINE",
"114 700 LINE",
"114 668 LINE",
"515 668 LINE"
);
}
);
width = 600;
}
);
unicode = 0037;
},
{
glyphname = eight;
lastChange = "2017-02-09 21:56:21 +0000";
layers = (
{
layerId = "558B6FE6-F456-45D2-AA56-B37F51D1E4E1";
paths = (
{
closed = 1;
nodes = (
"439 -11 OFFCURVE",
"537 58 OFFCURVE",
"537 201 CURVE SMOOTH",
"537 343 OFFCURVE",
"419 410 OFFCURVE",
"303 410 CURVE SMOOTH",
"186 410 OFFCURVE",
"68 343 OFFCURVE",
"68 201 CURVE SMOOTH",
"68 58 OFFCURVE",
"166 -11 OFFCURVE",
"303 -11 CURVE SMOOTH"
);
},
{
closed = 1;
nodes = (
"220 72 OFFCURVE",
"166 117 OFFCURVE",
"166 201 CURVE SMOOTH",
"166 284 OFFCURVE",
"230 327 OFFCURVE",
"303 327 CURVE SMOOTH",
"375 327 OFFCURVE",
"439 284 OFFCURVE",
"439 201 CURVE SMOOTH",
"439 117 OFFCURVE",
"385 72 OFFCURVE",
"303 72 CURVE SMOOTH"
);
},
{
closed = 1;
nodes = (
"409 327 OFFCURVE",
"507 393 OFFCURVE",
"507 516 CURVE SMOOTH",
"507 638 OFFCURVE",
"419 707 OFFCURVE",
"303 707 CURVE SMOOTH",
"186 707 OFFCURVE",
"98 638 OFFCURVE",
"98 516 CURVE SMOOTH",
"98 393 OFFCURVE",
"196 327 OFFCURVE",
"303 327 CURVE SMOOTH"
);
},
{
closed = 1;
nodes = (
"230 410 OFFCURVE",
"196 452 OFFCURVE",
"196 516 CURVE SMOOTH",
"196 579 OFFCURVE",
"230 624 OFFCURVE",
"303 624 CURVE SMOOTH",
"375 624 OFFCURVE",
"409 579 OFFCURVE",
"409 516 CURVE SMOOTH",
"409 452 OFFCURVE",
"375 410 OFFCURVE",
"303 410 CURVE SMOOTH"
);
}
);
width = 600;
},
{
layerId = "5521DC30-183F-421A-91F3-644B5E24AFE6";
paths = (
{
closed = 1;
nodes = (
"459 -11 OFFCURVE",
"557 68 OFFCURVE",
"557 201 CURVE SMOOTH",
"557 363 OFFCURVE",
"419 410 OFFCURVE",
"303 410 CURVE SMOOTH",
"186 410 OFFCURVE",
"48 363 OFFCURVE",
"48 201 CURVE SMOOTH",
"48 68 OFFCURVE",
"146 -11 OFFCURVE",
"303 -11 CURVE SMOOTH"
);
},
{
closed = 1;
nodes = (
"250 112 OFFCURVE",
"204 132 OFFCURVE",
"204 211 CURVE SMOOTH",
"204 289 OFFCURVE",
"260 310 OFFCURVE",
"303 310 CURVE SMOOTH",
"345 310 OFFCURVE",
"401 289 OFFCURVE",
"401 211 CURVE SMOOTH",
"401 132 OFFCURVE",
"355 112 OFFCURVE",
"303 112 CURVE SMOOTH"
);
},
{
closed = 1;
nodes = (
"409 327 OFFCURVE",
"527 393 OFFCURVE",
"527 516 CURVE SMOOTH",
"527 638 OFFCURVE",
"439 707 OFFCURVE",
"303 707 CURVE SMOOTH",
"166 707 OFFCURVE",
"78 638 OFFCURVE",
"78 516 CURVE SMOOTH",
"78 393 OFFCURVE",
"196 327 OFFCURVE",
"303 327 CURVE SMOOTH"
);
},
{
closed = 1;
nodes = (
"260 427 OFFCURVE",
"225 453 OFFCURVE",
"225 510 CURVE SMOOTH",
"225 566 OFFCURVE",
"260 584 OFFCURVE",
"303 584 CURVE SMOOTH",
"345 584 OFFCURVE",
"380 566 OFFCURVE",
"380 510 CURVE SMOOTH",
"380 453 OFFCURVE",
"345 427 OFFCURVE",
"303 427 CURVE SMOOTH"
);
}
);
width = 600;
},
{
layerId = "BE68D89F-AB3F-4BDF-B332-ED50D7C47704";
paths = (
{
closed = 1;
nodes = (
"424 -11 OFFCURVE",
"517 53 OFFCURVE",
"517 196 CURVE SMOOTH",
"517 328 OFFCURVE",
"412 385 OFFCURVE",
"303 385 CURVE SMOOTH",
"188 385 OFFCURVE",
"88 328 OFFCURVE",
"88 196 CURVE SMOOTH",
"88 53 OFFCURVE",
"181 -11 OFFCURVE",
"303 -11 CURVE SMOOTH"
);
},
{
closed = 1;
nodes = (
"195 22 OFFCURVE",
"126 80 OFFCURVE",
"126 194 CURVE SMOOTH",
"126 305 OFFCURVE",
"190 352 OFFCURVE",
"303 352 CURVE SMOOTH",
"415 352 OFFCURVE",
"479 305 OFFCURVE",
"479 194 CURVE SMOOTH",
"479 80 OFFCURVE",
"410 22 OFFCURVE",
"303 22 CURVE SMOOTH"
);
},
{
closed = 1;
nodes = (
"409 352 OFFCURVE",
"487 406 OFFCURVE",
"487 529 CURVE SMOOTH",
"487 651 OFFCURVE",
"399 707 OFFCURVE",
"303 707 CURVE SMOOTH",
"206 707 OFFCURVE",
"118 651 OFFCURVE",
"118 529 CURVE SMOOTH",
"118 406 OFFCURVE",
"196 352 OFFCURVE",
"303 352 CURVE SMOOTH"
);
},
{
closed = 1;
nodes = (
"194 385 OFFCURVE",
"156 440 OFFCURVE",
"156 529 CURVE SMOOTH",
"156 637 OFFCURVE",
"220 674 OFFCURVE",
"303 674 CURVE SMOOTH",
"385 674 OFFCURVE",
"449 637 OFFCURVE",
"449 529 CURVE SMOOTH",
"449 440 OFFCURVE",
"418 385 OFFCURVE",
"303 385 CURVE SMOOTH"
);
}
);
width = 600;
}
);
unicode = 0038;
},
{
glyphname = nine;
lastChange = "2017-02-09 22:03:08 +0000";
layers = (
{
layerId = "558B6FE6-F456-45D2-AA56-B37F51D1E4E1";
paths = (
{
closed = 1;
nodes = (
"292 707 LINE",
"155 707 OFFCURVE",
"70 616 OFFCURVE",
"70 465 CURVE SMOOTH",
"70 312 OFFCURVE",
"143 229 OFFCURVE",
"280 229 CURVE SMOOTH",
"371 229 OFFCURVE",
"427 273 OFFCURVE",
"475 363 CURVE",
"431 400 LINE",
"401 338 OFFCURVE",
"341 312 OFFCURVE",
"277 312 CURVE SMOOTH",
"194 312 OFFCURVE",
"168 376 OFFCURVE",
"168 465 CURVE SMOOTH",
"168 552 OFFCURVE",
"209 624 OFFCURVE",
"292 624 CURVE"
);
},
{
closed = 1;
nodes = (
"133 0 LINE",
"145 0 OFFCURVE",
"229 -3 OFFCURVE",
"307 21 CURVE SMOOTH",
"428 58 OFFCURVE",
"527 136 OFFCURVE",
"527 398 CURVE SMOOTH",
"527 631 OFFCURVE",
"439 707 OFFCURVE",
"292 707 CURVE",
"292 624 LINE",
"385 624 OFFCURVE",
"429 567 OFFCURVE",
"429 398 CURVE SMOOTH",
"429 200 OFFCURVE",
"375 130 OFFCURVE",
"297 103 CURVE SMOOTH",
"233 81 OFFCURVE",
"143 81 OFFCURVE",
"133 81 CURVE"
);
}
);
width = 600;
},
{
layerId = "5521DC30-183F-421A-91F3-644B5E24AFE6";
paths = (
{
closed = 1;
nodes = (
"292 707 LINE",
"135 707 OFFCURVE",
"50 616 OFFCURVE",
"50 465 CURVE SMOOTH",
"50 312 OFFCURVE",
"123 224 OFFCURVE",
"280 224 CURVE SMOOTH",
"371 224 OFFCURVE",
"443 273 OFFCURVE",
"491 363 CURVE",
"411 428 LINE",
"381 366 OFFCURVE",
"333 347 OFFCURVE",
"289 347 CURVE SMOOTH",
"245 347 OFFCURVE",
"208 377 OFFCURVE",
"208 464 CURVE SMOOTH",
"208 551 OFFCURVE",
"229 584 OFFCURVE",
"292 584 CURVE"
);
},
{
closed = 1;
nodes = (
"103 0 LINE",
"115 0 OFFCURVE",
"229 -3 OFFCURVE",
"307 21 CURVE SMOOTH",
"428 58 OFFCURVE",
"547 126 OFFCURVE",
"547 398 CURVE SMOOTH",
"547 631 OFFCURVE",
"459 707 OFFCURVE",
"292 707 CURVE",
"292 584 LINE",
"355 584 OFFCURVE",
"389 567 OFFCURVE",
"389 398 CURVE SMOOTH",
"389 220 OFFCURVE",
"346 170 OFFCURVE",
"297 149 CURVE SMOOTH",
"233 121 OFFCURVE",
"138 121 OFFCURVE",
"103 121 CURVE"
);
}
);
width = 600;
},
{
layerId = "BE68D89F-AB3F-4BDF-B332-ED50D7C47704";
paths = (
{
closed = 1;
nodes = (
"292 707 LINE",
"175 707 OFFCURVE",
"90 616 OFFCURVE",
"90 465 CURVE SMOOTH",
"90 312 OFFCURVE",
"163 234 OFFCURVE",
"280 234 CURVE SMOOTH",
"371 234 OFFCURVE",
"427 273 OFFCURVE",
"475 363 CURVE",
"471 420 LINE",
"441 338 OFFCURVE",
"381 267 OFFCURVE",
"277 267 CURVE SMOOTH",
"181 267 OFFCURVE",
"128 326 OFFCURVE",
"128 465 CURVE SMOOTH",
"128 602 OFFCURVE",
"189 674 OFFCURVE",
"292 674 CURVE"
);
},
{
closed = 1;
nodes = (
"143 0 LINE",
"155 0 OFFCURVE",
"231 1 OFFCURVE",
"307 31 CURVE SMOOTH",
"428 78 OFFCURVE",
"507 196 OFFCURVE",
"507 408 CURVE SMOOTH",
"507 634 OFFCURVE",
"419 707 OFFCURVE",
"292 707 CURVE",
"292 674 LINE",
"405 674 OFFCURVE",
"471 620 OFFCURVE",
"471 408 CURVE SMOOTH",
"471 210 OFFCURVE",
"405 109 OFFCURVE",
"297 63 CURVE SMOOTH",
"235 37 OFFCURVE",
"153 32 OFFCURVE",
"143 32 CURVE"
);
}
);
width = 600;
}
);
unicode = 0039;
},
{
glyphname = three.ss01;
lastChange = "2017-11-15 01:41:14 +0000";
layers = (
{
layerId = "BE68D89F-AB3F-4BDF-B332-ED50D7C47704";
paths = (
{
closed = 1;
nodes = (
"443 -11 OFFCURVE",
"526 71 OFFCURVE",
"526 197 CURVE SMOOTH",
"526 337 OFFCURVE",
"401 418 OFFCURVE",
"288 372 CURVE",
"265 336 LINE",
"377 385 OFFCURVE",
"486 325 OFFCURVE",
"486 197 CURVE SMOOTH",
"486 91 OFFCURVE",
"417 22 OFFCURVE",
"305 22 CURVE SMOOTH",
"227 22 OFFCURVE",
"155 54 OFFCURVE",
"128 101 CURVE",
"93 80 LINE",
"134 24 OFFCURVE",
"217 -11 OFFCURVE",
"308 -11 CURVE SMOOTH"
);
},
{
closed = 1;
nodes = (
"467 668 LINE",
"237 359 LINE",
"265 336 LINE",
"510 668 LINE"
);
},
{
closed = 1;
nodes = (
"510 700 LINE",
"133 700 LINE",
"133 668 LINE",
"510 668 LINE"
);
}
);
width = 600;
},
{
layerId = "5521DC30-183F-421A-91F3-644B5E24AFE6";
paths = (
{
closed = 1;
nodes = (
"448 -11 OFFCURVE",
"553 90 OFFCURVE",
"553 219 CURVE SMOOTH",
"553 348 OFFCURVE",
"452 428 OFFCURVE",
"334 402 CURVE",
"261 309 LINE",
"360 335 OFFCURVE",
"410 275 OFFCURVE",
"410 219 CURVE SMOOTH",
"410 156 OFFCURVE",
"370 112 OFFCURVE",
"305 112 CURVE SMOOTH",
"237 112 OFFCURVE",
"192 145 OFFCURVE",
"170 195 CURVE",
"48 130 LINE",
"86 54 OFFCURVE",
"179 -11 OFFCURVE",
"308 -11 CURVE SMOOTH"
);
},
{
closed = 1;
nodes = (
"349 578 LINE",
"178 402 LINE",
"261 309 LINE",
"524 578 LINE"
);
},
{
closed = 1;
nodes = (
"524 700 LINE",
"73 700 LINE",
"73 578 LINE",
"524 578 LINE"
);
}
);
width = 600;
},
{
layerId = "558B6FE6-F456-45D2-AA56-B37F51D1E4E1";
paths = (
{
closed = 1;
nodes = (
"450 -11 OFFCURVE",
"536 84 OFFCURVE",
"536 212 CURVE SMOOTH",
"536 336 OFFCURVE",
"429 417 OFFCURVE",
"315 383 CURVE",
"273 315 LINE",
"364 352 OFFCURVE",
"443 310 OFFCURVE",
"443 212 CURVE SMOOTH",
"443 127 OFFCURVE",
"392 72 OFFCURVE",
"305 72 CURVE SMOOTH",
"235 72 OFFCURVE",
"188 100 OFFCURVE",
"160 155 CURVE",
"73 110 LINE",
"113 31 OFFCURVE",
"191 -11 OFFCURVE",
"308 -11 CURVE SMOOTH"
);
},
{
closed = 1;
nodes = (
"404 618 LINE",
"208 381 LINE",
"273 315 LINE",
"514 618 LINE"
);
},
{
closed = 1;
nodes = (
"514 700 LINE",
"103 700 LINE",
"103 618 LINE",
"514 618 LINE"
);
}
);
width = 600;
}
);
},
{
glyphname = fraction;
lastChange = "2017-11-14 21:32:15 +0000";
layers = (
{
layerId = "BE68D89F-AB3F-4BDF-B332-ED50D7C47704";
paths = (
{
closed = 1;
nodes = (
"501 800 LINE",
"62 -142 LINE",
"92 -142 LINE",
"531 800 LINE"
);
}
);
width = 600;
},
{
layerId = "558B6FE6-F456-45D2-AA56-B37F51D1E4E1";
paths = (
{
closed = 1;
nodes = (
"486 800 LINE",
"47 -142 LINE",
"107 -142 LINE",
"546 800 LINE"
);
}
);
width = 600;
},
{
layerId = "5521DC30-183F-421A-91F3-644B5E24AFE6";
paths = (
{
closed = 1;
nodes = (
"456 800 LINE",
"17 -142 LINE",
"137 -142 LINE",
"576 800 LINE"
);
}
);
width = 600;
}
);
unicode = 2044;
},
{
glyphname = asterisk;
lastChange = "2017-02-10 01:42:07 +0000";
layers = (
{
layerId = "558B6FE6-F456-45D2-AA56-B37F51D1E4E1";
paths = (
{
closed = 1;
nodes = (
"417 555 LINE",
"329 665 LINE",
"281 629 LINE",
"358 512 LINE"
);
},
{
closed = 1;
nodes = (
"317 629 LINE",
"270 665 LINE",
"181 555 LINE",
"240 512 LINE"
);
},
{
closed = 1;
nodes = (
"299 685 LINE",
"168 735 LINE",
"146 666 LINE",
"281 629 LINE"
);
},
{
closed = 1;
nodes = (
"320 618 OFFCURVE",
"337 635 OFFCURVE",
"337 657 CURVE SMOOTH",
"337 678 OFFCURVE",
"320 695 OFFCURVE",
"299 695 CURVE SMOOTH",
"277 695 OFFCURVE",
"260 678 OFFCURVE",
"260 657 CURVE SMOOTH",
"260 635 OFFCURVE",
"277 618 OFFCURVE",
"299 618 CURVE SMOOTH"
);
},
{
closed = 1;
nodes = (
"329 665 LINE",
"336 800 LINE",
"263 800 LINE",
"270 665 LINE"
);
},
{
closed = 1;
nodes = (
"452 666 LINE",
"430 735 LINE",
"299 685 LINE",
"317 629 LINE"
);
}
);
width = 600;
},
{
layerId = "5521DC30-183F-421A-91F3-644B5E24AFE6";
paths = (
{
closed = 1;
nodes = (
"430 558 LINE",
"345 665 LINE",
"281 614 LINE",
"351 502 LINE"
);
},
{
closed = 1;
nodes = (
"317 614 LINE",
"254 665 LINE",
"168 558 LINE",
"247 502 LINE"
);
},
{
closed = 1;
nodes = (
"299 700 LINE",
"168 745 LINE",
"136 651 LINE",
"281 614 LINE"
);
},
{
closed = 1;
nodes = (
"325 611 OFFCURVE",
"347 630 OFFCURVE",
"347 654 CURVE SMOOTH",
"347 676 OFFCURVE",
"325 700 OFFCURVE",
"299 700 CURVE SMOOTH",
"272 700 OFFCURVE",
"250 676 OFFCURVE",
"250 654 CURVE SMOOTH",
"250 630 OFFCURVE",
"272 611 OFFCURVE",
"299 611 CURVE SMOOTH"
);
},
{
closed = 1;
nodes = (
"345 665 LINE",
"352 800 LINE",
"247 800 LINE",
"254 665 LINE"
);
},
{
closed = 1;
nodes = (
"462 651 LINE",
"430 745 LINE",
"299 700 LINE",
"317 614 LINE"
);
}
);
width = 600;
},
{
layerId = "BE68D89F-AB3F-4BDF-B332-ED50D7C47704";
paths = (
{
closed = 1;
nodes = (
"401 547 LINE",
"313 663 LINE",
"291 646 LINE",
"374 528 LINE"
);
},
{
closed = 1;
nodes = (
"307 646 LINE",
"285 663 LINE",
"197 547 LINE",
"224 528 LINE"
);
},
{
closed = 1;
nodes = (
"299 671 LINE",
"169 720 LINE",
"158 688 LINE",
"291 646 LINE"
);
},
{
closed = 1;
nodes = (
"309 640 OFFCURVE",
"316 648 OFFCURVE",
"316 658 CURVE SMOOTH",
"316 667 OFFCURVE",
"309 675 OFFCURVE",
"299 675 CURVE SMOOTH",
"289 675 OFFCURVE",
"281 667 OFFCURVE",
"281 658 CURVE SMOOTH",
"281 648 OFFCURVE",
"289 640 OFFCURVE",
"299 640 CURVE SMOOTH"
);
},
{
closed = 1;
nodes = (
"313 663 LINE",
"316 800 LINE",
"283 800 LINE",
"285 663 LINE"
);
},
{
closed = 1;
nodes = (
"439 688 LINE",
"428 720 LINE",
"299 671 LINE",
"307 646 LINE"
);
}
);
width = 600;
}
);
unicode = 002A;
},
{
glyphname = backslash;
lastChange = "2017-02-10 01:42:28 +0000";
layers = (
{
layerId = "558B6FE6-F456-45D2-AA56-B37F51D1E4E1";
paths = (
{
closed = 1;
nodes = (
"386 -142 LINE",
"466 -142 LINE",
"217 800 LINE",
"137 800 LINE"
);
}
);
width = 600;
},
{
layerId = "5521DC30-183F-421A-91F3-644B5E24AFE6";
paths = (
{
closed = 1;
nodes = (
"356 -142 LINE",
"496 -142 LINE",
"247 800 LINE",
"107 800 LINE"
);
}
);
width = 600;
},
{
layerId = "BE68D89F-AB3F-4BDF-B332-ED50D7C47704";
paths = (
{
closed = 1;
nodes = (
"411 -142 LINE",
"441 -142 LINE",
"192 800 LINE",
"162 800 LINE"
);
}
);
width = 600;
}
);
unicode = 005C;
},
{
glyphname = bullet;
lastChange = "2017-02-10 01:43:10 +0000";
layers = (
{
layerId = "558B6FE6-F456-45D2-AA56-B37F51D1E4E1";
paths = (
{
closed = 1;
nodes = (
"365 211 OFFCURVE",
"420 266 OFFCURVE",
"420 335 CURVE SMOOTH",
"420 405 OFFCURVE",
"365 460 OFFCURVE",
"296 460 CURVE SMOOTH",
"227 460 OFFCURVE",
"172 405 OFFCURVE",
"172 335 CURVE SMOOTH",
"172 266 OFFCURVE",
"227 211 OFFCURVE",
"296 211 CURVE SMOOTH"
);
}
);
width = 600;
},
{
layerId = "5521DC30-183F-421A-91F3-644B5E24AFE6";
paths = (
{
closed = 1;
nodes = (
"382 181 OFFCURVE",
"450 249 OFFCURVE",
"450 335 CURVE SMOOTH",
"450 422 OFFCURVE",
"382 490 OFFCURVE",
"296 490 CURVE SMOOTH",
"210 490 OFFCURVE",
"142 422 OFFCURVE",
"142 335 CURVE SMOOTH",
"142 249 OFFCURVE",
"210 181 OFFCURVE",
"296 181 CURVE SMOOTH"
);
}
);
width = 600;
},
{
layerId = "BE68D89F-AB3F-4BDF-B332-ED50D7C47704";
paths = (
{
closed = 1;
nodes = (
"341 255 OFFCURVE",
"376 291 OFFCURVE",
"376 335 CURVE SMOOTH",
"376 380 OFFCURVE",
"341 416 OFFCURVE",
"296 416 CURVE SMOOTH",
"251 416 OFFCURVE",
"216 380 OFFCURVE",
"216 335 CURVE SMOOTH",
"216 291 OFFCURVE",
"251 255 OFFCURVE",
"296 255 CURVE SMOOTH"
);
}
);
width = 600;
}
);
unicode = 2022;
},
{
glyphname = comma;
lastChange = "2017-02-10 01:43:55 +0000";
layers = (
{
layerId = "558B6FE6-F456-45D2-AA56-B37F51D1E4E1";
paths = (
{
closed = 1;
nodes = (
"300 -14 OFFCURVE",
"335 21 OFFCURVE",
"335 66 CURVE SMOOTH",
"335 109 OFFCURVE",
"300 144 OFFCURVE",
"256 144 CURVE SMOOTH",
"212 144 OFFCURVE",
"177 109 OFFCURVE",
"177 66 CURVE SMOOTH",
"177 21 OFFCURVE",
"212 -14 OFFCURVE",
"256 -14 CURVE SMOOTH"
);
},
{
closed = 1;
nodes = (
"198 -105 LINE",
"261 -132 LINE",
"330 35 LINE",
"238 25 LINE"
);
}
);
width = 600;
},
{
layerId = "5521DC30-183F-421A-91F3-644B5E24AFE6";
paths = (
{
closed = 1;
nodes = (
"311 -14 OFFCURVE",
"354 30 OFFCURVE",
"354 86 CURVE SMOOTH",
"354 139 OFFCURVE",
"311 183 OFFCURVE",
"256 183 CURVE SMOOTH",
"201 183 OFFCURVE",
"158 139 OFFCURVE",
"158 86 CURVE SMOOTH",
"158 30 OFFCURVE",
"201 -14 OFFCURVE",
"256 -14 CURVE SMOOTH"
);
},
{
closed = 1;
nodes = (
"179 -125 LINE",
"260 -152 LINE",
"341 36 LINE",
"228 25 LINE"
);
}
);
width = 600;
},
{
layerId = "BE68D89F-AB3F-4BDF-B332-ED50D7C47704";
paths = (
{
closed = 1;
nodes = (
"295 -7 OFFCURVE",
"318 16 OFFCURVE",
"318 45 CURVE SMOOTH",
"318 72 OFFCURVE",
"295 95 OFFCURVE",
"267 95 CURVE SMOOTH",
"239 95 OFFCURVE",
"216 72 OFFCURVE",
"216 45 CURVE SMOOTH",
"216 16 OFFCURVE",
"239 -7 OFFCURVE",
"267 -7 CURVE SMOOTH"
);
},
{
closed = 1;
nodes = (
"231 -95 LINE",
"261 -109 LINE",
"314 25 LINE",
"268 18 LINE"
);
}
);
width = 600;
}
);
unicode = 002C;
},
{
glyphname = exclam;
lastChange = "2017-02-10 01:47:54 +0000";
layers = (
{
layerId = "558B6FE6-F456-45D2-AA56-B37F51D1E4E1";
paths = (
{
closed = 1;
nodes = (
"334 -11 OFFCURVE",
"364 19 OFFCURVE",
"364 57 CURVE SMOOTH",
"364 94 OFFCURVE",
"334 124 OFFCURVE",
"296 124 CURVE SMOOTH",
"258 124 OFFCURVE",
"228 94 OFFCURVE",
"228 57 CURVE SMOOTH",
"228 19 OFFCURVE",
"258 -11 OFFCURVE",
"296 -11 CURVE SMOOTH"
);
},
{
closed = 1;
nodes = (
"337 205 LINE",
"347 700 LINE",
"244 700 LINE",
"254 205 LINE"
);
}
);
width = 600;
},
{
layerId = "5521DC30-183F-421A-91F3-644B5E24AFE6";
paths = (
{
closed = 1;
nodes = (
"346 -11 OFFCURVE",
"385 28 OFFCURVE",
"385 78 CURVE SMOOTH",
"385 126 OFFCURVE",
"346 165 OFFCURVE",
"296 165 CURVE SMOOTH",
"246 165 OFFCURVE",
"207 126 OFFCURVE",
"207 78 CURVE SMOOTH",
"207 28 OFFCURVE",
"246 -11 OFFCURVE",
"296 -11 CURVE SMOOTH"
);
},
{
closed = 1;
nodes = (
"357 225 LINE",
"377 700 LINE",
"214 700 LINE",
"234 225 LINE"
);
}
);
width = 600;
},
{
layerId = "BE68D89F-AB3F-4BDF-B332-ED50D7C47704";
paths = (
{
closed = 1;
nodes = (
"321 -11 OFFCURVE",
"340 8 OFFCURVE",
"340 33 CURVE SMOOTH",
"340 57 OFFCURVE",
"321 76 OFFCURVE",
"296 76 CURVE SMOOTH",
"271 76 OFFCURVE",
"252 57 OFFCURVE",
"252 33 CURVE SMOOTH",
"252 8 OFFCURVE",
"271 -11 OFFCURVE",
"296 -11 CURVE SMOOTH"
);
},
{
closed = 1;
nodes = (
"312 185 LINE",
"319 700 LINE",
"272 700 LINE",
"279 185 LINE"
);
}
);
width = 600;
}
);
unicode = 0021;
},
{
glyphname = numbersign;
lastChange = "2017-02-10 01:46:52 +0000";
layers = (
{
layerId = "558B6FE6-F456-45D2-AA56-B37F51D1E4E1";
paths = (
{
closed = 1;
nodes = (
"181 700 LINE",
"100 0 LINE",
"190 0 LINE",
"271 700 LINE"
);
},
{
closed = 1;
nodes = (
"397 700 LINE",
"316 0 LINE",
"406 0 LINE",
"487 700 LINE"
);
},
{
closed = 1;
nodes = (
"18 181 LINE",
"524 181 LINE",
"534 263 LINE",
"28 263 LINE"
);
},
{
closed = 1;
nodes = (
"51 426 LINE",
"557 426 LINE",
"567 508 LINE",
"61 508 LINE"
);
}
);
width = 600;
},
{
layerId = "5521DC30-183F-421A-91F3-644B5E24AFE6";
paths = (
{
closed = 1;
nodes = (
"151 700 LINE",
"70 0 LINE",
"220 0 LINE",
"301 700 LINE"
);
},
{
closed = 1;
nodes = (
"367 700 LINE",
"286 0 LINE",
"436 0 LINE",
"517 700 LINE"
);
},
{
closed = 1;
nodes = (
"7 161 LINE",
"533 161 LINE",
"547 283 LINE",
"21 283 LINE"
);
},
{
closed = 1;
nodes = (
"40 406 LINE",
"566 406 LINE",
"580 528 LINE",
"54 528 LINE"
);
}
);
width = 600;
},
{
layerId = "BE68D89F-AB3F-4BDF-B332-ED50D7C47704";
paths = (
{
closed = 1;
nodes = (
"206 700 LINE",
"125 0 LINE",
"155 0 LINE",
"236 700 LINE"
);
},
{
closed = 1;
nodes = (
"422 700 LINE",
"341 0 LINE",
"371 0 LINE",
"452 700 LINE"
);
},
{
closed = 1;
nodes = (
"30 210 LINE",
"516 210 LINE",
"520 242 LINE",
"34 242 LINE"
);
},
{
closed = 1;
nodes = (
"63 455 LINE",
"549 455 LINE",
"553 487 LINE",
"67 487 LINE"
);
}
);
width = 600;
}
);
unicode = 0023;
},
{
glyphname = period;
lastChange = "2017-02-10 01:43:01 +0000";
layers = (
{
layerId = "558B6FE6-F456-45D2-AA56-B37F51D1E4E1";
paths = (
{
closed = 1;
nodes = (
"341 -11 OFFCURVE",
"377 25 OFFCURVE",
"377 70 CURVE SMOOTH",
"377 115 OFFCURVE",
"341 151 OFFCURVE",
"296 151 CURVE SMOOTH",
"251 151 OFFCURVE",
"215 115 OFFCURVE",
"215 70 CURVE SMOOTH",
"215 25 OFFCURVE",
"251 -11 OFFCURVE",
"296 -11 CURVE SMOOTH"
);
}
);
width = 600;
},
{
layerId = "5521DC30-183F-421A-91F3-644B5E24AFE6";
paths = (
{
closed = 1;
nodes = (
"358 -11 OFFCURVE",
"407 38 OFFCURVE",
"407 100 CURVE SMOOTH",
"407 162 OFFCURVE",
"358 211 OFFCURVE",
"296 211 CURVE SMOOTH",
"234 211 OFFCURVE",
"185 162 OFFCURVE",
"185 100 CURVE SMOOTH",
"185 38 OFFCURVE",
"234 -11 OFFCURVE",
"296 -11 CURVE SMOOTH"
);
}
);
width = 600;
},
{
layerId = "BE68D89F-AB3F-4BDF-B332-ED50D7C47704";
paths = (
{
closed = 1;
nodes = (
"325 -12 OFFCURVE",
"348 11 OFFCURVE",
"348 40 CURVE SMOOTH",
"348 69 OFFCURVE",
"325 92 OFFCURVE",
"296 92 CURVE SMOOTH",
"267 92 OFFCURVE",
"244 69 OFFCURVE",
"244 40 CURVE SMOOTH",
"244 11 OFFCURVE",
"267 -12 OFFCURVE",
"296 -12 CURVE SMOOTH"
);
}
);
width = 600;
}
);
unicode = 002E;
},
{
glyphname = question;
lastChange = "2017-02-10 02:38:58 +0000";
layers = (
{
layerId = "558B6FE6-F456-45D2-AA56-B37F51D1E4E1";
paths = (
{
closed = 1;
nodes = (
"332 205 LINE",
"332 243 LINE",
"332 340 OFFCURVE",
"514 388 OFFCURVE",
"519 520 CURVE SMOOTH",
"524 639 OFFCURVE",
"434 706 OFFCURVE",
"303 706 CURVE SMOOTH",
"203 706 OFFCURVE",
"123 659 OFFCURVE",
"86 585 CURVE",
"173 540 LINE",
"194 588 OFFCURVE",
"244 623 OFFCURVE",
"303 623 CURVE SMOOTH",
"379 623 OFFCURVE",
"423 594 OFFCURVE",
"420 520 CURVE SMOOTH",
"415 413 OFFCURVE",
"238 391 OFFCURVE",
"238 228 CURVE",
"238 205 LINE"
);
},
{
closed = 1;
nodes = (
"324 -11 OFFCURVE",
"354 19 OFFCURVE",
"354 57 CURVE SMOOTH",
"354 94 OFFCURVE",
"324 124 OFFCURVE",
"286 124 CURVE SMOOTH",
"248 124 OFFCURVE",
"218 94 OFFCURVE",
"218 57 CURVE SMOOTH",
"218 19 OFFCURVE",
"248 -11 OFFCURVE",
"286 -11 CURVE SMOOTH"
);
}
);
width = 600;
},
{
layerId = "5521DC30-183F-421A-91F3-644B5E24AFE6";
paths = (
{
closed = 1;
nodes = (
"352 225 LINE",
"352 243 LINE",
"352 340 OFFCURVE",
"549 378 OFFCURVE",
"549 520 CURVE SMOOTH",
"549 649 OFFCURVE",
"434 706 OFFCURVE",
"303 706 CURVE SMOOTH",
"173 706 OFFCURVE",
"93 649 OFFCURVE",
"56 575 CURVE",
"173 500 LINE",
"194 548 OFFCURVE",
"244 583 OFFCURVE",
"303 583 CURVE SMOOTH",
"379 583 OFFCURVE",
"390 554 OFFCURVE",
"390 510 CURVE SMOOTH",
"390 433 OFFCURVE",
"218 401 OFFCURVE",
"218 238 CURVE",
"218 225 LINE"
);
},
{
closed = 1;
nodes = (
"335 -11 OFFCURVE",
"374 28 OFFCURVE",
"374 77 CURVE SMOOTH",
"374 125 OFFCURVE",
"335 164 OFFCURVE",
"286 164 CURVE SMOOTH",
"237 164 OFFCURVE",
"198 125 OFFCURVE",
"198 77 CURVE SMOOTH",
"198 28 OFFCURVE",
"237 -11 OFFCURVE",
"286 -11 CURVE SMOOTH"
);
}
);
width = 600;
},
{
layerId = "BE68D89F-AB3F-4BDF-B332-ED50D7C47704";
paths = (
{
closed = 1;
nodes = (
"301 185 LINE",
"301 229 LINE",
"301 336 OFFCURVE",
"479 393 OFFCURVE",
"489 520 CURVE SMOOTH",
"498 638 OFFCURVE",
"424 706 OFFCURVE",
"303 706 CURVE SMOOTH",
"208 706 OFFCURVE",
"130 657 OFFCURVE",
"106 612 CURVE",
"139 594 LINE",
"163 637 OFFCURVE",
"224 675 OFFCURVE",
"303 675 CURVE SMOOTH",
"369 675 OFFCURVE",
"463 643 OFFCURVE",
"453 520 CURVE SMOOTH",
"443 395 OFFCURVE",
"269 361 OFFCURVE",
"269 224 CURVE",
"269 185 LINE"
);
},
{
closed = 1;
nodes = (
"311 -11 OFFCURVE",
"330 8 OFFCURVE",
"330 33 CURVE SMOOTH",
"330 57 OFFCURVE",
"311 76 OFFCURVE",
"286 76 CURVE SMOOTH",
"261 76 OFFCURVE",
"242 57 OFFCURVE",
"242 33 CURVE SMOOTH",
"242 8 OFFCURVE",
"261 -11 OFFCURVE",
"286 -11 CURVE SMOOTH"
);
}
);
width = 600;
}
);
unicode = 003F;
},
{
glyphname = quotesingle;
lastChange = "2017-02-10 01:54:54 +0000";
layers = (
{
layerId = "558B6FE6-F456-45D2-AA56-B37F51D1E4E1";
paths = (
{
closed = 1;
nodes = (
"268 523 LINE",
"331 523 LINE",
"347 757 LINE",
"252 757 LINE"
);
}
);
width = 600;
},
{
layerId = "5521DC30-183F-421A-91F3-644B5E24AFE6";
paths = (
{
closed = 1;
nodes = (
"253 503 LINE",
"346 503 LINE",
"377 757 LINE",
"222 757 LINE"
);
}
);
width = 600;
},
{
layerId = "BE68D89F-AB3F-4BDF-B332-ED50D7C47704";
paths = (
{
closed = 1;
nodes = (
"291 553 LINE",
"316 553 LINE",
"327 757 LINE",
"280 757 LINE"
);
}
);
width = 600;
}
);
unicode = 0027;
},
{
glyphname = slash;
lastChange = "2017-02-10 01:53:07 +0000";
layers = (
{
layerId = "558B6FE6-F456-45D2-AA56-B37F51D1E4E1";
paths = (
{
closed = 1;
nodes = (
"386 800 LINE",
"137 -142 LINE",
"217 -142 LINE",
"466 800 LINE"
);
}
);
width = 600;
},
{
layerId = "5521DC30-183F-421A-91F3-644B5E24AFE6";
paths = (
{
closed = 1;
nodes = (
"356 800 LINE",
"107 -142 LINE",
"247 -142 LINE",
"496 800 LINE"
);
}
);
width = 600;
},
{
layerId = "BE68D89F-AB3F-4BDF-B332-ED50D7C47704";
paths = (
{
closed = 1;
nodes = (
"416 800 LINE",
"167 -142 LINE",
"197 -142 LINE",
"446 800 LINE"
);
}
);
width = 600;
}
);
unicode = 002F;
},
{
glyphname = underscore;
lastChange = "2017-02-10 01:53:24 +0000";
layers = (
{
layerId = "558B6FE6-F456-45D2-AA56-B37F51D1E4E1";
paths = (
{
closed = 1;
nodes = (
"45 -140 LINE",
"555 -140 LINE",
"555 -58 LINE",
"45 -58 LINE"
);
}
);
width = 600;
},
{
layerId = "5521DC30-183F-421A-91F3-644B5E24AFE6";
paths = (
{
closed = 1;
nodes = (
"25 -160 LINE",
"575 -160 LINE",
"575 -38 LINE",
"25 -38 LINE"
);
}
);
width = 600;
},
{
layerId = "BE68D89F-AB3F-4BDF-B332-ED50D7C47704";
paths = (
{
closed = 1;
nodes = (
"55 -115 LINE",
"545 -115 LINE",
"545 -83 LINE",
"55 -83 LINE"
);
}
);
width = 600;
}
);
unicode = 005F;
},
{
glyphname = braceleft;
lastChange = "2017-02-10 01:55:06 +0000";
layers = (
{
layerId = "558B6FE6-F456-45D2-AA56-B37F51D1E4E1";
paths = (
{
closed = 1;
nodes = (
"193 315 LINE SMOOTH",
"259 315 OFFCURVE",
"344 318 OFFCURVE",
"344 436 CURVE SMOOTH",
"344 606 LINE SMOOTH",
"344 692 OFFCURVE",
"372 724 OFFCURVE",
"459 724 CURVE SMOOTH",
"467 724 LINE",
"467 807 LINE",
"452 807 LINE SMOOTH",
"336 807 OFFCURVE",
"251 743 OFFCURVE",
"251 625 CURVE SMOOTH",
"251 476 LINE SMOOTH",
"251 390 OFFCURVE",
"233 358 OFFCURVE",
"186 358 CURVE SMOOTH",
"178 358 LINE",
"178 315 LINE"
);
},
{
closed = 1;
nodes = (
"178 275 LINE",
"186 275 LINE SMOOTH",
"233 275 OFFCURVE",
"251 243 OFFCURVE",
"251 157 CURVE SMOOTH",
"251 8 LINE SMOOTH",
"251 -110 OFFCURVE",
"336 -174 OFFCURVE",
"452 -174 CURVE SMOOTH",
"467 -174 LINE",
"467 -91 LINE",
"459 -91 LINE SMOOTH",
"372 -91 OFFCURVE",
"344 -59 OFFCURVE",
"344 27 CURVE SMOOTH",
"344 197 LINE SMOOTH",
"344 315 OFFCURVE",
"259 318 OFFCURVE",
"193 318 CURVE SMOOTH",
"178 318 LINE"
);
}
);
width = 600;
},
{
layerId = "5521DC30-183F-421A-91F3-644B5E24AFE6";
paths = (
{
closed = 1;
nodes = (
"223 315 LINE SMOOTH",
"289 315 OFFCURVE",
"374 318 OFFCURVE",
"374 436 CURVE SMOOTH",
"374 576 LINE SMOOTH",
"374 662 OFFCURVE",
"402 694 OFFCURVE",
"459 694 CURVE SMOOTH",
"487 694 LINE",
"487 817 LINE",
"432 817 LINE SMOOTH",
"316 817 OFFCURVE",
"231 753 OFFCURVE",
"231 635 CURVE SMOOTH",
"231 476 LINE SMOOTH",
"231 410 OFFCURVE",
"213 378 OFFCURVE",
"166 378 CURVE SMOOTH",
"153 378 LINE",
"153 315 LINE"
);
},
{
closed = 1;
nodes = (
"153 255 LINE",
"166 255 LINE SMOOTH",
"213 255 OFFCURVE",
"231 223 OFFCURVE",
"231 157 CURVE SMOOTH",
"231 -2 LINE SMOOTH",
"231 -120 OFFCURVE",
"316 -184 OFFCURVE",
"432 -184 CURVE SMOOTH",
"487 -184 LINE",
"487 -61 LINE",
"459 -61 LINE SMOOTH",
"402 -61 OFFCURVE",
"374 -29 OFFCURVE",
"374 57 CURVE SMOOTH",
"374 197 LINE SMOOTH",
"374 315 OFFCURVE",
"289 318 OFFCURVE",
"223 318 CURVE SMOOTH",
"153 318 LINE"
);
}
);
width = 600;
},
{
layerId = "BE68D89F-AB3F-4BDF-B332-ED50D7C47704";
paths = (
{
closed = 1;
nodes = (
"223 315 LINE SMOOTH",
"239 315 OFFCURVE",
"314 328 OFFCURVE",
"314 446 CURVE SMOOTH",
"314 616 LINE SMOOTH",
"314 732 OFFCURVE",
"372 775 OFFCURVE",
"459 775 CURVE SMOOTH",
"467 775 LINE",
"467 807 LINE",
"452 807 LINE SMOOTH",
"336 807 OFFCURVE",
"281 743 OFFCURVE",
"281 625 CURVE SMOOTH",
"281 476 LINE SMOOTH",
"281 390 OFFCURVE",
"263 333 OFFCURVE",
"186 333 CURVE SMOOTH",
"185 333 LINE",
"185 315 LINE"
);
},
{
closed = 1;
nodes = (
"185 300 LINE",
"186 300 LINE SMOOTH",
"263 300 OFFCURVE",
"281 243 OFFCURVE",
"281 157 CURVE SMOOTH",
"281 8 LINE SMOOTH",
"281 -110 OFFCURVE",
"336 -174 OFFCURVE",
"452 -174 CURVE SMOOTH",
"467 -174 LINE",
"467 -142 LINE",
"459 -142 LINE SMOOTH",
"372 -142 OFFCURVE",
"314 -99 OFFCURVE",
"314 17 CURVE SMOOTH",
"314 187 LINE SMOOTH",
"314 305 OFFCURVE",
"239 318 OFFCURVE",
"223 318 CURVE SMOOTH",
"185 318 LINE"
);
}
);
width = 600;
}
);
unicode = 007B;
},
{
glyphname = bracketleft;
lastChange = "2017-02-10 01:55:31 +0000";
layers = (
{
layerId = "558B6FE6-F456-45D2-AA56-B37F51D1E4E1";
paths = (
{
closed = 1;
nodes = (
"333 800 LINE",
"333 718 LINE",
"480 718 LINE",
"480 800 LINE"
);
},
{
closed = 1;
nodes = (
"338 800 LINE",
"245 800 LINE",
"245 -200 LINE",
"338 -200 LINE"
);
},
{
closed = 1;
nodes = (
"333 -118 LINE",
"333 -200 LINE",
"480 -200 LINE",
"480 -118 LINE"
);
}
);
width = 600;
},
{
layerId = "5521DC30-183F-421A-91F3-644B5E24AFE6";
paths = (
{
closed = 1;
nodes = (
"363 810 LINE",
"363 688 LINE",
"500 688 LINE",
"500 810 LINE"
);
},
{
closed = 1;
nodes = (
"368 810 LINE",
"215 810 LINE",
"215 -210 LINE",
"368 -210 LINE"
);
},
{
closed = 1;
nodes = (
"363 -88 LINE",
"363 -210 LINE",
"500 -210 LINE",
"500 -88 LINE"
);
}
);
width = 600;
},
{
layerId = "BE68D89F-AB3F-4BDF-B332-ED50D7C47704";
paths = (
{
closed = 1;
nodes = (
"303 800 LINE",
"303 768 LINE",
"480 768 LINE",
"480 800 LINE"
);
},
{
closed = 1;
nodes = (
"308 800 LINE",
"275 800 LINE",
"275 -200 LINE",
"308 -200 LINE"
);
},
{
closed = 1;
nodes = (
"303 -168 LINE",
"303 -200 LINE",
"480 -200 LINE",
"480 -168 LINE"
);
}
);
width = 600;
}
);
unicode = 005B;
},
